%TF.GenerationSoftware,KiCad,Pcbnew,(6.0.6-0)*%
%TF.CreationDate,2022-08-17T23:59:36-07:00*%
%TF.ProjectId,icp-20100,6963702d-3230-4313-9030-2e6b69636164,rev?*%
%TF.SameCoordinates,Original*%
%TF.FileFunction,Copper,L1,Top*%
%TF.FilePolarity,Positive*%
%FSLAX46Y46*%
G04 Gerber Fmt 4.6, Leading zero omitted, Abs format (unit mm)*
G04 Created by KiCad (PCBNEW (6.0.6-0)) date 2022-08-17 23:59:36*
%MOMM*%
%LPD*%
G01*
G04 APERTURE LIST*
G04 Aperture macros list*
%AMRoundRect*
0 Rectangle with rounded corners*
0 $1 Rounding radius*
0 $2 $3 $4 $5 $6 $7 $8 $9 X,Y pos of 4 corners*
0 Add a 4 corners polygon primitive as box body*
4,1,4,$2,$3,$4,$5,$6,$7,$8,$9,$2,$3,0*
0 Add four circle primitives for the rounded corners*
1,1,$1+$1,$2,$3*
1,1,$1+$1,$4,$5*
1,1,$1+$1,$6,$7*
1,1,$1+$1,$8,$9*
0 Add four rect primitives between the rounded corners*
20,1,$1+$1,$2,$3,$4,$5,0*
20,1,$1+$1,$4,$5,$6,$7,0*
20,1,$1+$1,$6,$7,$8,$9,0*
20,1,$1+$1,$8,$9,$2,$3,0*%
G04 Aperture macros list end*
%TA.AperFunction,SMDPad,CuDef*%
%ADD10RoundRect,0.014000X-0.181000X-0.161000X0.181000X-0.161000X0.181000X0.161000X-0.181000X0.161000X0*%
%TD*%
%TA.AperFunction,SMDPad,CuDef*%
%ADD11RoundRect,0.017500X-0.157500X-0.177500X0.157500X-0.177500X0.157500X0.177500X-0.157500X0.177500X0*%
%TD*%
%TA.AperFunction,SMDPad,CuDef*%
%ADD12RoundRect,0.225000X0.250000X-0.225000X0.250000X0.225000X-0.250000X0.225000X-0.250000X-0.225000X0*%
%TD*%
%TA.AperFunction,SMDPad,CuDef*%
%ADD13RoundRect,0.225000X-0.225000X-0.250000X0.225000X-0.250000X0.225000X0.250000X-0.225000X0.250000X0*%
%TD*%
%TA.AperFunction,ComponentPad*%
%ADD14R,1.700000X1.700000*%
%TD*%
%TA.AperFunction,ComponentPad*%
%ADD15O,1.700000X1.700000*%
%TD*%
%TA.AperFunction,SMDPad,CuDef*%
%ADD16RoundRect,0.200000X0.200000X0.275000X-0.200000X0.275000X-0.200000X-0.275000X0.200000X-0.275000X0*%
%TD*%
%TA.AperFunction,ViaPad*%
%ADD17C,0.800000*%
%TD*%
%TA.AperFunction,Conductor*%
%ADD18C,0.250000*%
%TD*%
G04 APERTURE END LIST*
D10*
%TO.P,U1,1,CSB*%
%TO.N,/~{CS}*%
X109456808Y-110000000D03*
%TO.P,U1,2,SCL/SCLK*%
%TO.N,/SCL*%
X109456808Y-110500000D03*
D11*
%TO.P,U1,3,VSS*%
%TO.N,GND*%
X109736808Y-111030000D03*
%TO.P,U1,4,SDA/SDI*%
%TO.N,/SDA*%
X110236808Y-111030000D03*
%TO.P,U1,5,VDD*%
%TO.N,+3V3*%
X110736808Y-111030000D03*
D10*
%TO.P,U1,6,AD0/SDO*%
%TO.N,/SDO*%
X111016808Y-110500000D03*
%TO.P,U1,7,INT*%
%TO.N,/INT*%
X111016808Y-110000000D03*
D11*
%TO.P,U1,8,RESV*%
%TO.N,GND*%
X110736808Y-109470000D03*
%TO.P,U1,9,RESV*%
X110236808Y-109470000D03*
%TO.P,U1,10,VDDIO*%
%TO.N,+3V3*%
X109736808Y-109470000D03*
%TD*%
D12*
%TO.P,C1,1*%
%TO.N,GND*%
X110871808Y-113932000D03*
%TO.P,C1,2*%
%TO.N,+3V3*%
X110871808Y-112382000D03*
%TD*%
D13*
%TO.P,C2,1*%
%TO.N,+3V3*%
X109690408Y-108127800D03*
%TO.P,C2,2*%
%TO.N,GND*%
X111240408Y-108127800D03*
%TD*%
D14*
%TO.P,J1,1,Pin_1*%
%TO.N,+3V3*%
X103698808Y-102625000D03*
D15*
%TO.P,J1,2,Pin_2*%
%TO.N,GND*%
X103698808Y-105165000D03*
%TO.P,J1,3,Pin_3*%
%TO.N,/~{CS}*%
X103698808Y-107705000D03*
%TO.P,J1,4,Pin_4*%
%TO.N,/SCL*%
X103698808Y-110245000D03*
%TO.P,J1,5,Pin_5*%
%TO.N,/SDA*%
X103698808Y-112785000D03*
%TO.P,J1,6,Pin_6*%
%TO.N,/SDO*%
X103698808Y-115325000D03*
%TO.P,J1,7,Pin_7*%
%TO.N,/INT*%
X103698808Y-117865000D03*
%TD*%
D16*
%TO.P,R1,1*%
%TO.N,/~{CS}*%
X108013808Y-109347000D03*
%TO.P,R1,2*%
%TO.N,+3V3*%
X106363808Y-109347000D03*
%TD*%
D17*
%TO.N,GND*%
X109779608Y-113919000D03*
X108433408Y-111810800D03*
%TO.N,+3V3*%
X109728808Y-107061000D03*
X106401408Y-108280200D03*
X111938608Y-112369600D03*
%TD*%
D18*
%TO.N,GND*%
X108433408Y-111810800D02*
X108926008Y-111810800D01*
X110736808Y-109470000D02*
X110736808Y-108631400D01*
X111240408Y-105702400D02*
X111240408Y-108127800D01*
X110858808Y-113919000D02*
X110871808Y-113932000D01*
X110703008Y-105165000D02*
X111240408Y-105702400D01*
X108926008Y-111810800D02*
X109736808Y-111000000D01*
X109779608Y-113919000D02*
X110858808Y-113919000D01*
X110736808Y-108631400D02*
X111240408Y-108127800D01*
X103698808Y-105165000D02*
X110703008Y-105165000D01*
X110236808Y-109470000D02*
X110736808Y-109470000D01*
%TO.N,+3V3*%
X110871808Y-111165000D02*
X110736808Y-111030000D01*
X109690408Y-109423600D02*
X109736808Y-109470000D01*
X106401408Y-109309400D02*
X106363808Y-109347000D01*
X111938608Y-112369600D02*
X110884208Y-112369600D01*
X109728808Y-108089400D02*
X109690408Y-108127800D01*
X110884208Y-112369600D02*
X110871808Y-112382000D01*
X109728808Y-107061000D02*
X109728808Y-108089400D01*
X109690408Y-108127800D02*
X109690408Y-109423600D01*
X110871808Y-112382000D02*
X110871808Y-111165000D01*
X106401408Y-108280200D02*
X106401408Y-109309400D01*
%TO.N,/SCL*%
X104451808Y-110998000D02*
X108949440Y-110998000D01*
X108949440Y-110998000D02*
X109447440Y-110500000D01*
X109447440Y-110500000D02*
X109456808Y-110500000D01*
X103698808Y-110245000D02*
X104451808Y-110998000D01*
%TO.N,/SDA*%
X108801176Y-112785000D02*
X110236808Y-111349368D01*
X103698808Y-112785000D02*
X108801176Y-112785000D01*
X110236808Y-111349368D02*
X110236808Y-111030000D01*
%TO.N,/SDO*%
X103698808Y-115325000D02*
X111599004Y-115325000D01*
X112303804Y-110500000D02*
X111016808Y-110500000D01*
X112827204Y-111023400D02*
X112303804Y-110500000D01*
X112827204Y-114096800D02*
X112827204Y-111023400D01*
X111599004Y-115325000D02*
X112827204Y-114096800D01*
%TO.N,/~{CS}*%
X105849808Y-110548000D02*
X108587390Y-110548000D01*
X108013808Y-109347000D02*
X108666808Y-110000000D01*
X108587390Y-110548000D02*
X109135390Y-110000000D01*
X103698808Y-108397000D02*
X105849808Y-110548000D01*
X108666808Y-110000000D02*
X109456808Y-110000000D01*
X109135390Y-110000000D02*
X109347808Y-110000000D01*
X103698808Y-107705000D02*
X103698808Y-108397000D01*
%TO.N,/INT*%
X103698808Y-117865000D02*
X105788808Y-115775000D01*
X105788808Y-115775000D02*
X111785400Y-115775000D01*
X113277204Y-114283196D02*
X113277204Y-110837004D01*
X112440200Y-110000000D02*
X111016808Y-110000000D01*
X113277204Y-110837004D02*
X112440200Y-110000000D01*
X111785400Y-115775000D02*
X113277204Y-114283196D01*
%TD*%
M02*
