%TF.GenerationSoftware,KiCad,Pcbnew,(6.0.6-0)*%
%TF.CreationDate,2022-08-17T23:59:36-07:00*%
%TF.ProjectId,icp-20100,6963702d-3230-4313-9030-2e6b69636164,rev?*%
%TF.SameCoordinates,Original*%
%TF.FileFunction,Legend,Top*%
%TF.FilePolarity,Positive*%
%FSLAX46Y46*%
G04 Gerber Fmt 4.6, Leading zero omitted, Abs format (unit mm)*
G04 Created by KiCad (PCBNEW (6.0.6-0)) date 2022-08-17 23:59:36*
%MOMM*%
%LPD*%
G01*
G04 APERTURE LIST*
%ADD10C,0.150000*%
%ADD11C,0.127000*%
%ADD12C,0.200000*%
%ADD13C,0.120000*%
G04 APERTURE END LIST*
D10*
X100763438Y-111829971D02*
X100715819Y-111944257D01*
X100715819Y-112134733D01*
X100763438Y-112210923D01*
X100811057Y-112249019D01*
X100906295Y-112287114D01*
X101001533Y-112287114D01*
X101096771Y-112249019D01*
X101144390Y-112210923D01*
X101192009Y-112134733D01*
X101239628Y-111982352D01*
X101287247Y-111906161D01*
X101334866Y-111868066D01*
X101430104Y-111829971D01*
X101525342Y-111829971D01*
X101620580Y-111868066D01*
X101668200Y-111906161D01*
X101715819Y-111982352D01*
X101715819Y-112172828D01*
X101668200Y-112287114D01*
X100715819Y-112629971D02*
X101715819Y-112629971D01*
X101715819Y-112820447D01*
X101668200Y-112934733D01*
X101572961Y-113010923D01*
X101477723Y-113049019D01*
X101287247Y-113087114D01*
X101144390Y-113087114D01*
X100953914Y-113049019D01*
X100858676Y-113010923D01*
X100763438Y-112934733D01*
X100715819Y-112820447D01*
X100715819Y-112629971D01*
X101001533Y-113391876D02*
X101001533Y-113772828D01*
X100715819Y-113315685D02*
X101715819Y-113582352D01*
X100715819Y-113849019D01*
X101693600Y-104546476D02*
X101741219Y-104470285D01*
X101741219Y-104356000D01*
X101693600Y-104241714D01*
X101598361Y-104165523D01*
X101503123Y-104127428D01*
X101312647Y-104089333D01*
X101169790Y-104089333D01*
X100979314Y-104127428D01*
X100884076Y-104165523D01*
X100788838Y-104241714D01*
X100741219Y-104356000D01*
X100741219Y-104432190D01*
X100788838Y-104546476D01*
X100836457Y-104584571D01*
X101169790Y-104584571D01*
X101169790Y-104432190D01*
X100741219Y-104927428D02*
X101741219Y-104927428D01*
X100741219Y-105384571D01*
X101741219Y-105384571D01*
X100741219Y-105765523D02*
X101741219Y-105765523D01*
X101741219Y-105956000D01*
X101693600Y-106070285D01*
X101598361Y-106146476D01*
X101503123Y-106184571D01*
X101312647Y-106222666D01*
X101169790Y-106222666D01*
X100979314Y-106184571D01*
X100884076Y-106146476D01*
X100788838Y-106070285D01*
X100741219Y-105956000D01*
X100741219Y-105765523D01*
X100763438Y-109309019D02*
X100715819Y-109423304D01*
X100715819Y-109613780D01*
X100763438Y-109689971D01*
X100811057Y-109728066D01*
X100906295Y-109766161D01*
X101001533Y-109766161D01*
X101096771Y-109728066D01*
X101144390Y-109689971D01*
X101192009Y-109613780D01*
X101239628Y-109461400D01*
X101287247Y-109385209D01*
X101334866Y-109347114D01*
X101430104Y-109309019D01*
X101525342Y-109309019D01*
X101620580Y-109347114D01*
X101668200Y-109385209D01*
X101715819Y-109461400D01*
X101715819Y-109651876D01*
X101668200Y-109766161D01*
X100811057Y-110566161D02*
X100763438Y-110528066D01*
X100715819Y-110413780D01*
X100715819Y-110337590D01*
X100763438Y-110223304D01*
X100858676Y-110147114D01*
X100953914Y-110109019D01*
X101144390Y-110070923D01*
X101287247Y-110070923D01*
X101477723Y-110109019D01*
X101572961Y-110147114D01*
X101668200Y-110223304D01*
X101715819Y-110337590D01*
X101715819Y-110413780D01*
X101668200Y-110528066D01*
X101620580Y-110566161D01*
X100715819Y-111289971D02*
X100715819Y-110909019D01*
X101715819Y-110909019D01*
X100763438Y-114395380D02*
X100715819Y-114509666D01*
X100715819Y-114700142D01*
X100763438Y-114776333D01*
X100811057Y-114814428D01*
X100906295Y-114852523D01*
X101001533Y-114852523D01*
X101096771Y-114814428D01*
X101144390Y-114776333D01*
X101192009Y-114700142D01*
X101239628Y-114547761D01*
X101287247Y-114471571D01*
X101334866Y-114433476D01*
X101430104Y-114395380D01*
X101525342Y-114395380D01*
X101620580Y-114433476D01*
X101668200Y-114471571D01*
X101715819Y-114547761D01*
X101715819Y-114738238D01*
X101668200Y-114852523D01*
X100715819Y-115195380D02*
X101715819Y-115195380D01*
X101715819Y-115385857D01*
X101668200Y-115500142D01*
X101572961Y-115576333D01*
X101477723Y-115614428D01*
X101287247Y-115652523D01*
X101144390Y-115652523D01*
X100953914Y-115614428D01*
X100858676Y-115576333D01*
X100763438Y-115500142D01*
X100715819Y-115385857D01*
X100715819Y-115195380D01*
X101715819Y-116147761D02*
X101715819Y-116300142D01*
X101668200Y-116376333D01*
X101572961Y-116452523D01*
X101382485Y-116490619D01*
X101049152Y-116490619D01*
X100858676Y-116452523D01*
X100763438Y-116376333D01*
X100715819Y-116300142D01*
X100715819Y-116147761D01*
X100763438Y-116071571D01*
X100858676Y-115995380D01*
X101049152Y-115957285D01*
X101382485Y-115957285D01*
X101572961Y-115995380D01*
X101668200Y-116071571D01*
X101715819Y-116147761D01*
X101741219Y-101498523D02*
X101741219Y-101993761D01*
X101360266Y-101727095D01*
X101360266Y-101841380D01*
X101312647Y-101917571D01*
X101265028Y-101955666D01*
X101169790Y-101993761D01*
X100931695Y-101993761D01*
X100836457Y-101955666D01*
X100788838Y-101917571D01*
X100741219Y-101841380D01*
X100741219Y-101612809D01*
X100788838Y-101536619D01*
X100836457Y-101498523D01*
X101741219Y-102222333D02*
X100741219Y-102489000D01*
X101741219Y-102755666D01*
X101741219Y-102946142D02*
X101741219Y-103441380D01*
X101360266Y-103174714D01*
X101360266Y-103289000D01*
X101312647Y-103365190D01*
X101265028Y-103403285D01*
X101169790Y-103441380D01*
X100931695Y-103441380D01*
X100836457Y-103403285D01*
X100788838Y-103365190D01*
X100741219Y-103289000D01*
X100741219Y-103060428D01*
X100788838Y-102984238D01*
X100836457Y-102946142D01*
X100715819Y-117309990D02*
X101715819Y-117309990D01*
X100715819Y-117690942D02*
X101715819Y-117690942D01*
X100715819Y-118148085D01*
X101715819Y-118148085D01*
X101715819Y-118414752D02*
X101715819Y-118871895D01*
X100715819Y-118643323D02*
X101715819Y-118643323D01*
X101998200Y-106889647D02*
X101998200Y-107689647D01*
X100811057Y-107537266D02*
X100763438Y-107499171D01*
X100715819Y-107384885D01*
X100715819Y-107308695D01*
X100763438Y-107194409D01*
X100858676Y-107118219D01*
X100953914Y-107080123D01*
X101144390Y-107042028D01*
X101287247Y-107042028D01*
X101477723Y-107080123D01*
X101572961Y-107118219D01*
X101668200Y-107194409D01*
X101715819Y-107308695D01*
X101715819Y-107384885D01*
X101668200Y-107499171D01*
X101620580Y-107537266D01*
X101998200Y-107689647D02*
X101998200Y-108451552D01*
X100763438Y-107842028D02*
X100715819Y-107956314D01*
X100715819Y-108146790D01*
X100763438Y-108222980D01*
X100811057Y-108261076D01*
X100906295Y-108299171D01*
X101001533Y-108299171D01*
X101096771Y-108261076D01*
X101144390Y-108222980D01*
X101192009Y-108146790D01*
X101239628Y-107994409D01*
X101287247Y-107918219D01*
X101334866Y-107880123D01*
X101430104Y-107842028D01*
X101525342Y-107842028D01*
X101620580Y-107880123D01*
X101668200Y-107918219D01*
X101715819Y-107994409D01*
X101715819Y-108184885D01*
X101668200Y-108299171D01*
X107470095Y-111862000D02*
X108270095Y-111862000D01*
X107546285Y-112700095D02*
X107508190Y-112662000D01*
X107470095Y-112547714D01*
X107470095Y-112471523D01*
X107508190Y-112357238D01*
X107584380Y-112281047D01*
X107660571Y-112242952D01*
X107812952Y-112204857D01*
X107927238Y-112204857D01*
X108079619Y-112242952D01*
X108155809Y-112281047D01*
X108232000Y-112357238D01*
X108270095Y-112471523D01*
X108270095Y-112547714D01*
X108232000Y-112662000D01*
X108193904Y-112700095D01*
X107470095Y-113042952D02*
X108270095Y-113042952D01*
X108270095Y-113347714D01*
X108232000Y-113423904D01*
X108193904Y-113462000D01*
X108117714Y-113500095D01*
X108003428Y-113500095D01*
X107927238Y-113462000D01*
X107889142Y-113423904D01*
X107851047Y-113347714D01*
X107851047Y-113042952D01*
X107774857Y-113842952D02*
X107774857Y-114452476D01*
X108193904Y-114795333D02*
X108232000Y-114833428D01*
X108270095Y-114909619D01*
X108270095Y-115100095D01*
X108232000Y-115176285D01*
X108193904Y-115214380D01*
X108117714Y-115252476D01*
X108041523Y-115252476D01*
X107927238Y-115214380D01*
X107470095Y-114757238D01*
X107470095Y-115252476D01*
X108270095Y-115747714D02*
X108270095Y-115823904D01*
X108232000Y-115900095D01*
X108193904Y-115938190D01*
X108117714Y-115976285D01*
X107965333Y-116014380D01*
X107774857Y-116014380D01*
X107622476Y-115976285D01*
X107546285Y-115938190D01*
X107508190Y-115900095D01*
X107470095Y-115823904D01*
X107470095Y-115747714D01*
X107508190Y-115671523D01*
X107546285Y-115633428D01*
X107622476Y-115595333D01*
X107774857Y-115557238D01*
X107965333Y-115557238D01*
X108117714Y-115595333D01*
X108193904Y-115633428D01*
X108232000Y-115671523D01*
X108270095Y-115747714D01*
X107470095Y-116776285D02*
X107470095Y-116319142D01*
X107470095Y-116547714D02*
X108270095Y-116547714D01*
X108155809Y-116471523D01*
X108079619Y-116395333D01*
X108041523Y-116319142D01*
X108270095Y-117271523D02*
X108270095Y-117347714D01*
X108232000Y-117423904D01*
X108193904Y-117462000D01*
X108117714Y-117500095D01*
X107965333Y-117538190D01*
X107774857Y-117538190D01*
X107622476Y-117500095D01*
X107546285Y-117462000D01*
X107508190Y-117423904D01*
X107470095Y-117347714D01*
X107470095Y-117271523D01*
X107508190Y-117195333D01*
X107546285Y-117157238D01*
X107622476Y-117119142D01*
X107774857Y-117081047D01*
X107965333Y-117081047D01*
X108117714Y-117119142D01*
X108193904Y-117157238D01*
X108232000Y-117195333D01*
X108270095Y-117271523D01*
X108270095Y-118033428D02*
X108270095Y-118109619D01*
X108232000Y-118185809D01*
X108193904Y-118223904D01*
X108117714Y-118262000D01*
X107965333Y-118300095D01*
X107774857Y-118300095D01*
X107622476Y-118262000D01*
X107546285Y-118223904D01*
X107508190Y-118185809D01*
X107470095Y-118109619D01*
X107470095Y-118033428D01*
X107508190Y-117957238D01*
X107546285Y-117919142D01*
X107622476Y-117881047D01*
X107774857Y-117842952D01*
X107965333Y-117842952D01*
X108117714Y-117881047D01*
X108193904Y-117919142D01*
X108232000Y-117957238D01*
X108270095Y-118033428D01*
X106601142Y-110852476D02*
X106563047Y-110966761D01*
X106524952Y-111004857D01*
X106448761Y-111042952D01*
X106334476Y-111042952D01*
X106258285Y-111004857D01*
X106220190Y-110966761D01*
X106182095Y-110890571D01*
X106182095Y-110585809D01*
X106982095Y-110585809D01*
X106982095Y-110852476D01*
X106944000Y-110928666D01*
X106905904Y-110966761D01*
X106829714Y-111004857D01*
X106753523Y-111004857D01*
X106677333Y-110966761D01*
X106639238Y-110928666D01*
X106601142Y-110852476D01*
X106601142Y-110585809D01*
X106182095Y-111385809D02*
X106715428Y-111385809D01*
X106563047Y-111385809D02*
X106639238Y-111423904D01*
X106677333Y-111462000D01*
X106715428Y-111538190D01*
X106715428Y-111614380D01*
X106220190Y-112185809D02*
X106182095Y-112109619D01*
X106182095Y-111957238D01*
X106220190Y-111881047D01*
X106296380Y-111842952D01*
X106601142Y-111842952D01*
X106677333Y-111881047D01*
X106715428Y-111957238D01*
X106715428Y-112109619D01*
X106677333Y-112185809D01*
X106601142Y-112223904D01*
X106524952Y-112223904D01*
X106448761Y-111842952D01*
X106182095Y-112909619D02*
X106601142Y-112909619D01*
X106677333Y-112871523D01*
X106715428Y-112795333D01*
X106715428Y-112642952D01*
X106677333Y-112566761D01*
X106220190Y-112909619D02*
X106182095Y-112833428D01*
X106182095Y-112642952D01*
X106220190Y-112566761D01*
X106296380Y-112528666D01*
X106372571Y-112528666D01*
X106448761Y-112566761D01*
X106486857Y-112642952D01*
X106486857Y-112833428D01*
X106524952Y-112909619D01*
X106182095Y-113290571D02*
X106982095Y-113290571D01*
X106486857Y-113366761D02*
X106182095Y-113595333D01*
X106715428Y-113595333D02*
X106410666Y-113290571D01*
X106182095Y-114052476D02*
X106220190Y-113976285D01*
X106258285Y-113938190D01*
X106334476Y-113900095D01*
X106563047Y-113900095D01*
X106639238Y-113938190D01*
X106677333Y-113976285D01*
X106715428Y-114052476D01*
X106715428Y-114166761D01*
X106677333Y-114242952D01*
X106639238Y-114281047D01*
X106563047Y-114319142D01*
X106334476Y-114319142D01*
X106258285Y-114281047D01*
X106220190Y-114242952D01*
X106182095Y-114166761D01*
X106182095Y-114052476D01*
X106715428Y-115004857D02*
X106182095Y-115004857D01*
X106715428Y-114662000D02*
X106296380Y-114662000D01*
X106220190Y-114700095D01*
X106182095Y-114776285D01*
X106182095Y-114890571D01*
X106220190Y-114966761D01*
X106258285Y-115004857D01*
X106715428Y-115271523D02*
X106715428Y-115576285D01*
X106982095Y-115385809D02*
X106296380Y-115385809D01*
X106220190Y-115423904D01*
X106182095Y-115500095D01*
X106182095Y-115576285D01*
X106601142Y-116719142D02*
X106563047Y-116833428D01*
X106524952Y-116871523D01*
X106448761Y-116909619D01*
X106334476Y-116909619D01*
X106258285Y-116871523D01*
X106220190Y-116833428D01*
X106182095Y-116757238D01*
X106182095Y-116452476D01*
X106982095Y-116452476D01*
X106982095Y-116719142D01*
X106944000Y-116795333D01*
X106905904Y-116833428D01*
X106829714Y-116871523D01*
X106753523Y-116871523D01*
X106677333Y-116833428D01*
X106639238Y-116795333D01*
X106601142Y-116719142D01*
X106601142Y-116452476D01*
X106182095Y-117366761D02*
X106220190Y-117290571D01*
X106258285Y-117252476D01*
X106334476Y-117214380D01*
X106563047Y-117214380D01*
X106639238Y-117252476D01*
X106677333Y-117290571D01*
X106715428Y-117366761D01*
X106715428Y-117481047D01*
X106677333Y-117557238D01*
X106639238Y-117595333D01*
X106563047Y-117633428D01*
X106334476Y-117633428D01*
X106258285Y-117595333D01*
X106220190Y-117557238D01*
X106182095Y-117481047D01*
X106182095Y-117366761D01*
X106182095Y-118319142D02*
X106601142Y-118319142D01*
X106677333Y-118281047D01*
X106715428Y-118204857D01*
X106715428Y-118052476D01*
X106677333Y-117976285D01*
X106220190Y-118319142D02*
X106182095Y-118242952D01*
X106182095Y-118052476D01*
X106220190Y-117976285D01*
X106296380Y-117938190D01*
X106372571Y-117938190D01*
X106448761Y-117976285D01*
X106486857Y-118052476D01*
X106486857Y-118242952D01*
X106524952Y-118319142D01*
X106182095Y-118700095D02*
X106715428Y-118700095D01*
X106563047Y-118700095D02*
X106639238Y-118738190D01*
X106677333Y-118776285D01*
X106715428Y-118852476D01*
X106715428Y-118928666D01*
X106182095Y-119538190D02*
X106982095Y-119538190D01*
X106220190Y-119538190D02*
X106182095Y-119462000D01*
X106182095Y-119309619D01*
X106220190Y-119233428D01*
X106258285Y-119195333D01*
X106334476Y-119157238D01*
X106563047Y-119157238D01*
X106639238Y-119195333D01*
X106677333Y-119233428D01*
X106715428Y-119309619D01*
X106715428Y-119462000D01*
X106677333Y-119538190D01*
D11*
%TO.C,U1*%
X109236808Y-109250000D02*
X109236808Y-109505000D01*
X111236808Y-109250000D02*
X111236808Y-109505000D01*
X111236808Y-111250000D02*
X111236808Y-110995000D01*
X109236808Y-111250000D02*
X109236808Y-110995000D01*
D12*
X108741808Y-110000000D02*
G75*
G03*
X108741808Y-110000000I-100000J0D01*
G01*
D13*
%TO.C,C1*%
X111381808Y-113297580D02*
X111381808Y-113016420D01*
X110361808Y-113297580D02*
X110361808Y-113016420D01*
%TO.C,C2*%
X110324828Y-108637800D02*
X110605988Y-108637800D01*
X110324828Y-107617800D02*
X110605988Y-107617800D01*
%TO.C,J1*%
X102368808Y-119195000D02*
X105028808Y-119195000D01*
X105028808Y-103895000D02*
X105028808Y-119195000D01*
X102368808Y-103895000D02*
X102368808Y-119195000D01*
X102368808Y-101295000D02*
X103698808Y-101295000D01*
X102368808Y-103895000D02*
X105028808Y-103895000D01*
X102368808Y-102625000D02*
X102368808Y-101295000D01*
%TO.C,R1*%
X107426066Y-108824500D02*
X106951550Y-108824500D01*
X107426066Y-109869500D02*
X106951550Y-109869500D01*
%TD*%
M02*
