%TF.GenerationSoftware,KiCad,Pcbnew,(6.0.6-0)*%
%TF.CreationDate,2022-08-17T23:59:36-07:00*%
%TF.ProjectId,icp-20100,6963702d-3230-4313-9030-2e6b69636164,rev?*%
%TF.SameCoordinates,Original*%
%TF.FileFunction,Copper,L2,Bot*%
%TF.FilePolarity,Positive*%
%FSLAX46Y46*%
G04 Gerber Fmt 4.6, Leading zero omitted, Abs format (unit mm)*
G04 Created by KiCad (PCBNEW (6.0.6-0)) date 2022-08-17 23:59:36*
%MOMM*%
%LPD*%
G01*
G04 APERTURE LIST*
%TA.AperFunction,ComponentPad*%
%ADD10R,1.700000X1.700000*%
%TD*%
%TA.AperFunction,ComponentPad*%
%ADD11O,1.700000X1.700000*%
%TD*%
%TA.AperFunction,ViaPad*%
%ADD12C,0.800000*%
%TD*%
%TA.AperFunction,Conductor*%
%ADD13C,0.250000*%
%TD*%
G04 APERTURE END LIST*
D10*
%TO.P,J1,1,Pin_1*%
%TO.N,+3V3*%
X103698808Y-102625000D03*
D11*
%TO.P,J1,2,Pin_2*%
%TO.N,GND*%
X103698808Y-105165000D03*
%TO.P,J1,3,Pin_3*%
%TO.N,/~{CS}*%
X103698808Y-107705000D03*
%TO.P,J1,4,Pin_4*%
%TO.N,/SCL*%
X103698808Y-110245000D03*
%TO.P,J1,5,Pin_5*%
%TO.N,/SDA*%
X103698808Y-112785000D03*
%TO.P,J1,6,Pin_6*%
%TO.N,/SDO*%
X103698808Y-115325000D03*
%TO.P,J1,7,Pin_7*%
%TO.N,/INT*%
X103698808Y-117865000D03*
%TD*%
D12*
%TO.N,GND*%
X109779608Y-113919000D03*
X108433408Y-111810800D03*
%TO.N,+3V3*%
X109728808Y-107061000D03*
X106401408Y-108280200D03*
X111938608Y-112369600D03*
%TD*%
D13*
%TO.N,GND*%
X104873808Y-113356600D02*
X105918808Y-114401600D01*
X109779608Y-113157000D02*
X108433408Y-111810800D01*
X109297008Y-114401600D02*
X109779608Y-113919000D01*
X103698808Y-105165000D02*
X104873808Y-106340000D01*
X105918808Y-114401600D02*
X109297008Y-114401600D01*
X104873808Y-106340000D02*
X104873808Y-113356600D01*
X109779608Y-113919000D02*
X109779608Y-113157000D01*
%TO.N,+3V3*%
X107011008Y-108280200D02*
X106401408Y-108280200D01*
X108182508Y-107108700D02*
X107011008Y-108280200D01*
X103698808Y-102625000D02*
X108182508Y-107108700D01*
X108182508Y-107108700D02*
X111938608Y-110864800D01*
X108182508Y-107108700D02*
X108230208Y-107061000D01*
X111938608Y-110864800D02*
X111938608Y-112369600D01*
X108230208Y-107061000D02*
X109728808Y-107061000D01*
%TD*%
M02*
