%TF.GenerationSoftware,KiCad,Pcbnew,(6.0.6-0)*%
%TF.CreationDate,2022-08-17T23:57:47-07:00*%
%TF.ProjectId,invensense_icm,696e7665-6e73-4656-9e73-655f69636d2e,rev?*%
%TF.SameCoordinates,Original*%
%TF.FileFunction,Legend,Bot*%
%TF.FilePolarity,Positive*%
%FSLAX46Y46*%
G04 Gerber Fmt 4.6, Leading zero omitted, Abs format (unit mm)*
G04 Created by KiCad (PCBNEW (6.0.6-0)) date 2022-08-17 23:57:47*
%MOMM*%
%LPD*%
G01*
G04 APERTURE LIST*
%ADD10C,0.150000*%
G04 APERTURE END LIST*
D10*
X118589904Y-104236190D02*
X117789904Y-104236190D01*
X117789904Y-104426666D01*
X117828000Y-104540952D01*
X117904190Y-104617142D01*
X117980380Y-104655238D01*
X118132761Y-104693333D01*
X118247047Y-104693333D01*
X118399428Y-104655238D01*
X118475619Y-104617142D01*
X118551809Y-104540952D01*
X118589904Y-104426666D01*
X118589904Y-104236190D01*
X118551809Y-105340952D02*
X118589904Y-105264761D01*
X118589904Y-105112380D01*
X118551809Y-105036190D01*
X118475619Y-104998095D01*
X118170857Y-104998095D01*
X118094666Y-105036190D01*
X118056571Y-105112380D01*
X118056571Y-105264761D01*
X118094666Y-105340952D01*
X118170857Y-105379047D01*
X118247047Y-105379047D01*
X118323238Y-104998095D01*
X118551809Y-105683809D02*
X118589904Y-105760000D01*
X118589904Y-105912380D01*
X118551809Y-105988571D01*
X118475619Y-106026666D01*
X118437523Y-106026666D01*
X118361333Y-105988571D01*
X118323238Y-105912380D01*
X118323238Y-105798095D01*
X118285142Y-105721904D01*
X118208952Y-105683809D01*
X118170857Y-105683809D01*
X118094666Y-105721904D01*
X118056571Y-105798095D01*
X118056571Y-105912380D01*
X118094666Y-105988571D01*
X118589904Y-106369523D02*
X118056571Y-106369523D01*
X117789904Y-106369523D02*
X117828000Y-106331428D01*
X117866095Y-106369523D01*
X117828000Y-106407619D01*
X117789904Y-106369523D01*
X117866095Y-106369523D01*
X118056571Y-107093333D02*
X118704190Y-107093333D01*
X118780380Y-107055238D01*
X118818476Y-107017142D01*
X118856571Y-106940952D01*
X118856571Y-106826666D01*
X118818476Y-106750476D01*
X118551809Y-107093333D02*
X118589904Y-107017142D01*
X118589904Y-106864761D01*
X118551809Y-106788571D01*
X118513714Y-106750476D01*
X118437523Y-106712380D01*
X118208952Y-106712380D01*
X118132761Y-106750476D01*
X118094666Y-106788571D01*
X118056571Y-106864761D01*
X118056571Y-107017142D01*
X118094666Y-107093333D01*
X118056571Y-107474285D02*
X118589904Y-107474285D01*
X118132761Y-107474285D02*
X118094666Y-107512380D01*
X118056571Y-107588571D01*
X118056571Y-107702857D01*
X118094666Y-107779047D01*
X118170857Y-107817142D01*
X118589904Y-107817142D01*
X118551809Y-108502857D02*
X118589904Y-108426666D01*
X118589904Y-108274285D01*
X118551809Y-108198095D01*
X118475619Y-108160000D01*
X118170857Y-108160000D01*
X118094666Y-108198095D01*
X118056571Y-108274285D01*
X118056571Y-108426666D01*
X118094666Y-108502857D01*
X118170857Y-108540952D01*
X118247047Y-108540952D01*
X118323238Y-108160000D01*
X118589904Y-109226666D02*
X117789904Y-109226666D01*
X118551809Y-109226666D02*
X118589904Y-109150476D01*
X118589904Y-108998095D01*
X118551809Y-108921904D01*
X118513714Y-108883809D01*
X118437523Y-108845714D01*
X118208952Y-108845714D01*
X118132761Y-108883809D01*
X118094666Y-108921904D01*
X118056571Y-108998095D01*
X118056571Y-109150476D01*
X118094666Y-109226666D01*
X118170857Y-110483809D02*
X118208952Y-110598095D01*
X118247047Y-110636190D01*
X118323238Y-110674285D01*
X118437523Y-110674285D01*
X118513714Y-110636190D01*
X118551809Y-110598095D01*
X118589904Y-110521904D01*
X118589904Y-110217142D01*
X117789904Y-110217142D01*
X117789904Y-110483809D01*
X117828000Y-110560000D01*
X117866095Y-110598095D01*
X117942285Y-110636190D01*
X118018476Y-110636190D01*
X118094666Y-110598095D01*
X118132761Y-110560000D01*
X118170857Y-110483809D01*
X118170857Y-110217142D01*
X118056571Y-110940952D02*
X118589904Y-111131428D01*
X118056571Y-111321904D02*
X118589904Y-111131428D01*
X118780380Y-111055238D01*
X118818476Y-111017142D01*
X118856571Y-110940952D01*
X118513714Y-111626666D02*
X118551809Y-111664761D01*
X118589904Y-111626666D01*
X118551809Y-111588571D01*
X118513714Y-111626666D01*
X118589904Y-111626666D01*
X118094666Y-111626666D02*
X118132761Y-111664761D01*
X118170857Y-111626666D01*
X118132761Y-111588571D01*
X118094666Y-111626666D01*
X118170857Y-111626666D01*
X118589904Y-112617142D02*
X117789904Y-112617142D01*
X118589904Y-113074285D02*
X118132761Y-112731428D01*
X117789904Y-113074285D02*
X118247047Y-112617142D01*
X118056571Y-113760000D02*
X118589904Y-113760000D01*
X118056571Y-113417142D02*
X118475619Y-113417142D01*
X118551809Y-113455238D01*
X118589904Y-113531428D01*
X118589904Y-113645714D01*
X118551809Y-113721904D01*
X118513714Y-113760000D01*
X118551809Y-114102857D02*
X118589904Y-114179047D01*
X118589904Y-114331428D01*
X118551809Y-114407619D01*
X118475619Y-114445714D01*
X118437523Y-114445714D01*
X118361333Y-114407619D01*
X118323238Y-114331428D01*
X118323238Y-114217142D01*
X118285142Y-114140952D01*
X118208952Y-114102857D01*
X118170857Y-114102857D01*
X118094666Y-114140952D01*
X118056571Y-114217142D01*
X118056571Y-114331428D01*
X118094666Y-114407619D01*
X118589904Y-114788571D02*
X117789904Y-114788571D01*
X118589904Y-115131428D02*
X118170857Y-115131428D01*
X118094666Y-115093333D01*
X118056571Y-115017142D01*
X118056571Y-114902857D01*
X118094666Y-114826666D01*
X118132761Y-114788571D01*
X118589904Y-116121904D02*
X117789904Y-116121904D01*
X118589904Y-116579047D01*
X117789904Y-116579047D01*
X118589904Y-117302857D02*
X118170857Y-117302857D01*
X118094666Y-117264761D01*
X118056571Y-117188571D01*
X118056571Y-117036190D01*
X118094666Y-116960000D01*
X118551809Y-117302857D02*
X118589904Y-117226666D01*
X118589904Y-117036190D01*
X118551809Y-116960000D01*
X118475619Y-116921904D01*
X118399428Y-116921904D01*
X118323238Y-116960000D01*
X118285142Y-117036190D01*
X118285142Y-117226666D01*
X118247047Y-117302857D01*
X118056571Y-117607619D02*
X118589904Y-117798095D01*
X118056571Y-117988571D02*
X118589904Y-117798095D01*
X118780380Y-117721904D01*
X118818476Y-117683809D01*
X118856571Y-117607619D01*
X118589904Y-118636190D02*
X118170857Y-118636190D01*
X118094666Y-118598095D01*
X118056571Y-118521904D01*
X118056571Y-118369523D01*
X118094666Y-118293333D01*
X118551809Y-118636190D02*
X118589904Y-118560000D01*
X118589904Y-118369523D01*
X118551809Y-118293333D01*
X118475619Y-118255238D01*
X118399428Y-118255238D01*
X118323238Y-118293333D01*
X118285142Y-118369523D01*
X118285142Y-118560000D01*
X118247047Y-118636190D01*
X118589904Y-119017142D02*
X117789904Y-119017142D01*
X118285142Y-119093333D02*
X118589904Y-119321904D01*
X118056571Y-119321904D02*
X118361333Y-119017142D01*
X119649333Y-108274285D02*
X119649333Y-108655238D01*
X119877904Y-108198095D02*
X119077904Y-108464761D01*
X119877904Y-108731428D01*
X119877904Y-108998095D02*
X119344571Y-108998095D01*
X119420761Y-108998095D02*
X119382666Y-109036190D01*
X119344571Y-109112380D01*
X119344571Y-109226666D01*
X119382666Y-109302857D01*
X119458857Y-109340952D01*
X119877904Y-109340952D01*
X119458857Y-109340952D02*
X119382666Y-109379047D01*
X119344571Y-109455238D01*
X119344571Y-109569523D01*
X119382666Y-109645714D01*
X119458857Y-109683809D01*
X119877904Y-109683809D01*
X119877904Y-110407619D02*
X119458857Y-110407619D01*
X119382666Y-110369523D01*
X119344571Y-110293333D01*
X119344571Y-110140952D01*
X119382666Y-110064761D01*
X119839809Y-110407619D02*
X119877904Y-110331428D01*
X119877904Y-110140952D01*
X119839809Y-110064761D01*
X119763619Y-110026666D01*
X119687428Y-110026666D01*
X119611238Y-110064761D01*
X119573142Y-110140952D01*
X119573142Y-110331428D01*
X119535047Y-110407619D01*
X119877904Y-111131428D02*
X119077904Y-111131428D01*
X119839809Y-111131428D02*
X119877904Y-111055238D01*
X119877904Y-110902857D01*
X119839809Y-110826666D01*
X119801714Y-110788571D01*
X119725523Y-110750476D01*
X119496952Y-110750476D01*
X119420761Y-110788571D01*
X119382666Y-110826666D01*
X119344571Y-110902857D01*
X119344571Y-111055238D01*
X119382666Y-111131428D01*
X119877904Y-111626666D02*
X119839809Y-111550476D01*
X119801714Y-111512380D01*
X119725523Y-111474285D01*
X119496952Y-111474285D01*
X119420761Y-111512380D01*
X119382666Y-111550476D01*
X119344571Y-111626666D01*
X119344571Y-111740952D01*
X119382666Y-111817142D01*
X119420761Y-111855238D01*
X119496952Y-111893333D01*
X119725523Y-111893333D01*
X119801714Y-111855238D01*
X119839809Y-111817142D01*
X119877904Y-111740952D01*
X119877904Y-111626666D01*
X119877904Y-112236190D02*
X119344571Y-112236190D01*
X119496952Y-112236190D02*
X119420761Y-112274285D01*
X119382666Y-112312380D01*
X119344571Y-112388571D01*
X119344571Y-112464761D01*
X119077904Y-112731428D02*
X119725523Y-112731428D01*
X119801714Y-112769523D01*
X119839809Y-112807619D01*
X119877904Y-112883809D01*
X119877904Y-113036190D01*
X119839809Y-113112380D01*
X119801714Y-113150476D01*
X119725523Y-113188571D01*
X119077904Y-113188571D01*
X119649333Y-113531428D02*
X119649333Y-113912380D01*
X119877904Y-113455238D02*
X119077904Y-113721904D01*
X119877904Y-113988571D01*
X119077904Y-114140952D02*
X119877904Y-114407619D01*
X119077904Y-114674285D01*
X119839809Y-114902857D02*
X119877904Y-114979047D01*
X119877904Y-115131428D01*
X119839809Y-115207619D01*
X119763619Y-115245714D01*
X119725523Y-115245714D01*
X119649333Y-115207619D01*
X119611238Y-115131428D01*
X119611238Y-115017142D01*
X119573142Y-114940952D01*
X119496952Y-114902857D01*
X119458857Y-114902857D01*
X119382666Y-114940952D01*
X119344571Y-115017142D01*
X119344571Y-115131428D01*
X119382666Y-115207619D01*
M02*
