%TF.GenerationSoftware,KiCad,Pcbnew,(6.0.6-0)*%
%TF.CreationDate,2022-08-17T23:57:47-07:00*%
%TF.ProjectId,invensense_icm,696e7665-6e73-4656-9e73-655f69636d2e,rev?*%
%TF.SameCoordinates,Original*%
%TF.FileFunction,Copper,L2,Bot*%
%TF.FilePolarity,Positive*%
%FSLAX46Y46*%
G04 Gerber Fmt 4.6, Leading zero omitted, Abs format (unit mm)*
G04 Created by KiCad (PCBNEW (6.0.6-0)) date 2022-08-17 23:57:47*
%MOMM*%
%LPD*%
G01*
G04 APERTURE LIST*
%TA.AperFunction,ComponentPad*%
%ADD10R,1.700000X1.700000*%
%TD*%
%TA.AperFunction,ComponentPad*%
%ADD11O,1.700000X1.700000*%
%TD*%
%TA.AperFunction,ViaPad*%
%ADD12C,0.800000*%
%TD*%
%TA.AperFunction,Conductor*%
%ADD13C,0.250000*%
%TD*%
G04 APERTURE END LIST*
D10*
%TO.P,J1,1,Pin_1*%
%TO.N,+3V3*%
X103200200Y-102625000D03*
D11*
%TO.P,J1,2,Pin_2*%
%TO.N,GND*%
X103200200Y-105165000D03*
%TO.P,J1,3,Pin_3*%
%TO.N,/SCL*%
X103200200Y-107705000D03*
%TO.P,J1,4,Pin_4*%
%TO.N,/SDA*%
X103200200Y-110245000D03*
%TO.P,J1,5,Pin_5*%
%TO.N,/SDO*%
X103200200Y-112785000D03*
%TO.P,J1,6,Pin_6*%
%TO.N,/~{CS}*%
X103200200Y-115325000D03*
%TO.P,J1,7,Pin_7*%
%TO.N,/INT*%
X103200200Y-117865000D03*
%TD*%
D12*
%TO.N,GND*%
X120243600Y-106476800D03*
X117500400Y-108813600D03*
X112826800Y-116433600D03*
X118414800Y-112115600D03*
X120243600Y-112877600D03*
X115620800Y-118059200D03*
X117348000Y-118059200D03*
X108356400Y-105359200D03*
X107340400Y-110337600D03*
X111353600Y-118770400D03*
X112141000Y-103886000D03*
%TO.N,+3V3*%
X114604800Y-111302800D03*
X116890800Y-112115600D03*
X110845600Y-110337600D03*
%TO.N,/~{CS}*%
X109601000Y-102223700D03*
X112928400Y-113741200D03*
X115355500Y-104267000D03*
%TO.N,/SCL*%
X117500400Y-106730800D03*
X115112800Y-109220000D03*
%TO.N,/SDA*%
X116332000Y-106299000D03*
%TO.N,/SDO*%
X115214400Y-108102400D03*
X115443000Y-105537000D03*
%TO.N,/INT*%
X108839000Y-103124000D03*
X115214400Y-110286800D03*
%TD*%
D13*
%TO.N,+3V3*%
X113639600Y-110337600D02*
X114604800Y-111302800D01*
X110845600Y-110337600D02*
X113639600Y-110337600D01*
X115417600Y-112115600D02*
X114604800Y-111302800D01*
X116890800Y-112115600D02*
X115417600Y-112115600D01*
%TO.N,/~{CS}*%
X113312200Y-102223700D02*
X115355500Y-104267000D01*
X109601000Y-102223700D02*
X113312200Y-102223700D01*
X107569000Y-101981000D02*
X106483000Y-103067000D01*
X106483000Y-103067000D02*
X106483000Y-110067886D01*
X106483000Y-110067886D02*
X105537000Y-111013886D01*
X105537000Y-112988200D02*
X105071600Y-113453600D01*
X105359200Y-113741200D02*
X105071600Y-113453600D01*
X105537000Y-111013886D02*
X105537000Y-112988200D01*
X109358300Y-101981000D02*
X107569000Y-101981000D01*
X109601000Y-102223700D02*
X109358300Y-101981000D01*
X103200200Y-115325000D02*
X105071600Y-113453600D01*
X112928400Y-113741200D02*
X105359200Y-113741200D01*
%TO.N,/SCL*%
X115112800Y-109220000D02*
X115122105Y-109220000D01*
X103200200Y-107705000D02*
X104588200Y-107705000D01*
X106476800Y-100584000D02*
X120015000Y-100584000D01*
X117500400Y-106781600D02*
X117500400Y-106730800D01*
X115122105Y-109220000D02*
X115939400Y-108402705D01*
X120523000Y-104902000D02*
X118694200Y-106730800D01*
X105283000Y-107010200D02*
X105283000Y-101777800D01*
X120015000Y-100584000D02*
X120523000Y-101092000D01*
X120523000Y-101092000D02*
X120523000Y-104902000D01*
X118694200Y-106730800D02*
X117500400Y-106730800D01*
X104588200Y-107705000D02*
X105283000Y-107010200D01*
X115939400Y-108342600D02*
X117500400Y-106781600D01*
X105283000Y-101777800D02*
X106476800Y-100584000D01*
X115939400Y-108402705D02*
X115939400Y-108342600D01*
%TO.N,/SDA*%
X105683000Y-107762200D02*
X103200200Y-110245000D01*
X119507000Y-101092000D02*
X106578400Y-101092000D01*
X116575200Y-106055800D02*
X118734200Y-106055800D01*
X120015000Y-101600000D02*
X119507000Y-101092000D01*
X116332000Y-106299000D02*
X116575200Y-106055800D01*
X106578400Y-101092000D02*
X105683000Y-101987400D01*
X120015000Y-104775000D02*
X120015000Y-101600000D01*
X105683000Y-101987400D02*
X105683000Y-107762200D01*
X118734200Y-106055800D02*
X120015000Y-104775000D01*
%TO.N,/SDO*%
X106781600Y-101549200D02*
X106083000Y-102247800D01*
X115443000Y-105537000D02*
X115316000Y-105664000D01*
X115519200Y-105613200D02*
X118541800Y-105613200D01*
X119202200Y-101549200D02*
X106781600Y-101549200D01*
X115443000Y-105537000D02*
X115519200Y-105613200D01*
X119507000Y-104648000D02*
X119507000Y-101854000D01*
X118541800Y-105613200D02*
X119507000Y-104648000D01*
X115316000Y-105664000D02*
X115316000Y-108000800D01*
X119507000Y-101854000D02*
X119202200Y-101549200D01*
X115316000Y-108000800D02*
X115214400Y-108102400D01*
X106083000Y-109902200D02*
X103200200Y-112785000D01*
X106083000Y-102247800D02*
X106083000Y-109902200D01*
%TO.N,/INT*%
X108839000Y-103124000D02*
X113157000Y-103124000D01*
X114300000Y-104267000D02*
X114300000Y-109372400D01*
X113157000Y-103124000D02*
X114300000Y-104267000D01*
X114300000Y-109372400D02*
X115214400Y-110286800D01*
%TD*%
%TA.AperFunction,Conductor*%
%TO.N,GND*%
G36*
X105420326Y-100528502D02*
G01*
X105466819Y-100582158D01*
X105476923Y-100652432D01*
X105447429Y-100717012D01*
X105441300Y-100723596D01*
X104890742Y-101274153D01*
X104882463Y-101281687D01*
X104875982Y-101285800D01*
X104839749Y-101324385D01*
X104829357Y-101335451D01*
X104826602Y-101338293D01*
X104806865Y-101358030D01*
X104804385Y-101361227D01*
X104796682Y-101370247D01*
X104766414Y-101402479D01*
X104762595Y-101409425D01*
X104762593Y-101409428D01*
X104756652Y-101420234D01*
X104745801Y-101436753D01*
X104733386Y-101452759D01*
X104730241Y-101460028D01*
X104730238Y-101460032D01*
X104715826Y-101493337D01*
X104710605Y-101503995D01*
X104708228Y-101508319D01*
X104657884Y-101558379D01*
X104588467Y-101573274D01*
X104522018Y-101548275D01*
X104496986Y-101523186D01*
X104418842Y-101418919D01*
X104413461Y-101411739D01*
X104296905Y-101324385D01*
X104160516Y-101273255D01*
X104098334Y-101266500D01*
X102302066Y-101266500D01*
X102239884Y-101273255D01*
X102103495Y-101324385D01*
X101986939Y-101411739D01*
X101899585Y-101528295D01*
X101848455Y-101664684D01*
X101841700Y-101726866D01*
X101841700Y-103523134D01*
X101848455Y-103585316D01*
X101899585Y-103721705D01*
X101986939Y-103838261D01*
X102103495Y-103925615D01*
X102111904Y-103928767D01*
X102111905Y-103928768D01*
X102221160Y-103969726D01*
X102277925Y-104012367D01*
X102302625Y-104078929D01*
X102287418Y-104148278D01*
X102268025Y-104174759D01*
X102144790Y-104303717D01*
X102138304Y-104311727D01*
X102018298Y-104487649D01*
X102013200Y-104496623D01*
X101923538Y-104689783D01*
X101919975Y-104699470D01*
X101864589Y-104899183D01*
X101866112Y-104907607D01*
X101878492Y-104911000D01*
X103328200Y-104911000D01*
X103396321Y-104931002D01*
X103442814Y-104984658D01*
X103454200Y-105037000D01*
X103454200Y-105293000D01*
X103434198Y-105361121D01*
X103380542Y-105407614D01*
X103328200Y-105419000D01*
X101883425Y-105419000D01*
X101869894Y-105422973D01*
X101868457Y-105432966D01*
X101898765Y-105567446D01*
X101901845Y-105577275D01*
X101981970Y-105774603D01*
X101986613Y-105783794D01*
X102097894Y-105965388D01*
X102103977Y-105973699D01*
X102243413Y-106134667D01*
X102250780Y-106141883D01*
X102414634Y-106277916D01*
X102423081Y-106283831D01*
X102492169Y-106324203D01*
X102540893Y-106375842D01*
X102553964Y-106445625D01*
X102527233Y-106511396D01*
X102486784Y-106544752D01*
X102473807Y-106551507D01*
X102469674Y-106554610D01*
X102469671Y-106554612D01*
X102445447Y-106572800D01*
X102295165Y-106685635D01*
X102140829Y-106847138D01*
X102014943Y-107031680D01*
X102012764Y-107036375D01*
X101936380Y-107200931D01*
X101920888Y-107234305D01*
X101861189Y-107449570D01*
X101837451Y-107671695D01*
X101850310Y-107894715D01*
X101851447Y-107899761D01*
X101851448Y-107899767D01*
X101875504Y-108006508D01*
X101899422Y-108112639D01*
X101983466Y-108319616D01*
X102100187Y-108510088D01*
X102246450Y-108678938D01*
X102418326Y-108821632D01*
X102424564Y-108825277D01*
X102491645Y-108864476D01*
X102540369Y-108916114D01*
X102553440Y-108985897D01*
X102526709Y-109051669D01*
X102486255Y-109085027D01*
X102473807Y-109091507D01*
X102469674Y-109094610D01*
X102469671Y-109094612D01*
X102312667Y-109212494D01*
X102295165Y-109225635D01*
X102140829Y-109387138D01*
X102137915Y-109391410D01*
X102137914Y-109391411D01*
X102088145Y-109464370D01*
X102014943Y-109571680D01*
X101976335Y-109654855D01*
X101955062Y-109700684D01*
X101920888Y-109774305D01*
X101861189Y-109989570D01*
X101837451Y-110211695D01*
X101837748Y-110216848D01*
X101837748Y-110216851D01*
X101848823Y-110408933D01*
X101850310Y-110434715D01*
X101851447Y-110439761D01*
X101851448Y-110439767D01*
X101871227Y-110527528D01*
X101899422Y-110652639D01*
X101983466Y-110859616D01*
X102035142Y-110943944D01*
X102081961Y-111020345D01*
X102100187Y-111050088D01*
X102246450Y-111218938D01*
X102418326Y-111361632D01*
X102488795Y-111402811D01*
X102491645Y-111404476D01*
X102540369Y-111456114D01*
X102553440Y-111525897D01*
X102526709Y-111591669D01*
X102486255Y-111625027D01*
X102473807Y-111631507D01*
X102469674Y-111634610D01*
X102469671Y-111634612D01*
X102299300Y-111762530D01*
X102295165Y-111765635D01*
X102140829Y-111927138D01*
X102137915Y-111931410D01*
X102137914Y-111931411D01*
X102100984Y-111985549D01*
X102014943Y-112111680D01*
X102012764Y-112116375D01*
X101928009Y-112298965D01*
X101920888Y-112314305D01*
X101861189Y-112529570D01*
X101837451Y-112751695D01*
X101837748Y-112756848D01*
X101837748Y-112756851D01*
X101843211Y-112851590D01*
X101850310Y-112974715D01*
X101851447Y-112979761D01*
X101851448Y-112979767D01*
X101863680Y-113034042D01*
X101899422Y-113192639D01*
X101983466Y-113399616D01*
X101986165Y-113404020D01*
X102076401Y-113551272D01*
X102100187Y-113590088D01*
X102246450Y-113758938D01*
X102418326Y-113901632D01*
X102468803Y-113931128D01*
X102491645Y-113944476D01*
X102540369Y-113996114D01*
X102553440Y-114065897D01*
X102526709Y-114131669D01*
X102486255Y-114165027D01*
X102473807Y-114171507D01*
X102469674Y-114174610D01*
X102469671Y-114174612D01*
X102299300Y-114302530D01*
X102295165Y-114305635D01*
X102256236Y-114346372D01*
X102210051Y-114394702D01*
X102140829Y-114467138D01*
X102014943Y-114651680D01*
X101920888Y-114854305D01*
X101861189Y-115069570D01*
X101837451Y-115291695D01*
X101837748Y-115296848D01*
X101837748Y-115296851D01*
X101843211Y-115391590D01*
X101850310Y-115514715D01*
X101851447Y-115519761D01*
X101851448Y-115519767D01*
X101871319Y-115607939D01*
X101899422Y-115732639D01*
X101983466Y-115939616D01*
X102100187Y-116130088D01*
X102246450Y-116298938D01*
X102418326Y-116441632D01*
X102488795Y-116482811D01*
X102491645Y-116484476D01*
X102540369Y-116536114D01*
X102553440Y-116605897D01*
X102526709Y-116671669D01*
X102486255Y-116705027D01*
X102473807Y-116711507D01*
X102469674Y-116714610D01*
X102469671Y-116714612D01*
X102445447Y-116732800D01*
X102295165Y-116845635D01*
X102140829Y-117007138D01*
X102014943Y-117191680D01*
X101920888Y-117394305D01*
X101861189Y-117609570D01*
X101837451Y-117831695D01*
X101837748Y-117836848D01*
X101837748Y-117836851D01*
X101843211Y-117931590D01*
X101850310Y-118054715D01*
X101851447Y-118059761D01*
X101851448Y-118059767D01*
X101871319Y-118147939D01*
X101899422Y-118272639D01*
X101983466Y-118479616D01*
X102100187Y-118670088D01*
X102246450Y-118838938D01*
X102418326Y-118981632D01*
X102611200Y-119094338D01*
X102819892Y-119174030D01*
X102824960Y-119175061D01*
X102824963Y-119175062D01*
X102932217Y-119196883D01*
X103038797Y-119218567D01*
X103043972Y-119218757D01*
X103043974Y-119218757D01*
X103256873Y-119226564D01*
X103256877Y-119226564D01*
X103262037Y-119226753D01*
X103267157Y-119226097D01*
X103267159Y-119226097D01*
X103478488Y-119199025D01*
X103478489Y-119199025D01*
X103483616Y-119198368D01*
X103488566Y-119196883D01*
X103692629Y-119135661D01*
X103692634Y-119135659D01*
X103697584Y-119134174D01*
X103898194Y-119035896D01*
X104080060Y-118906173D01*
X104238296Y-118748489D01*
X104297794Y-118665689D01*
X104365635Y-118571277D01*
X104368653Y-118567077D01*
X104467630Y-118366811D01*
X104532570Y-118153069D01*
X104561729Y-117931590D01*
X104563356Y-117865000D01*
X104545052Y-117642361D01*
X104490631Y-117425702D01*
X104401554Y-117220840D01*
X104280214Y-117033277D01*
X104129870Y-116868051D01*
X104125819Y-116864852D01*
X104125815Y-116864848D01*
X103958614Y-116732800D01*
X103958610Y-116732798D01*
X103954559Y-116729598D01*
X103913253Y-116706796D01*
X103863284Y-116656364D01*
X103848512Y-116586921D01*
X103873628Y-116520516D01*
X103900980Y-116493909D01*
X103944803Y-116462650D01*
X104080060Y-116366173D01*
X104238296Y-116208489D01*
X104297794Y-116125689D01*
X104365635Y-116031277D01*
X104368653Y-116027077D01*
X104467630Y-115826811D01*
X104532570Y-115613069D01*
X104561729Y-115391590D01*
X104563356Y-115325000D01*
X104545052Y-115102361D01*
X104517021Y-114990765D01*
X104519825Y-114919823D01*
X104550130Y-114870974D01*
X105040706Y-114380398D01*
X105103018Y-114346372D01*
X105165184Y-114352421D01*
X105166171Y-114349022D01*
X105173781Y-114351233D01*
X105181055Y-114354381D01*
X105188878Y-114355620D01*
X105188888Y-114355623D01*
X105224724Y-114361299D01*
X105236344Y-114363705D01*
X105271489Y-114372728D01*
X105279170Y-114374700D01*
X105299424Y-114374700D01*
X105319134Y-114376251D01*
X105339143Y-114379420D01*
X105347035Y-114378674D01*
X105383161Y-114375259D01*
X105395019Y-114374700D01*
X112220200Y-114374700D01*
X112288321Y-114394702D01*
X112307547Y-114411043D01*
X112307820Y-114410740D01*
X112312732Y-114415163D01*
X112317147Y-114420066D01*
X112471648Y-114532318D01*
X112477676Y-114535002D01*
X112477678Y-114535003D01*
X112640081Y-114607309D01*
X112646112Y-114609994D01*
X112739512Y-114629847D01*
X112826456Y-114648328D01*
X112826461Y-114648328D01*
X112832913Y-114649700D01*
X113023887Y-114649700D01*
X113030339Y-114648328D01*
X113030344Y-114648328D01*
X113117288Y-114629847D01*
X113210688Y-114609994D01*
X113216719Y-114607309D01*
X113379122Y-114535003D01*
X113379124Y-114535002D01*
X113385152Y-114532318D01*
X113539653Y-114420066D01*
X113576251Y-114379420D01*
X113663021Y-114283052D01*
X113663022Y-114283051D01*
X113667440Y-114278144D01*
X113762927Y-114112756D01*
X113821942Y-113931128D01*
X113825390Y-113898327D01*
X113841214Y-113747765D01*
X113841904Y-113741200D01*
X113826022Y-113590088D01*
X113822632Y-113557835D01*
X113822632Y-113557833D01*
X113821942Y-113551272D01*
X113762927Y-113369644D01*
X113667440Y-113204256D01*
X113661290Y-113197425D01*
X113544075Y-113067245D01*
X113544074Y-113067244D01*
X113539653Y-113062334D01*
X113403352Y-112963305D01*
X113390494Y-112953963D01*
X113390493Y-112953962D01*
X113385152Y-112950082D01*
X113379124Y-112947398D01*
X113379122Y-112947397D01*
X113216719Y-112875091D01*
X113216718Y-112875091D01*
X113210688Y-112872406D01*
X113112757Y-112851590D01*
X113030344Y-112834072D01*
X113030339Y-112834072D01*
X113023887Y-112832700D01*
X112832913Y-112832700D01*
X112826461Y-112834072D01*
X112826456Y-112834072D01*
X112744043Y-112851590D01*
X112646112Y-112872406D01*
X112640082Y-112875091D01*
X112640081Y-112875091D01*
X112477678Y-112947397D01*
X112477676Y-112947398D01*
X112471648Y-112950082D01*
X112466307Y-112953962D01*
X112466306Y-112953963D01*
X112453448Y-112963305D01*
X112317147Y-113062334D01*
X112312732Y-113067237D01*
X112307820Y-113071660D01*
X112306695Y-113070411D01*
X112253386Y-113103251D01*
X112220200Y-113107700D01*
X106299272Y-113107700D01*
X106231151Y-113087698D01*
X106184658Y-113034042D01*
X106173831Y-112993560D01*
X106171059Y-112964241D01*
X106170500Y-112952381D01*
X106170500Y-111328481D01*
X106190502Y-111260360D01*
X106207405Y-111239385D01*
X106875258Y-110571533D01*
X106883537Y-110563999D01*
X106890018Y-110559886D01*
X106936644Y-110510234D01*
X106939398Y-110507393D01*
X106959135Y-110487656D01*
X106961615Y-110484459D01*
X106969320Y-110475437D01*
X106994159Y-110448986D01*
X106999586Y-110443207D01*
X107003405Y-110436261D01*
X107003407Y-110436258D01*
X107009348Y-110425452D01*
X107020199Y-110408933D01*
X107027758Y-110399187D01*
X107032614Y-110392927D01*
X107035759Y-110385658D01*
X107035762Y-110385654D01*
X107050174Y-110352349D01*
X107055391Y-110341699D01*
X107076695Y-110302946D01*
X107081733Y-110283323D01*
X107088137Y-110264620D01*
X107093033Y-110253306D01*
X107093033Y-110253305D01*
X107096181Y-110246031D01*
X107097420Y-110238208D01*
X107097423Y-110238198D01*
X107103099Y-110202362D01*
X107105505Y-110190742D01*
X107114528Y-110155597D01*
X107114528Y-110155596D01*
X107116500Y-110147916D01*
X107116500Y-110127662D01*
X107118051Y-110107951D01*
X107119980Y-110095772D01*
X107121220Y-110087943D01*
X107117059Y-110043924D01*
X107116500Y-110032067D01*
X107116500Y-103381595D01*
X107136502Y-103313474D01*
X107153405Y-103292499D01*
X107783056Y-102662849D01*
X107845368Y-102628824D01*
X107916184Y-102633889D01*
X107973019Y-102676436D01*
X107997830Y-102742956D01*
X107991984Y-102790881D01*
X107945458Y-102934072D01*
X107925496Y-103124000D01*
X107945458Y-103313928D01*
X108004473Y-103495556D01*
X108099960Y-103660944D01*
X108227747Y-103802866D01*
X108266587Y-103831085D01*
X108363820Y-103901729D01*
X108382248Y-103915118D01*
X108388276Y-103917802D01*
X108388278Y-103917803D01*
X108504900Y-103969726D01*
X108556712Y-103992794D01*
X108648795Y-104012367D01*
X108737056Y-104031128D01*
X108737061Y-104031128D01*
X108743513Y-104032500D01*
X108934487Y-104032500D01*
X108940939Y-104031128D01*
X108940944Y-104031128D01*
X109029205Y-104012367D01*
X109121288Y-103992794D01*
X109173100Y-103969726D01*
X109289722Y-103917803D01*
X109289724Y-103917802D01*
X109295752Y-103915118D01*
X109314181Y-103901729D01*
X109437011Y-103812487D01*
X109450253Y-103802866D01*
X109454668Y-103797963D01*
X109459580Y-103793540D01*
X109460705Y-103794789D01*
X109514014Y-103761949D01*
X109547200Y-103757500D01*
X112842405Y-103757500D01*
X112910526Y-103777502D01*
X112931501Y-103794405D01*
X113629596Y-104492501D01*
X113663621Y-104554813D01*
X113666500Y-104581596D01*
X113666500Y-109293633D01*
X113665973Y-109304816D01*
X113664298Y-109312309D01*
X113664547Y-109320235D01*
X113664547Y-109320236D01*
X113666438Y-109380386D01*
X113666500Y-109384345D01*
X113666500Y-109412256D01*
X113666997Y-109416190D01*
X113666997Y-109416191D01*
X113667005Y-109416256D01*
X113667938Y-109428093D01*
X113669327Y-109472289D01*
X113674978Y-109491739D01*
X113678987Y-109511100D01*
X113681526Y-109531197D01*
X113684444Y-109538567D01*
X113686416Y-109546248D01*
X113683156Y-109547085D01*
X113688191Y-109602517D01*
X113655367Y-109665470D01*
X113593719Y-109700684D01*
X113564579Y-109704100D01*
X111553800Y-109704100D01*
X111485679Y-109684098D01*
X111466453Y-109667757D01*
X111466180Y-109668060D01*
X111461268Y-109663637D01*
X111456853Y-109658734D01*
X111411789Y-109625993D01*
X111307694Y-109550363D01*
X111307693Y-109550362D01*
X111302352Y-109546482D01*
X111296324Y-109543798D01*
X111296322Y-109543797D01*
X111133919Y-109471491D01*
X111133918Y-109471491D01*
X111127888Y-109468806D01*
X111034488Y-109448953D01*
X110947544Y-109430472D01*
X110947539Y-109430472D01*
X110941087Y-109429100D01*
X110750113Y-109429100D01*
X110743661Y-109430472D01*
X110743656Y-109430472D01*
X110656712Y-109448953D01*
X110563312Y-109468806D01*
X110557282Y-109471491D01*
X110557281Y-109471491D01*
X110394878Y-109543797D01*
X110394876Y-109543798D01*
X110388848Y-109546482D01*
X110383507Y-109550362D01*
X110383506Y-109550363D01*
X110354166Y-109571680D01*
X110234347Y-109658734D01*
X110229926Y-109663644D01*
X110229925Y-109663645D01*
X110130287Y-109774305D01*
X110106560Y-109800656D01*
X110011073Y-109966044D01*
X109952058Y-110147672D01*
X109951368Y-110154233D01*
X109951368Y-110154235D01*
X109939766Y-110264620D01*
X109932096Y-110337600D01*
X109932786Y-110344165D01*
X109947379Y-110483006D01*
X109952058Y-110527528D01*
X110011073Y-110709156D01*
X110106560Y-110874544D01*
X110110978Y-110879451D01*
X110110979Y-110879452D01*
X110192103Y-110969549D01*
X110234347Y-111016466D01*
X110274569Y-111045689D01*
X110380067Y-111122338D01*
X110388848Y-111128718D01*
X110394876Y-111131402D01*
X110394878Y-111131403D01*
X110557281Y-111203709D01*
X110563312Y-111206394D01*
X110656713Y-111226247D01*
X110743656Y-111244728D01*
X110743661Y-111244728D01*
X110750113Y-111246100D01*
X110941087Y-111246100D01*
X110947539Y-111244728D01*
X110947544Y-111244728D01*
X111034487Y-111226247D01*
X111127888Y-111206394D01*
X111133919Y-111203709D01*
X111296322Y-111131403D01*
X111296324Y-111131402D01*
X111302352Y-111128718D01*
X111311134Y-111122338D01*
X111435271Y-111032146D01*
X111456853Y-111016466D01*
X111461268Y-111011563D01*
X111466180Y-111007140D01*
X111467305Y-111008389D01*
X111520614Y-110975549D01*
X111553800Y-110971100D01*
X113325006Y-110971100D01*
X113393127Y-110991102D01*
X113414101Y-111008005D01*
X113657678Y-111251582D01*
X113691704Y-111313894D01*
X113693892Y-111327503D01*
X113711258Y-111492728D01*
X113770273Y-111674356D01*
X113865760Y-111839744D01*
X113993547Y-111981666D01*
X114148048Y-112093918D01*
X114154076Y-112096602D01*
X114154078Y-112096603D01*
X114304867Y-112163738D01*
X114322512Y-112171594D01*
X114415913Y-112191447D01*
X114502856Y-112209928D01*
X114502861Y-112209928D01*
X114509313Y-112211300D01*
X114565205Y-112211300D01*
X114633326Y-112231302D01*
X114654300Y-112248205D01*
X114913948Y-112507853D01*
X114921488Y-112516139D01*
X114925600Y-112522618D01*
X114931377Y-112528043D01*
X114975251Y-112569243D01*
X114978093Y-112571998D01*
X114997830Y-112591735D01*
X115001027Y-112594215D01*
X115010047Y-112601918D01*
X115042279Y-112632186D01*
X115049225Y-112636005D01*
X115049228Y-112636007D01*
X115060034Y-112641948D01*
X115076553Y-112652799D01*
X115092559Y-112665214D01*
X115099828Y-112668359D01*
X115099832Y-112668362D01*
X115133137Y-112682774D01*
X115143787Y-112687991D01*
X115182540Y-112709295D01*
X115190215Y-112711266D01*
X115190216Y-112711266D01*
X115202162Y-112714333D01*
X115220867Y-112720737D01*
X115239455Y-112728781D01*
X115247278Y-112730020D01*
X115247288Y-112730023D01*
X115283124Y-112735699D01*
X115294744Y-112738105D01*
X115329889Y-112747128D01*
X115337570Y-112749100D01*
X115357824Y-112749100D01*
X115377534Y-112750651D01*
X115397543Y-112753820D01*
X115405435Y-112753074D01*
X115441561Y-112749659D01*
X115453419Y-112749100D01*
X116182600Y-112749100D01*
X116250721Y-112769102D01*
X116269947Y-112785443D01*
X116270220Y-112785140D01*
X116275132Y-112789563D01*
X116279547Y-112794466D01*
X116301129Y-112810146D01*
X116405867Y-112886243D01*
X116434048Y-112906718D01*
X116440076Y-112909402D01*
X116440078Y-112909403D01*
X116602481Y-112981709D01*
X116608512Y-112984394D01*
X116701912Y-113004247D01*
X116788856Y-113022728D01*
X116788861Y-113022728D01*
X116795313Y-113024100D01*
X116986287Y-113024100D01*
X116992739Y-113022728D01*
X116992744Y-113022728D01*
X117079687Y-113004247D01*
X117173088Y-112984394D01*
X117179119Y-112981709D01*
X117341522Y-112909403D01*
X117341524Y-112909402D01*
X117347552Y-112906718D01*
X117502053Y-112794466D01*
X117510576Y-112785000D01*
X117625421Y-112657452D01*
X117625422Y-112657451D01*
X117629840Y-112652544D01*
X117725327Y-112487156D01*
X117784342Y-112305528D01*
X117792144Y-112231302D01*
X117803614Y-112122165D01*
X117804304Y-112115600D01*
X117784342Y-111925672D01*
X117725327Y-111744044D01*
X117629840Y-111578656D01*
X117502053Y-111436734D01*
X117398684Y-111361632D01*
X117352894Y-111328363D01*
X117352893Y-111328362D01*
X117347552Y-111324482D01*
X117341524Y-111321798D01*
X117341522Y-111321797D01*
X117179119Y-111249491D01*
X117179118Y-111249491D01*
X117173088Y-111246806D01*
X117057515Y-111222240D01*
X116992744Y-111208472D01*
X116992739Y-111208472D01*
X116986287Y-111207100D01*
X116795313Y-111207100D01*
X116788861Y-111208472D01*
X116788856Y-111208472D01*
X116724085Y-111222240D01*
X116608512Y-111246806D01*
X116602482Y-111249491D01*
X116602481Y-111249491D01*
X116440078Y-111321797D01*
X116440076Y-111321798D01*
X116434048Y-111324482D01*
X116428707Y-111328362D01*
X116428706Y-111328363D01*
X116379323Y-111364242D01*
X116279547Y-111436734D01*
X116275132Y-111441637D01*
X116270220Y-111446060D01*
X116269095Y-111444811D01*
X116215786Y-111477651D01*
X116182600Y-111482100D01*
X115732194Y-111482100D01*
X115664073Y-111462098D01*
X115643099Y-111445195D01*
X115551922Y-111354018D01*
X115517896Y-111291706D01*
X115515707Y-111278091D01*
X115512127Y-111244022D01*
X115524900Y-111174184D01*
X115573404Y-111122338D01*
X115586188Y-111115748D01*
X115665114Y-111080607D01*
X115665119Y-111080604D01*
X115671152Y-111077918D01*
X115825653Y-110965666D01*
X115830075Y-110960755D01*
X115949021Y-110828652D01*
X115949022Y-110828651D01*
X115953440Y-110823744D01*
X116048927Y-110658356D01*
X116107942Y-110476728D01*
X116115068Y-110408933D01*
X116127214Y-110293365D01*
X116127904Y-110286800D01*
X116113281Y-110147672D01*
X116108632Y-110103435D01*
X116108632Y-110103433D01*
X116107942Y-110096872D01*
X116048927Y-109915244D01*
X115982770Y-109800656D01*
X115956742Y-109755575D01*
X115956741Y-109755574D01*
X115953440Y-109749856D01*
X115949021Y-109744948D01*
X115946826Y-109741927D01*
X115922967Y-109675059D01*
X115939641Y-109604869D01*
X115944023Y-109597279D01*
X115944024Y-109597278D01*
X115947327Y-109591556D01*
X116006342Y-109409928D01*
X116022614Y-109255104D01*
X116049627Y-109189448D01*
X116058829Y-109179180D01*
X116331647Y-108906362D01*
X116339937Y-108898818D01*
X116346418Y-108894705D01*
X116393059Y-108845037D01*
X116395813Y-108842196D01*
X116415535Y-108822474D01*
X116418012Y-108819281D01*
X116425717Y-108810260D01*
X116450559Y-108783805D01*
X116455986Y-108778026D01*
X116459807Y-108771076D01*
X116465746Y-108760273D01*
X116476602Y-108743746D01*
X116484157Y-108734007D01*
X116484158Y-108734005D01*
X116489014Y-108727745D01*
X116506574Y-108687165D01*
X116511793Y-108676513D01*
X116515860Y-108669116D01*
X116537177Y-108640727D01*
X117501699Y-107676205D01*
X117564011Y-107642179D01*
X117582737Y-107640166D01*
X117582718Y-107639990D01*
X117589285Y-107639300D01*
X117595887Y-107639300D01*
X117602339Y-107637928D01*
X117602344Y-107637928D01*
X117689287Y-107619447D01*
X117782688Y-107599594D01*
X117788719Y-107596909D01*
X117951122Y-107524603D01*
X117951124Y-107524602D01*
X117957152Y-107521918D01*
X118111653Y-107409666D01*
X118116068Y-107404763D01*
X118120980Y-107400340D01*
X118122105Y-107401589D01*
X118175414Y-107368749D01*
X118208600Y-107364300D01*
X118615433Y-107364300D01*
X118626616Y-107364827D01*
X118634109Y-107366502D01*
X118642035Y-107366253D01*
X118642036Y-107366253D01*
X118702186Y-107364362D01*
X118706145Y-107364300D01*
X118734056Y-107364300D01*
X118737991Y-107363803D01*
X118738056Y-107363795D01*
X118749893Y-107362862D01*
X118782151Y-107361848D01*
X118786170Y-107361722D01*
X118794089Y-107361473D01*
X118813543Y-107355821D01*
X118832900Y-107351813D01*
X118845130Y-107350268D01*
X118845131Y-107350268D01*
X118852997Y-107349274D01*
X118860368Y-107346355D01*
X118860370Y-107346355D01*
X118894112Y-107332996D01*
X118905342Y-107329151D01*
X118940183Y-107319029D01*
X118940184Y-107319029D01*
X118947793Y-107316818D01*
X118954612Y-107312785D01*
X118954617Y-107312783D01*
X118965228Y-107306507D01*
X118982976Y-107297812D01*
X119001817Y-107290352D01*
X119037587Y-107264364D01*
X119047507Y-107257848D01*
X119078735Y-107239380D01*
X119078738Y-107239378D01*
X119085562Y-107235342D01*
X119099883Y-107221021D01*
X119114917Y-107208180D01*
X119124894Y-107200931D01*
X119131307Y-107196272D01*
X119159498Y-107162195D01*
X119167488Y-107153416D01*
X120776405Y-105544500D01*
X120838717Y-105510474D01*
X120909533Y-105515539D01*
X120966368Y-105558086D01*
X120991179Y-105624606D01*
X120991500Y-105633595D01*
X120991500Y-119865500D01*
X120971498Y-119933621D01*
X120917842Y-119980114D01*
X120865500Y-119991500D01*
X100134500Y-119991500D01*
X100066379Y-119971498D01*
X100019886Y-119917842D01*
X100008500Y-119865500D01*
X100008500Y-100634500D01*
X100028502Y-100566379D01*
X100082158Y-100519886D01*
X100134500Y-100508500D01*
X105352205Y-100508500D01*
X105420326Y-100528502D01*
G37*
%TD.AperFunction*%
%TD*%
M02*
