M48
; DRILL file {KiCad (6.0.6-0)} date Wednesday, August 17, 2022 at 11:57:55 PM
; FORMAT={-:-/ absolute / inch / decimal}
; #@! TF.CreationDate,2022-08-17T23:57:55-07:00
; #@! TF.GenerationSoftware,Kicad,Pcbnew,(6.0.6-0)
; #@! TF.FileFunction,Plated,1,2,PTH
FMAT,2
INCH
; #@! TA.AperFunction,Plated,PTH,ViaDrill
T1C0.0157
; #@! TA.AperFunction,Plated,PTH,ComponentDrill
T2C0.0394
%
G90
G05
T1
X4.226Y-4.344
X4.266Y-4.148
X4.285Y-4.06
X4.315Y-4.0246
X4.364Y-4.344
X4.384Y-4.676
X4.415Y-4.09
X4.442Y-4.584
X4.446Y-4.478
X4.512Y-4.382
X4.532Y-4.3
X4.536Y-4.256
X4.536Y-4.342
X4.5416Y-4.105
X4.545Y-4.155
X4.552Y-4.648
X4.58Y-4.185
X4.602Y-4.414
X4.62Y-4.648
X4.626Y-4.202
X4.626Y-4.284
X4.662Y-4.414
X4.734Y-4.192
X4.734Y-4.444
T2
X4.063Y-4.0404
X4.063Y-4.1404
X4.063Y-4.2404
X4.063Y-4.3404
X4.063Y-4.4404
X4.063Y-4.5404
X4.063Y-4.6404
T0
M30
