%TF.GenerationSoftware,KiCad,Pcbnew,(6.0.6-0)*%
%TF.CreationDate,2022-08-17T23:57:47-07:00*%
%TF.ProjectId,invensense_icm,696e7665-6e73-4656-9e73-655f69636d2e,rev?*%
%TF.SameCoordinates,Original*%
%TF.FileFunction,Soldermask,Top*%
%TF.FilePolarity,Negative*%
%FSLAX46Y46*%
G04 Gerber Fmt 4.6, Leading zero omitted, Abs format (unit mm)*
G04 Created by KiCad (PCBNEW (6.0.6-0)) date 2022-08-17 23:57:47*
%MOMM*%
%LPD*%
G01*
G04 APERTURE LIST*
G04 Aperture macros list*
%AMRoundRect*
0 Rectangle with rounded corners*
0 $1 Rounding radius*
0 $2 $3 $4 $5 $6 $7 $8 $9 X,Y pos of 4 corners*
0 Add a 4 corners polygon primitive as box body*
4,1,4,$2,$3,$4,$5,$6,$7,$8,$9,$2,$3,0*
0 Add four circle primitives for the rounded corners*
1,1,$1+$1,$2,$3*
1,1,$1+$1,$4,$5*
1,1,$1+$1,$6,$7*
1,1,$1+$1,$8,$9*
0 Add four rect primitives between the rounded corners*
20,1,$1+$1,$2,$3,$4,$5,0*
20,1,$1+$1,$4,$5,$6,$7,0*
20,1,$1+$1,$6,$7,$8,$9,0*
20,1,$1+$1,$8,$9,$2,$3,0*%
G04 Aperture macros list end*
%ADD10C,0.010000*%
%ADD11RoundRect,0.225000X0.250000X-0.225000X0.250000X0.225000X-0.250000X0.225000X-0.250000X-0.225000X0*%
%ADD12RoundRect,0.225000X0.225000X0.250000X-0.225000X0.250000X-0.225000X-0.250000X0.225000X-0.250000X0*%
%ADD13RoundRect,0.200000X0.275000X-0.200000X0.275000X0.200000X-0.275000X0.200000X-0.275000X-0.200000X0*%
%ADD14RoundRect,0.225000X-0.225000X-0.250000X0.225000X-0.250000X0.225000X0.250000X-0.225000X0.250000X0*%
%ADD15RoundRect,0.225000X-0.250000X0.225000X-0.250000X-0.225000X0.250000X-0.225000X0.250000X0.225000X0*%
%ADD16R,1.700000X1.700000*%
%ADD17O,1.700000X1.700000*%
%ADD18R,0.490000X0.350000*%
%ADD19R,0.350000X0.490000*%
%ADD20RoundRect,0.031500X-0.273500X-0.143500X0.273500X-0.143500X0.273500X0.143500X-0.273500X0.143500X0*%
%ADD21RoundRect,0.031500X0.143500X-0.273500X0.143500X0.273500X-0.143500X0.273500X-0.143500X-0.273500X0*%
%ADD22RoundRect,0.031500X0.273500X0.143500X-0.273500X0.143500X-0.273500X-0.143500X0.273500X-0.143500X0*%
%ADD23RoundRect,0.031500X-0.143500X0.273500X-0.143500X-0.273500X0.143500X-0.273500X0.143500X0.273500X0*%
G04 APERTURE END LIST*
%TO.C,U2*%
G36*
X118898400Y-108339600D02*
G01*
X118905400Y-108340600D01*
X118917400Y-108342600D01*
X118924400Y-108344600D01*
X118930400Y-108346600D01*
X118948400Y-108355600D01*
X118953400Y-108358600D01*
X118958400Y-108362600D01*
X118964400Y-108366600D01*
X118969400Y-108370600D01*
X118973400Y-108375600D01*
X118978400Y-108379600D01*
X118982400Y-108384600D01*
X118986400Y-108390600D01*
X118990400Y-108395600D01*
X118993400Y-108401600D01*
X118996400Y-108406600D01*
X119002400Y-108418600D01*
X119004400Y-108424600D01*
X119006400Y-108431600D01*
X119008400Y-108443600D01*
X119009400Y-108450600D01*
X119010400Y-108456600D01*
X119010400Y-108670600D01*
X119009400Y-108676600D01*
X119008400Y-108683600D01*
X119006400Y-108695600D01*
X119004400Y-108702600D01*
X119002400Y-108708600D01*
X118996400Y-108720600D01*
X118993400Y-108725600D01*
X118990400Y-108731600D01*
X118986400Y-108736600D01*
X118982400Y-108742600D01*
X118978400Y-108747600D01*
X118973400Y-108751600D01*
X118969400Y-108756600D01*
X118964400Y-108760600D01*
X118958400Y-108764600D01*
X118953400Y-108768600D01*
X118948400Y-108771600D01*
X118930400Y-108780600D01*
X118924400Y-108782600D01*
X118917400Y-108784600D01*
X118905400Y-108786600D01*
X118898400Y-108787600D01*
X118892400Y-108788600D01*
X118438400Y-108788600D01*
X118432400Y-108787600D01*
X118425400Y-108786600D01*
X118413400Y-108784600D01*
X118406400Y-108782600D01*
X118400400Y-108780600D01*
X118382400Y-108771600D01*
X118377400Y-108768600D01*
X118372400Y-108764600D01*
X118366400Y-108760600D01*
X118361400Y-108756600D01*
X118357400Y-108751600D01*
X118352400Y-108747600D01*
X118348400Y-108742600D01*
X118344400Y-108736600D01*
X118340400Y-108731600D01*
X118337400Y-108725600D01*
X118334400Y-108720600D01*
X118328400Y-108708600D01*
X118326400Y-108702600D01*
X118324400Y-108695600D01*
X118322400Y-108683600D01*
X118321400Y-108676600D01*
X118320400Y-108670600D01*
X118320400Y-108456600D01*
X118321400Y-108450600D01*
X118322400Y-108443600D01*
X118324400Y-108431600D01*
X118326400Y-108424600D01*
X118328400Y-108418600D01*
X118334400Y-108406600D01*
X118337400Y-108401600D01*
X118340400Y-108395600D01*
X118344400Y-108390600D01*
X118348400Y-108384600D01*
X118352400Y-108379600D01*
X118357400Y-108375600D01*
X118361400Y-108370600D01*
X118366400Y-108366600D01*
X118372400Y-108362600D01*
X118377400Y-108358600D01*
X118382400Y-108355600D01*
X118400400Y-108346600D01*
X118406400Y-108344600D01*
X118413400Y-108342600D01*
X118425400Y-108340600D01*
X118432400Y-108339600D01*
X118438400Y-108338600D01*
X118892400Y-108338600D01*
X118898400Y-108339600D01*
G37*
D10*
X118898400Y-108339600D02*
X118905400Y-108340600D01*
X118917400Y-108342600D01*
X118924400Y-108344600D01*
X118930400Y-108346600D01*
X118948400Y-108355600D01*
X118953400Y-108358600D01*
X118958400Y-108362600D01*
X118964400Y-108366600D01*
X118969400Y-108370600D01*
X118973400Y-108375600D01*
X118978400Y-108379600D01*
X118982400Y-108384600D01*
X118986400Y-108390600D01*
X118990400Y-108395600D01*
X118993400Y-108401600D01*
X118996400Y-108406600D01*
X119002400Y-108418600D01*
X119004400Y-108424600D01*
X119006400Y-108431600D01*
X119008400Y-108443600D01*
X119009400Y-108450600D01*
X119010400Y-108456600D01*
X119010400Y-108670600D01*
X119009400Y-108676600D01*
X119008400Y-108683600D01*
X119006400Y-108695600D01*
X119004400Y-108702600D01*
X119002400Y-108708600D01*
X118996400Y-108720600D01*
X118993400Y-108725600D01*
X118990400Y-108731600D01*
X118986400Y-108736600D01*
X118982400Y-108742600D01*
X118978400Y-108747600D01*
X118973400Y-108751600D01*
X118969400Y-108756600D01*
X118964400Y-108760600D01*
X118958400Y-108764600D01*
X118953400Y-108768600D01*
X118948400Y-108771600D01*
X118930400Y-108780600D01*
X118924400Y-108782600D01*
X118917400Y-108784600D01*
X118905400Y-108786600D01*
X118898400Y-108787600D01*
X118892400Y-108788600D01*
X118438400Y-108788600D01*
X118432400Y-108787600D01*
X118425400Y-108786600D01*
X118413400Y-108784600D01*
X118406400Y-108782600D01*
X118400400Y-108780600D01*
X118382400Y-108771600D01*
X118377400Y-108768600D01*
X118372400Y-108764600D01*
X118366400Y-108760600D01*
X118361400Y-108756600D01*
X118357400Y-108751600D01*
X118352400Y-108747600D01*
X118348400Y-108742600D01*
X118344400Y-108736600D01*
X118340400Y-108731600D01*
X118337400Y-108725600D01*
X118334400Y-108720600D01*
X118328400Y-108708600D01*
X118326400Y-108702600D01*
X118324400Y-108695600D01*
X118322400Y-108683600D01*
X118321400Y-108676600D01*
X118320400Y-108670600D01*
X118320400Y-108456600D01*
X118321400Y-108450600D01*
X118322400Y-108443600D01*
X118324400Y-108431600D01*
X118326400Y-108424600D01*
X118328400Y-108418600D01*
X118334400Y-108406600D01*
X118337400Y-108401600D01*
X118340400Y-108395600D01*
X118344400Y-108390600D01*
X118348400Y-108384600D01*
X118352400Y-108379600D01*
X118357400Y-108375600D01*
X118361400Y-108370600D01*
X118366400Y-108366600D01*
X118372400Y-108362600D01*
X118377400Y-108358600D01*
X118382400Y-108355600D01*
X118400400Y-108346600D01*
X118406400Y-108344600D01*
X118413400Y-108342600D01*
X118425400Y-108340600D01*
X118432400Y-108339600D01*
X118438400Y-108338600D01*
X118892400Y-108338600D01*
X118898400Y-108339600D01*
G36*
X118113400Y-109384600D02*
G01*
X118120400Y-109385600D01*
X118132400Y-109387600D01*
X118139400Y-109389600D01*
X118145400Y-109391600D01*
X118157400Y-109397600D01*
X118162400Y-109400600D01*
X118168400Y-109403600D01*
X118173400Y-109407600D01*
X118179400Y-109411600D01*
X118184400Y-109415600D01*
X118188400Y-109420600D01*
X118193400Y-109424600D01*
X118197400Y-109429600D01*
X118201400Y-109435600D01*
X118205400Y-109440600D01*
X118208400Y-109445600D01*
X118217400Y-109463600D01*
X118219400Y-109469600D01*
X118221400Y-109476600D01*
X118223400Y-109488600D01*
X118224400Y-109495600D01*
X118225400Y-109501600D01*
X118225400Y-109955600D01*
X118224400Y-109961600D01*
X118223400Y-109968600D01*
X118221400Y-109980600D01*
X118219400Y-109987600D01*
X118217400Y-109993600D01*
X118208400Y-110011600D01*
X118205400Y-110016600D01*
X118201400Y-110021600D01*
X118197400Y-110027600D01*
X118193400Y-110032600D01*
X118188400Y-110036600D01*
X118184400Y-110041600D01*
X118179400Y-110045600D01*
X118173400Y-110049600D01*
X118168400Y-110053600D01*
X118162400Y-110056600D01*
X118157400Y-110059600D01*
X118145400Y-110065600D01*
X118139400Y-110067600D01*
X118132400Y-110069600D01*
X118120400Y-110071600D01*
X118113400Y-110072600D01*
X118107400Y-110073600D01*
X117893400Y-110073600D01*
X117887400Y-110072600D01*
X117880400Y-110071600D01*
X117868400Y-110069600D01*
X117861400Y-110067600D01*
X117855400Y-110065600D01*
X117837400Y-110056600D01*
X117832400Y-110053600D01*
X117827400Y-110049600D01*
X117821400Y-110045600D01*
X117816400Y-110041600D01*
X117812400Y-110036600D01*
X117807400Y-110032600D01*
X117803400Y-110027600D01*
X117799400Y-110021600D01*
X117795400Y-110016600D01*
X117792400Y-110011600D01*
X117783400Y-109993600D01*
X117781400Y-109987600D01*
X117779400Y-109980600D01*
X117777400Y-109968600D01*
X117776400Y-109961600D01*
X117775400Y-109955600D01*
X117775400Y-109501600D01*
X117776400Y-109495600D01*
X117777400Y-109488600D01*
X117779400Y-109476600D01*
X117781400Y-109469600D01*
X117783400Y-109463600D01*
X117792400Y-109445600D01*
X117795400Y-109440600D01*
X117799400Y-109435600D01*
X117803400Y-109429600D01*
X117807400Y-109424600D01*
X117812400Y-109420600D01*
X117816400Y-109415600D01*
X117821400Y-109411600D01*
X117827400Y-109407600D01*
X117832400Y-109403600D01*
X117838400Y-109400600D01*
X117843400Y-109397600D01*
X117855400Y-109391600D01*
X117861400Y-109389600D01*
X117868400Y-109387600D01*
X117880400Y-109385600D01*
X117887400Y-109384600D01*
X117893400Y-109383600D01*
X118107400Y-109383600D01*
X118113400Y-109384600D01*
G37*
X118113400Y-109384600D02*
X118120400Y-109385600D01*
X118132400Y-109387600D01*
X118139400Y-109389600D01*
X118145400Y-109391600D01*
X118157400Y-109397600D01*
X118162400Y-109400600D01*
X118168400Y-109403600D01*
X118173400Y-109407600D01*
X118179400Y-109411600D01*
X118184400Y-109415600D01*
X118188400Y-109420600D01*
X118193400Y-109424600D01*
X118197400Y-109429600D01*
X118201400Y-109435600D01*
X118205400Y-109440600D01*
X118208400Y-109445600D01*
X118217400Y-109463600D01*
X118219400Y-109469600D01*
X118221400Y-109476600D01*
X118223400Y-109488600D01*
X118224400Y-109495600D01*
X118225400Y-109501600D01*
X118225400Y-109955600D01*
X118224400Y-109961600D01*
X118223400Y-109968600D01*
X118221400Y-109980600D01*
X118219400Y-109987600D01*
X118217400Y-109993600D01*
X118208400Y-110011600D01*
X118205400Y-110016600D01*
X118201400Y-110021600D01*
X118197400Y-110027600D01*
X118193400Y-110032600D01*
X118188400Y-110036600D01*
X118184400Y-110041600D01*
X118179400Y-110045600D01*
X118173400Y-110049600D01*
X118168400Y-110053600D01*
X118162400Y-110056600D01*
X118157400Y-110059600D01*
X118145400Y-110065600D01*
X118139400Y-110067600D01*
X118132400Y-110069600D01*
X118120400Y-110071600D01*
X118113400Y-110072600D01*
X118107400Y-110073600D01*
X117893400Y-110073600D01*
X117887400Y-110072600D01*
X117880400Y-110071600D01*
X117868400Y-110069600D01*
X117861400Y-110067600D01*
X117855400Y-110065600D01*
X117837400Y-110056600D01*
X117832400Y-110053600D01*
X117827400Y-110049600D01*
X117821400Y-110045600D01*
X117816400Y-110041600D01*
X117812400Y-110036600D01*
X117807400Y-110032600D01*
X117803400Y-110027600D01*
X117799400Y-110021600D01*
X117795400Y-110016600D01*
X117792400Y-110011600D01*
X117783400Y-109993600D01*
X117781400Y-109987600D01*
X117779400Y-109980600D01*
X117777400Y-109968600D01*
X117776400Y-109961600D01*
X117775400Y-109955600D01*
X117775400Y-109501600D01*
X117776400Y-109495600D01*
X117777400Y-109488600D01*
X117779400Y-109476600D01*
X117781400Y-109469600D01*
X117783400Y-109463600D01*
X117792400Y-109445600D01*
X117795400Y-109440600D01*
X117799400Y-109435600D01*
X117803400Y-109429600D01*
X117807400Y-109424600D01*
X117812400Y-109420600D01*
X117816400Y-109415600D01*
X117821400Y-109411600D01*
X117827400Y-109407600D01*
X117832400Y-109403600D01*
X117838400Y-109400600D01*
X117843400Y-109397600D01*
X117855400Y-109391600D01*
X117861400Y-109389600D01*
X117868400Y-109387600D01*
X117880400Y-109385600D01*
X117887400Y-109384600D01*
X117893400Y-109383600D01*
X118107400Y-109383600D01*
X118113400Y-109384600D01*
G36*
X117613400Y-109384600D02*
G01*
X117620400Y-109385600D01*
X117632400Y-109387600D01*
X117639400Y-109389600D01*
X117645400Y-109391600D01*
X117663400Y-109400600D01*
X117668400Y-109403600D01*
X117673400Y-109407600D01*
X117679400Y-109411600D01*
X117684400Y-109415600D01*
X117688400Y-109420600D01*
X117693400Y-109424600D01*
X117697400Y-109429600D01*
X117701400Y-109435600D01*
X117705400Y-109440600D01*
X117708400Y-109445600D01*
X117717400Y-109463600D01*
X117719400Y-109469600D01*
X117721400Y-109476600D01*
X117723400Y-109488600D01*
X117724400Y-109495600D01*
X117725400Y-109501600D01*
X117725400Y-109955600D01*
X117724400Y-109961600D01*
X117723400Y-109968600D01*
X117721400Y-109980600D01*
X117719400Y-109987600D01*
X117717400Y-109993600D01*
X117708400Y-110011600D01*
X117705400Y-110016600D01*
X117701400Y-110021600D01*
X117697400Y-110027600D01*
X117693400Y-110032600D01*
X117688400Y-110036600D01*
X117684400Y-110041600D01*
X117679400Y-110045600D01*
X117673400Y-110049600D01*
X117668400Y-110053600D01*
X117663400Y-110056600D01*
X117645400Y-110065600D01*
X117639400Y-110067600D01*
X117632400Y-110069600D01*
X117620400Y-110071600D01*
X117613400Y-110072600D01*
X117607400Y-110073600D01*
X117393400Y-110073600D01*
X117387400Y-110072600D01*
X117380400Y-110071600D01*
X117368400Y-110069600D01*
X117361400Y-110067600D01*
X117355400Y-110065600D01*
X117337400Y-110056600D01*
X117332400Y-110053600D01*
X117327400Y-110049600D01*
X117321400Y-110045600D01*
X117316400Y-110041600D01*
X117312400Y-110036600D01*
X117307400Y-110032600D01*
X117303400Y-110027600D01*
X117299400Y-110021600D01*
X117295400Y-110016600D01*
X117292400Y-110011600D01*
X117283400Y-109993600D01*
X117281400Y-109987600D01*
X117279400Y-109980600D01*
X117277400Y-109968600D01*
X117276400Y-109961600D01*
X117275400Y-109955600D01*
X117275400Y-109501600D01*
X117276400Y-109495600D01*
X117277400Y-109488600D01*
X117279400Y-109476600D01*
X117281400Y-109469600D01*
X117283400Y-109463600D01*
X117292400Y-109445600D01*
X117295400Y-109440600D01*
X117299400Y-109435600D01*
X117303400Y-109429600D01*
X117307400Y-109424600D01*
X117312400Y-109420600D01*
X117316400Y-109415600D01*
X117321400Y-109411600D01*
X117327400Y-109407600D01*
X117332400Y-109403600D01*
X117338400Y-109400600D01*
X117343400Y-109397600D01*
X117355400Y-109391600D01*
X117361400Y-109389600D01*
X117368400Y-109387600D01*
X117380400Y-109385600D01*
X117387400Y-109384600D01*
X117393400Y-109383600D01*
X117607400Y-109383600D01*
X117613400Y-109384600D01*
G37*
X117613400Y-109384600D02*
X117620400Y-109385600D01*
X117632400Y-109387600D01*
X117639400Y-109389600D01*
X117645400Y-109391600D01*
X117663400Y-109400600D01*
X117668400Y-109403600D01*
X117673400Y-109407600D01*
X117679400Y-109411600D01*
X117684400Y-109415600D01*
X117688400Y-109420600D01*
X117693400Y-109424600D01*
X117697400Y-109429600D01*
X117701400Y-109435600D01*
X117705400Y-109440600D01*
X117708400Y-109445600D01*
X117717400Y-109463600D01*
X117719400Y-109469600D01*
X117721400Y-109476600D01*
X117723400Y-109488600D01*
X117724400Y-109495600D01*
X117725400Y-109501600D01*
X117725400Y-109955600D01*
X117724400Y-109961600D01*
X117723400Y-109968600D01*
X117721400Y-109980600D01*
X117719400Y-109987600D01*
X117717400Y-109993600D01*
X117708400Y-110011600D01*
X117705400Y-110016600D01*
X117701400Y-110021600D01*
X117697400Y-110027600D01*
X117693400Y-110032600D01*
X117688400Y-110036600D01*
X117684400Y-110041600D01*
X117679400Y-110045600D01*
X117673400Y-110049600D01*
X117668400Y-110053600D01*
X117663400Y-110056600D01*
X117645400Y-110065600D01*
X117639400Y-110067600D01*
X117632400Y-110069600D01*
X117620400Y-110071600D01*
X117613400Y-110072600D01*
X117607400Y-110073600D01*
X117393400Y-110073600D01*
X117387400Y-110072600D01*
X117380400Y-110071600D01*
X117368400Y-110069600D01*
X117361400Y-110067600D01*
X117355400Y-110065600D01*
X117337400Y-110056600D01*
X117332400Y-110053600D01*
X117327400Y-110049600D01*
X117321400Y-110045600D01*
X117316400Y-110041600D01*
X117312400Y-110036600D01*
X117307400Y-110032600D01*
X117303400Y-110027600D01*
X117299400Y-110021600D01*
X117295400Y-110016600D01*
X117292400Y-110011600D01*
X117283400Y-109993600D01*
X117281400Y-109987600D01*
X117279400Y-109980600D01*
X117277400Y-109968600D01*
X117276400Y-109961600D01*
X117275400Y-109955600D01*
X117275400Y-109501600D01*
X117276400Y-109495600D01*
X117277400Y-109488600D01*
X117279400Y-109476600D01*
X117281400Y-109469600D01*
X117283400Y-109463600D01*
X117292400Y-109445600D01*
X117295400Y-109440600D01*
X117299400Y-109435600D01*
X117303400Y-109429600D01*
X117307400Y-109424600D01*
X117312400Y-109420600D01*
X117316400Y-109415600D01*
X117321400Y-109411600D01*
X117327400Y-109407600D01*
X117332400Y-109403600D01*
X117338400Y-109400600D01*
X117343400Y-109397600D01*
X117355400Y-109391600D01*
X117361400Y-109389600D01*
X117368400Y-109387600D01*
X117380400Y-109385600D01*
X117387400Y-109384600D01*
X117393400Y-109383600D01*
X117607400Y-109383600D01*
X117613400Y-109384600D01*
G36*
X118898400Y-109339600D02*
G01*
X118905400Y-109340600D01*
X118917400Y-109342600D01*
X118924400Y-109344600D01*
X118930400Y-109346600D01*
X118948400Y-109355600D01*
X118953400Y-109358600D01*
X118958400Y-109362600D01*
X118964400Y-109366600D01*
X118969400Y-109370600D01*
X118973400Y-109375600D01*
X118978400Y-109379600D01*
X118982400Y-109384600D01*
X118986400Y-109390600D01*
X118990400Y-109395600D01*
X118993400Y-109401600D01*
X118996400Y-109406600D01*
X119002400Y-109418600D01*
X119004400Y-109424600D01*
X119006400Y-109431600D01*
X119008400Y-109443600D01*
X119009400Y-109450600D01*
X119010400Y-109456600D01*
X119010400Y-109670600D01*
X119009400Y-109676600D01*
X119008400Y-109683600D01*
X119006400Y-109695600D01*
X119004400Y-109702600D01*
X119002400Y-109708600D01*
X118996400Y-109720600D01*
X118993400Y-109725600D01*
X118990400Y-109731600D01*
X118986400Y-109736600D01*
X118982400Y-109742600D01*
X118978400Y-109747600D01*
X118973400Y-109751600D01*
X118969400Y-109756600D01*
X118964400Y-109760600D01*
X118958400Y-109764600D01*
X118953400Y-109768600D01*
X118948400Y-109771600D01*
X118930400Y-109780600D01*
X118924400Y-109782600D01*
X118917400Y-109784600D01*
X118905400Y-109786600D01*
X118898400Y-109787600D01*
X118892400Y-109788600D01*
X118438400Y-109788600D01*
X118432400Y-109787600D01*
X118425400Y-109786600D01*
X118413400Y-109784600D01*
X118406400Y-109782600D01*
X118400400Y-109780600D01*
X118382400Y-109771600D01*
X118377400Y-109768600D01*
X118372400Y-109764600D01*
X118366400Y-109760600D01*
X118361400Y-109756600D01*
X118357400Y-109751600D01*
X118352400Y-109747600D01*
X118348400Y-109742600D01*
X118344400Y-109736600D01*
X118340400Y-109731600D01*
X118337400Y-109725600D01*
X118334400Y-109720600D01*
X118328400Y-109708600D01*
X118326400Y-109702600D01*
X118324400Y-109695600D01*
X118322400Y-109683600D01*
X118321400Y-109676600D01*
X118320400Y-109670600D01*
X118320400Y-109456600D01*
X118321400Y-109450600D01*
X118322400Y-109443600D01*
X118324400Y-109431600D01*
X118326400Y-109424600D01*
X118328400Y-109418600D01*
X118334400Y-109406600D01*
X118337400Y-109401600D01*
X118340400Y-109395600D01*
X118344400Y-109390600D01*
X118348400Y-109384600D01*
X118352400Y-109379600D01*
X118357400Y-109375600D01*
X118361400Y-109370600D01*
X118366400Y-109366600D01*
X118372400Y-109362600D01*
X118377400Y-109358600D01*
X118382400Y-109355600D01*
X118400400Y-109346600D01*
X118406400Y-109344600D01*
X118413400Y-109342600D01*
X118425400Y-109340600D01*
X118432400Y-109339600D01*
X118438400Y-109338600D01*
X118892400Y-109338600D01*
X118898400Y-109339600D01*
G37*
X118898400Y-109339600D02*
X118905400Y-109340600D01*
X118917400Y-109342600D01*
X118924400Y-109344600D01*
X118930400Y-109346600D01*
X118948400Y-109355600D01*
X118953400Y-109358600D01*
X118958400Y-109362600D01*
X118964400Y-109366600D01*
X118969400Y-109370600D01*
X118973400Y-109375600D01*
X118978400Y-109379600D01*
X118982400Y-109384600D01*
X118986400Y-109390600D01*
X118990400Y-109395600D01*
X118993400Y-109401600D01*
X118996400Y-109406600D01*
X119002400Y-109418600D01*
X119004400Y-109424600D01*
X119006400Y-109431600D01*
X119008400Y-109443600D01*
X119009400Y-109450600D01*
X119010400Y-109456600D01*
X119010400Y-109670600D01*
X119009400Y-109676600D01*
X119008400Y-109683600D01*
X119006400Y-109695600D01*
X119004400Y-109702600D01*
X119002400Y-109708600D01*
X118996400Y-109720600D01*
X118993400Y-109725600D01*
X118990400Y-109731600D01*
X118986400Y-109736600D01*
X118982400Y-109742600D01*
X118978400Y-109747600D01*
X118973400Y-109751600D01*
X118969400Y-109756600D01*
X118964400Y-109760600D01*
X118958400Y-109764600D01*
X118953400Y-109768600D01*
X118948400Y-109771600D01*
X118930400Y-109780600D01*
X118924400Y-109782600D01*
X118917400Y-109784600D01*
X118905400Y-109786600D01*
X118898400Y-109787600D01*
X118892400Y-109788600D01*
X118438400Y-109788600D01*
X118432400Y-109787600D01*
X118425400Y-109786600D01*
X118413400Y-109784600D01*
X118406400Y-109782600D01*
X118400400Y-109780600D01*
X118382400Y-109771600D01*
X118377400Y-109768600D01*
X118372400Y-109764600D01*
X118366400Y-109760600D01*
X118361400Y-109756600D01*
X118357400Y-109751600D01*
X118352400Y-109747600D01*
X118348400Y-109742600D01*
X118344400Y-109736600D01*
X118340400Y-109731600D01*
X118337400Y-109725600D01*
X118334400Y-109720600D01*
X118328400Y-109708600D01*
X118326400Y-109702600D01*
X118324400Y-109695600D01*
X118322400Y-109683600D01*
X118321400Y-109676600D01*
X118320400Y-109670600D01*
X118320400Y-109456600D01*
X118321400Y-109450600D01*
X118322400Y-109443600D01*
X118324400Y-109431600D01*
X118326400Y-109424600D01*
X118328400Y-109418600D01*
X118334400Y-109406600D01*
X118337400Y-109401600D01*
X118340400Y-109395600D01*
X118344400Y-109390600D01*
X118348400Y-109384600D01*
X118352400Y-109379600D01*
X118357400Y-109375600D01*
X118361400Y-109370600D01*
X118366400Y-109366600D01*
X118372400Y-109362600D01*
X118377400Y-109358600D01*
X118382400Y-109355600D01*
X118400400Y-109346600D01*
X118406400Y-109344600D01*
X118413400Y-109342600D01*
X118425400Y-109340600D01*
X118432400Y-109339600D01*
X118438400Y-109338600D01*
X118892400Y-109338600D01*
X118898400Y-109339600D01*
G36*
X118898400Y-108839600D02*
G01*
X118905400Y-108840600D01*
X118917400Y-108842600D01*
X118924400Y-108844600D01*
X118930400Y-108846600D01*
X118948400Y-108855600D01*
X118953400Y-108858600D01*
X118958400Y-108862600D01*
X118964400Y-108866600D01*
X118969400Y-108870600D01*
X118973400Y-108875600D01*
X118978400Y-108879600D01*
X118982400Y-108884600D01*
X118986400Y-108890600D01*
X118990400Y-108895600D01*
X118993400Y-108901600D01*
X118996400Y-108906600D01*
X119002400Y-108918600D01*
X119004400Y-108924600D01*
X119006400Y-108931600D01*
X119008400Y-108943600D01*
X119009400Y-108950600D01*
X119010400Y-108956600D01*
X119010400Y-109170600D01*
X119009400Y-109176600D01*
X119008400Y-109183600D01*
X119006400Y-109195600D01*
X119004400Y-109202600D01*
X119002400Y-109208600D01*
X118996400Y-109220600D01*
X118993400Y-109225600D01*
X118990400Y-109231600D01*
X118986400Y-109236600D01*
X118982400Y-109242600D01*
X118978400Y-109247600D01*
X118973400Y-109251600D01*
X118969400Y-109256600D01*
X118964400Y-109260600D01*
X118958400Y-109264600D01*
X118953400Y-109268600D01*
X118948400Y-109271600D01*
X118930400Y-109280600D01*
X118924400Y-109282600D01*
X118917400Y-109284600D01*
X118905400Y-109286600D01*
X118898400Y-109287600D01*
X118892400Y-109288600D01*
X118438400Y-109288600D01*
X118432400Y-109287600D01*
X118425400Y-109286600D01*
X118413400Y-109284600D01*
X118406400Y-109282600D01*
X118400400Y-109280600D01*
X118382400Y-109271600D01*
X118377400Y-109268600D01*
X118372400Y-109264600D01*
X118366400Y-109260600D01*
X118361400Y-109256600D01*
X118357400Y-109251600D01*
X118352400Y-109247600D01*
X118348400Y-109242600D01*
X118344400Y-109236600D01*
X118340400Y-109231600D01*
X118337400Y-109225600D01*
X118334400Y-109220600D01*
X118328400Y-109208600D01*
X118326400Y-109202600D01*
X118324400Y-109195600D01*
X118322400Y-109183600D01*
X118321400Y-109176600D01*
X118320400Y-109170600D01*
X118320400Y-108956600D01*
X118321400Y-108950600D01*
X118322400Y-108943600D01*
X118324400Y-108931600D01*
X118326400Y-108924600D01*
X118328400Y-108918600D01*
X118334400Y-108906600D01*
X118337400Y-108901600D01*
X118340400Y-108895600D01*
X118344400Y-108890600D01*
X118348400Y-108884600D01*
X118352400Y-108879600D01*
X118357400Y-108875600D01*
X118361400Y-108870600D01*
X118366400Y-108866600D01*
X118372400Y-108862600D01*
X118377400Y-108858600D01*
X118382400Y-108855600D01*
X118400400Y-108846600D01*
X118406400Y-108844600D01*
X118413400Y-108842600D01*
X118425400Y-108840600D01*
X118432400Y-108839600D01*
X118438400Y-108838600D01*
X118892400Y-108838600D01*
X118898400Y-108839600D01*
G37*
X118898400Y-108839600D02*
X118905400Y-108840600D01*
X118917400Y-108842600D01*
X118924400Y-108844600D01*
X118930400Y-108846600D01*
X118948400Y-108855600D01*
X118953400Y-108858600D01*
X118958400Y-108862600D01*
X118964400Y-108866600D01*
X118969400Y-108870600D01*
X118973400Y-108875600D01*
X118978400Y-108879600D01*
X118982400Y-108884600D01*
X118986400Y-108890600D01*
X118990400Y-108895600D01*
X118993400Y-108901600D01*
X118996400Y-108906600D01*
X119002400Y-108918600D01*
X119004400Y-108924600D01*
X119006400Y-108931600D01*
X119008400Y-108943600D01*
X119009400Y-108950600D01*
X119010400Y-108956600D01*
X119010400Y-109170600D01*
X119009400Y-109176600D01*
X119008400Y-109183600D01*
X119006400Y-109195600D01*
X119004400Y-109202600D01*
X119002400Y-109208600D01*
X118996400Y-109220600D01*
X118993400Y-109225600D01*
X118990400Y-109231600D01*
X118986400Y-109236600D01*
X118982400Y-109242600D01*
X118978400Y-109247600D01*
X118973400Y-109251600D01*
X118969400Y-109256600D01*
X118964400Y-109260600D01*
X118958400Y-109264600D01*
X118953400Y-109268600D01*
X118948400Y-109271600D01*
X118930400Y-109280600D01*
X118924400Y-109282600D01*
X118917400Y-109284600D01*
X118905400Y-109286600D01*
X118898400Y-109287600D01*
X118892400Y-109288600D01*
X118438400Y-109288600D01*
X118432400Y-109287600D01*
X118425400Y-109286600D01*
X118413400Y-109284600D01*
X118406400Y-109282600D01*
X118400400Y-109280600D01*
X118382400Y-109271600D01*
X118377400Y-109268600D01*
X118372400Y-109264600D01*
X118366400Y-109260600D01*
X118361400Y-109256600D01*
X118357400Y-109251600D01*
X118352400Y-109247600D01*
X118348400Y-109242600D01*
X118344400Y-109236600D01*
X118340400Y-109231600D01*
X118337400Y-109225600D01*
X118334400Y-109220600D01*
X118328400Y-109208600D01*
X118326400Y-109202600D01*
X118324400Y-109195600D01*
X118322400Y-109183600D01*
X118321400Y-109176600D01*
X118320400Y-109170600D01*
X118320400Y-108956600D01*
X118321400Y-108950600D01*
X118322400Y-108943600D01*
X118324400Y-108931600D01*
X118326400Y-108924600D01*
X118328400Y-108918600D01*
X118334400Y-108906600D01*
X118337400Y-108901600D01*
X118340400Y-108895600D01*
X118344400Y-108890600D01*
X118348400Y-108884600D01*
X118352400Y-108879600D01*
X118357400Y-108875600D01*
X118361400Y-108870600D01*
X118366400Y-108866600D01*
X118372400Y-108862600D01*
X118377400Y-108858600D01*
X118382400Y-108855600D01*
X118400400Y-108846600D01*
X118406400Y-108844600D01*
X118413400Y-108842600D01*
X118425400Y-108840600D01*
X118432400Y-108839600D01*
X118438400Y-108838600D01*
X118892400Y-108838600D01*
X118898400Y-108839600D01*
G36*
X117113400Y-109384600D02*
G01*
X117120400Y-109385600D01*
X117132400Y-109387600D01*
X117139400Y-109389600D01*
X117145400Y-109391600D01*
X117157400Y-109397600D01*
X117162400Y-109400600D01*
X117168400Y-109403600D01*
X117173400Y-109407600D01*
X117179400Y-109411600D01*
X117184400Y-109415600D01*
X117188400Y-109420600D01*
X117193400Y-109424600D01*
X117197400Y-109429600D01*
X117201400Y-109435600D01*
X117205400Y-109440600D01*
X117208400Y-109445600D01*
X117217400Y-109463600D01*
X117219400Y-109469600D01*
X117221400Y-109476600D01*
X117223400Y-109488600D01*
X117224400Y-109495600D01*
X117225400Y-109501600D01*
X117225400Y-109955600D01*
X117224400Y-109961600D01*
X117223400Y-109968600D01*
X117221400Y-109980600D01*
X117219400Y-109987600D01*
X117217400Y-109993600D01*
X117208400Y-110011600D01*
X117205400Y-110016600D01*
X117201400Y-110021600D01*
X117197400Y-110027600D01*
X117193400Y-110032600D01*
X117188400Y-110036600D01*
X117184400Y-110041600D01*
X117179400Y-110045600D01*
X117173400Y-110049600D01*
X117168400Y-110053600D01*
X117162400Y-110056600D01*
X117157400Y-110059600D01*
X117145400Y-110065600D01*
X117139400Y-110067600D01*
X117132400Y-110069600D01*
X117120400Y-110071600D01*
X117113400Y-110072600D01*
X117107400Y-110073600D01*
X116893400Y-110073600D01*
X116887400Y-110072600D01*
X116880400Y-110071600D01*
X116868400Y-110069600D01*
X116861400Y-110067600D01*
X116855400Y-110065600D01*
X116837400Y-110056600D01*
X116832400Y-110053600D01*
X116827400Y-110049600D01*
X116821400Y-110045600D01*
X116816400Y-110041600D01*
X116812400Y-110036600D01*
X116807400Y-110032600D01*
X116803400Y-110027600D01*
X116799400Y-110021600D01*
X116795400Y-110016600D01*
X116792400Y-110011600D01*
X116783400Y-109993600D01*
X116781400Y-109987600D01*
X116779400Y-109980600D01*
X116777400Y-109968600D01*
X116776400Y-109961600D01*
X116775400Y-109955600D01*
X116775400Y-109501600D01*
X116776400Y-109495600D01*
X116777400Y-109488600D01*
X116779400Y-109476600D01*
X116781400Y-109469600D01*
X116783400Y-109463600D01*
X116792400Y-109445600D01*
X116795400Y-109440600D01*
X116799400Y-109435600D01*
X116803400Y-109429600D01*
X116807400Y-109424600D01*
X116812400Y-109420600D01*
X116816400Y-109415600D01*
X116821400Y-109411600D01*
X116827400Y-109407600D01*
X116832400Y-109403600D01*
X116838400Y-109400600D01*
X116843400Y-109397600D01*
X116855400Y-109391600D01*
X116861400Y-109389600D01*
X116868400Y-109387600D01*
X116880400Y-109385600D01*
X116887400Y-109384600D01*
X116893400Y-109383600D01*
X117107400Y-109383600D01*
X117113400Y-109384600D01*
G37*
X117113400Y-109384600D02*
X117120400Y-109385600D01*
X117132400Y-109387600D01*
X117139400Y-109389600D01*
X117145400Y-109391600D01*
X117157400Y-109397600D01*
X117162400Y-109400600D01*
X117168400Y-109403600D01*
X117173400Y-109407600D01*
X117179400Y-109411600D01*
X117184400Y-109415600D01*
X117188400Y-109420600D01*
X117193400Y-109424600D01*
X117197400Y-109429600D01*
X117201400Y-109435600D01*
X117205400Y-109440600D01*
X117208400Y-109445600D01*
X117217400Y-109463600D01*
X117219400Y-109469600D01*
X117221400Y-109476600D01*
X117223400Y-109488600D01*
X117224400Y-109495600D01*
X117225400Y-109501600D01*
X117225400Y-109955600D01*
X117224400Y-109961600D01*
X117223400Y-109968600D01*
X117221400Y-109980600D01*
X117219400Y-109987600D01*
X117217400Y-109993600D01*
X117208400Y-110011600D01*
X117205400Y-110016600D01*
X117201400Y-110021600D01*
X117197400Y-110027600D01*
X117193400Y-110032600D01*
X117188400Y-110036600D01*
X117184400Y-110041600D01*
X117179400Y-110045600D01*
X117173400Y-110049600D01*
X117168400Y-110053600D01*
X117162400Y-110056600D01*
X117157400Y-110059600D01*
X117145400Y-110065600D01*
X117139400Y-110067600D01*
X117132400Y-110069600D01*
X117120400Y-110071600D01*
X117113400Y-110072600D01*
X117107400Y-110073600D01*
X116893400Y-110073600D01*
X116887400Y-110072600D01*
X116880400Y-110071600D01*
X116868400Y-110069600D01*
X116861400Y-110067600D01*
X116855400Y-110065600D01*
X116837400Y-110056600D01*
X116832400Y-110053600D01*
X116827400Y-110049600D01*
X116821400Y-110045600D01*
X116816400Y-110041600D01*
X116812400Y-110036600D01*
X116807400Y-110032600D01*
X116803400Y-110027600D01*
X116799400Y-110021600D01*
X116795400Y-110016600D01*
X116792400Y-110011600D01*
X116783400Y-109993600D01*
X116781400Y-109987600D01*
X116779400Y-109980600D01*
X116777400Y-109968600D01*
X116776400Y-109961600D01*
X116775400Y-109955600D01*
X116775400Y-109501600D01*
X116776400Y-109495600D01*
X116777400Y-109488600D01*
X116779400Y-109476600D01*
X116781400Y-109469600D01*
X116783400Y-109463600D01*
X116792400Y-109445600D01*
X116795400Y-109440600D01*
X116799400Y-109435600D01*
X116803400Y-109429600D01*
X116807400Y-109424600D01*
X116812400Y-109420600D01*
X116816400Y-109415600D01*
X116821400Y-109411600D01*
X116827400Y-109407600D01*
X116832400Y-109403600D01*
X116838400Y-109400600D01*
X116843400Y-109397600D01*
X116855400Y-109391600D01*
X116861400Y-109389600D01*
X116868400Y-109387600D01*
X116880400Y-109385600D01*
X116887400Y-109384600D01*
X116893400Y-109383600D01*
X117107400Y-109383600D01*
X117113400Y-109384600D01*
G36*
X118898400Y-107839600D02*
G01*
X118905400Y-107840600D01*
X118917400Y-107842600D01*
X118924400Y-107844600D01*
X118930400Y-107846600D01*
X118948400Y-107855600D01*
X118953400Y-107858600D01*
X118958400Y-107862600D01*
X118964400Y-107866600D01*
X118969400Y-107870600D01*
X118973400Y-107875600D01*
X118978400Y-107879600D01*
X118982400Y-107884600D01*
X118986400Y-107890600D01*
X118990400Y-107895600D01*
X118993400Y-107901600D01*
X118996400Y-107906600D01*
X119002400Y-107918600D01*
X119004400Y-107924600D01*
X119006400Y-107931600D01*
X119008400Y-107943600D01*
X119009400Y-107950600D01*
X119010400Y-107956600D01*
X119010400Y-108170600D01*
X119009400Y-108176600D01*
X119008400Y-108183600D01*
X119006400Y-108195600D01*
X119004400Y-108202600D01*
X119002400Y-108208600D01*
X118996400Y-108220600D01*
X118993400Y-108225600D01*
X118990400Y-108231600D01*
X118986400Y-108236600D01*
X118982400Y-108242600D01*
X118978400Y-108247600D01*
X118973400Y-108251600D01*
X118969400Y-108256600D01*
X118964400Y-108260600D01*
X118958400Y-108264600D01*
X118953400Y-108268600D01*
X118948400Y-108271600D01*
X118930400Y-108280600D01*
X118924400Y-108282600D01*
X118917400Y-108284600D01*
X118905400Y-108286600D01*
X118898400Y-108287600D01*
X118892400Y-108288600D01*
X118438400Y-108288600D01*
X118432400Y-108287600D01*
X118425400Y-108286600D01*
X118413400Y-108284600D01*
X118406400Y-108282600D01*
X118400400Y-108280600D01*
X118382400Y-108271600D01*
X118377400Y-108268600D01*
X118372400Y-108264600D01*
X118366400Y-108260600D01*
X118361400Y-108256600D01*
X118357400Y-108251600D01*
X118352400Y-108247600D01*
X118348400Y-108242600D01*
X118344400Y-108236600D01*
X118340400Y-108231600D01*
X118337400Y-108225600D01*
X118334400Y-108220600D01*
X118328400Y-108208600D01*
X118326400Y-108202600D01*
X118324400Y-108195600D01*
X118322400Y-108183600D01*
X118321400Y-108176600D01*
X118320400Y-108170600D01*
X118320400Y-107956600D01*
X118321400Y-107950600D01*
X118322400Y-107943600D01*
X118324400Y-107931600D01*
X118326400Y-107924600D01*
X118328400Y-107918600D01*
X118334400Y-107906600D01*
X118337400Y-107901600D01*
X118340400Y-107895600D01*
X118344400Y-107890600D01*
X118348400Y-107884600D01*
X118352400Y-107879600D01*
X118357400Y-107875600D01*
X118361400Y-107870600D01*
X118366400Y-107866600D01*
X118372400Y-107862600D01*
X118377400Y-107858600D01*
X118382400Y-107855600D01*
X118400400Y-107846600D01*
X118406400Y-107844600D01*
X118413400Y-107842600D01*
X118425400Y-107840600D01*
X118432400Y-107839600D01*
X118438400Y-107838600D01*
X118892400Y-107838600D01*
X118898400Y-107839600D01*
G37*
X118898400Y-107839600D02*
X118905400Y-107840600D01*
X118917400Y-107842600D01*
X118924400Y-107844600D01*
X118930400Y-107846600D01*
X118948400Y-107855600D01*
X118953400Y-107858600D01*
X118958400Y-107862600D01*
X118964400Y-107866600D01*
X118969400Y-107870600D01*
X118973400Y-107875600D01*
X118978400Y-107879600D01*
X118982400Y-107884600D01*
X118986400Y-107890600D01*
X118990400Y-107895600D01*
X118993400Y-107901600D01*
X118996400Y-107906600D01*
X119002400Y-107918600D01*
X119004400Y-107924600D01*
X119006400Y-107931600D01*
X119008400Y-107943600D01*
X119009400Y-107950600D01*
X119010400Y-107956600D01*
X119010400Y-108170600D01*
X119009400Y-108176600D01*
X119008400Y-108183600D01*
X119006400Y-108195600D01*
X119004400Y-108202600D01*
X119002400Y-108208600D01*
X118996400Y-108220600D01*
X118993400Y-108225600D01*
X118990400Y-108231600D01*
X118986400Y-108236600D01*
X118982400Y-108242600D01*
X118978400Y-108247600D01*
X118973400Y-108251600D01*
X118969400Y-108256600D01*
X118964400Y-108260600D01*
X118958400Y-108264600D01*
X118953400Y-108268600D01*
X118948400Y-108271600D01*
X118930400Y-108280600D01*
X118924400Y-108282600D01*
X118917400Y-108284600D01*
X118905400Y-108286600D01*
X118898400Y-108287600D01*
X118892400Y-108288600D01*
X118438400Y-108288600D01*
X118432400Y-108287600D01*
X118425400Y-108286600D01*
X118413400Y-108284600D01*
X118406400Y-108282600D01*
X118400400Y-108280600D01*
X118382400Y-108271600D01*
X118377400Y-108268600D01*
X118372400Y-108264600D01*
X118366400Y-108260600D01*
X118361400Y-108256600D01*
X118357400Y-108251600D01*
X118352400Y-108247600D01*
X118348400Y-108242600D01*
X118344400Y-108236600D01*
X118340400Y-108231600D01*
X118337400Y-108225600D01*
X118334400Y-108220600D01*
X118328400Y-108208600D01*
X118326400Y-108202600D01*
X118324400Y-108195600D01*
X118322400Y-108183600D01*
X118321400Y-108176600D01*
X118320400Y-108170600D01*
X118320400Y-107956600D01*
X118321400Y-107950600D01*
X118322400Y-107943600D01*
X118324400Y-107931600D01*
X118326400Y-107924600D01*
X118328400Y-107918600D01*
X118334400Y-107906600D01*
X118337400Y-107901600D01*
X118340400Y-107895600D01*
X118344400Y-107890600D01*
X118348400Y-107884600D01*
X118352400Y-107879600D01*
X118357400Y-107875600D01*
X118361400Y-107870600D01*
X118366400Y-107866600D01*
X118372400Y-107862600D01*
X118377400Y-107858600D01*
X118382400Y-107855600D01*
X118400400Y-107846600D01*
X118406400Y-107844600D01*
X118413400Y-107842600D01*
X118425400Y-107840600D01*
X118432400Y-107839600D01*
X118438400Y-107838600D01*
X118892400Y-107838600D01*
X118898400Y-107839600D01*
G36*
X116568400Y-107839600D02*
G01*
X116575400Y-107840600D01*
X116587400Y-107842600D01*
X116594400Y-107844600D01*
X116600400Y-107846600D01*
X116618400Y-107855600D01*
X116623400Y-107858600D01*
X116628400Y-107862600D01*
X116634400Y-107866600D01*
X116639400Y-107870600D01*
X116643400Y-107875600D01*
X116648400Y-107879600D01*
X116652400Y-107884600D01*
X116656400Y-107890600D01*
X116660400Y-107895600D01*
X116663400Y-107901600D01*
X116666400Y-107906600D01*
X116672400Y-107918600D01*
X116674400Y-107924600D01*
X116676400Y-107931600D01*
X116678400Y-107943600D01*
X116679400Y-107950600D01*
X116680400Y-107956600D01*
X116680400Y-108170600D01*
X116679400Y-108176600D01*
X116678400Y-108183600D01*
X116676400Y-108195600D01*
X116674400Y-108202600D01*
X116672400Y-108208600D01*
X116666400Y-108220600D01*
X116663400Y-108225600D01*
X116660400Y-108231600D01*
X116656400Y-108236600D01*
X116652400Y-108242600D01*
X116648400Y-108247600D01*
X116643400Y-108251600D01*
X116639400Y-108256600D01*
X116634400Y-108260600D01*
X116628400Y-108264600D01*
X116623400Y-108268600D01*
X116618400Y-108271600D01*
X116600400Y-108280600D01*
X116594400Y-108282600D01*
X116587400Y-108284600D01*
X116575400Y-108286600D01*
X116568400Y-108287600D01*
X116562400Y-108288600D01*
X116108400Y-108288600D01*
X116102400Y-108287600D01*
X116095400Y-108286600D01*
X116083400Y-108284600D01*
X116076400Y-108282600D01*
X116070400Y-108280600D01*
X116052400Y-108271600D01*
X116047400Y-108268600D01*
X116042400Y-108264600D01*
X116036400Y-108260600D01*
X116031400Y-108256600D01*
X116027400Y-108251600D01*
X116022400Y-108247600D01*
X116018400Y-108242600D01*
X116014400Y-108236600D01*
X116010400Y-108231600D01*
X116007400Y-108225600D01*
X116004400Y-108220600D01*
X115998400Y-108208600D01*
X115996400Y-108202600D01*
X115994400Y-108195600D01*
X115992400Y-108183600D01*
X115991400Y-108176600D01*
X115990400Y-108170600D01*
X115990400Y-107956600D01*
X115991400Y-107950600D01*
X115992400Y-107943600D01*
X115994400Y-107931600D01*
X115996400Y-107924600D01*
X115998400Y-107918600D01*
X116004400Y-107906600D01*
X116007400Y-107901600D01*
X116010400Y-107895600D01*
X116014400Y-107890600D01*
X116018400Y-107884600D01*
X116022400Y-107879600D01*
X116027400Y-107875600D01*
X116031400Y-107870600D01*
X116036400Y-107866600D01*
X116042400Y-107862600D01*
X116047400Y-107858600D01*
X116052400Y-107855600D01*
X116070400Y-107846600D01*
X116076400Y-107844600D01*
X116083400Y-107842600D01*
X116095400Y-107840600D01*
X116102400Y-107839600D01*
X116108400Y-107838600D01*
X116562400Y-107838600D01*
X116568400Y-107839600D01*
G37*
X116568400Y-107839600D02*
X116575400Y-107840600D01*
X116587400Y-107842600D01*
X116594400Y-107844600D01*
X116600400Y-107846600D01*
X116618400Y-107855600D01*
X116623400Y-107858600D01*
X116628400Y-107862600D01*
X116634400Y-107866600D01*
X116639400Y-107870600D01*
X116643400Y-107875600D01*
X116648400Y-107879600D01*
X116652400Y-107884600D01*
X116656400Y-107890600D01*
X116660400Y-107895600D01*
X116663400Y-107901600D01*
X116666400Y-107906600D01*
X116672400Y-107918600D01*
X116674400Y-107924600D01*
X116676400Y-107931600D01*
X116678400Y-107943600D01*
X116679400Y-107950600D01*
X116680400Y-107956600D01*
X116680400Y-108170600D01*
X116679400Y-108176600D01*
X116678400Y-108183600D01*
X116676400Y-108195600D01*
X116674400Y-108202600D01*
X116672400Y-108208600D01*
X116666400Y-108220600D01*
X116663400Y-108225600D01*
X116660400Y-108231600D01*
X116656400Y-108236600D01*
X116652400Y-108242600D01*
X116648400Y-108247600D01*
X116643400Y-108251600D01*
X116639400Y-108256600D01*
X116634400Y-108260600D01*
X116628400Y-108264600D01*
X116623400Y-108268600D01*
X116618400Y-108271600D01*
X116600400Y-108280600D01*
X116594400Y-108282600D01*
X116587400Y-108284600D01*
X116575400Y-108286600D01*
X116568400Y-108287600D01*
X116562400Y-108288600D01*
X116108400Y-108288600D01*
X116102400Y-108287600D01*
X116095400Y-108286600D01*
X116083400Y-108284600D01*
X116076400Y-108282600D01*
X116070400Y-108280600D01*
X116052400Y-108271600D01*
X116047400Y-108268600D01*
X116042400Y-108264600D01*
X116036400Y-108260600D01*
X116031400Y-108256600D01*
X116027400Y-108251600D01*
X116022400Y-108247600D01*
X116018400Y-108242600D01*
X116014400Y-108236600D01*
X116010400Y-108231600D01*
X116007400Y-108225600D01*
X116004400Y-108220600D01*
X115998400Y-108208600D01*
X115996400Y-108202600D01*
X115994400Y-108195600D01*
X115992400Y-108183600D01*
X115991400Y-108176600D01*
X115990400Y-108170600D01*
X115990400Y-107956600D01*
X115991400Y-107950600D01*
X115992400Y-107943600D01*
X115994400Y-107931600D01*
X115996400Y-107924600D01*
X115998400Y-107918600D01*
X116004400Y-107906600D01*
X116007400Y-107901600D01*
X116010400Y-107895600D01*
X116014400Y-107890600D01*
X116018400Y-107884600D01*
X116022400Y-107879600D01*
X116027400Y-107875600D01*
X116031400Y-107870600D01*
X116036400Y-107866600D01*
X116042400Y-107862600D01*
X116047400Y-107858600D01*
X116052400Y-107855600D01*
X116070400Y-107846600D01*
X116076400Y-107844600D01*
X116083400Y-107842600D01*
X116095400Y-107840600D01*
X116102400Y-107839600D01*
X116108400Y-107838600D01*
X116562400Y-107838600D01*
X116568400Y-107839600D01*
G36*
X116568400Y-108339600D02*
G01*
X116575400Y-108340600D01*
X116587400Y-108342600D01*
X116594400Y-108344600D01*
X116600400Y-108346600D01*
X116618400Y-108355600D01*
X116623400Y-108358600D01*
X116628400Y-108362600D01*
X116634400Y-108366600D01*
X116639400Y-108370600D01*
X116643400Y-108375600D01*
X116648400Y-108379600D01*
X116652400Y-108384600D01*
X116656400Y-108390600D01*
X116660400Y-108395600D01*
X116663400Y-108401600D01*
X116666400Y-108406600D01*
X116672400Y-108418600D01*
X116674400Y-108424600D01*
X116676400Y-108431600D01*
X116678400Y-108443600D01*
X116679400Y-108450600D01*
X116680400Y-108456600D01*
X116680400Y-108670600D01*
X116679400Y-108676600D01*
X116678400Y-108683600D01*
X116676400Y-108695600D01*
X116674400Y-108702600D01*
X116672400Y-108708600D01*
X116666400Y-108720600D01*
X116663400Y-108725600D01*
X116660400Y-108731600D01*
X116656400Y-108736600D01*
X116652400Y-108742600D01*
X116648400Y-108747600D01*
X116643400Y-108751600D01*
X116639400Y-108756600D01*
X116634400Y-108760600D01*
X116628400Y-108764600D01*
X116623400Y-108768600D01*
X116618400Y-108771600D01*
X116600400Y-108780600D01*
X116594400Y-108782600D01*
X116587400Y-108784600D01*
X116575400Y-108786600D01*
X116568400Y-108787600D01*
X116562400Y-108788600D01*
X116108400Y-108788600D01*
X116102400Y-108787600D01*
X116095400Y-108786600D01*
X116083400Y-108784600D01*
X116076400Y-108782600D01*
X116070400Y-108780600D01*
X116052400Y-108771600D01*
X116047400Y-108768600D01*
X116042400Y-108764600D01*
X116036400Y-108760600D01*
X116031400Y-108756600D01*
X116027400Y-108751600D01*
X116022400Y-108747600D01*
X116018400Y-108742600D01*
X116014400Y-108736600D01*
X116010400Y-108731600D01*
X116007400Y-108725600D01*
X116004400Y-108720600D01*
X115998400Y-108708600D01*
X115996400Y-108702600D01*
X115994400Y-108695600D01*
X115992400Y-108683600D01*
X115991400Y-108676600D01*
X115990400Y-108670600D01*
X115990400Y-108456600D01*
X115991400Y-108450600D01*
X115992400Y-108443600D01*
X115994400Y-108431600D01*
X115996400Y-108424600D01*
X115998400Y-108418600D01*
X116004400Y-108406600D01*
X116007400Y-108401600D01*
X116010400Y-108395600D01*
X116014400Y-108390600D01*
X116018400Y-108384600D01*
X116022400Y-108379600D01*
X116027400Y-108375600D01*
X116031400Y-108370600D01*
X116036400Y-108366600D01*
X116042400Y-108362600D01*
X116047400Y-108358600D01*
X116052400Y-108355600D01*
X116070400Y-108346600D01*
X116076400Y-108344600D01*
X116083400Y-108342600D01*
X116095400Y-108340600D01*
X116102400Y-108339600D01*
X116108400Y-108338600D01*
X116562400Y-108338600D01*
X116568400Y-108339600D01*
G37*
X116568400Y-108339600D02*
X116575400Y-108340600D01*
X116587400Y-108342600D01*
X116594400Y-108344600D01*
X116600400Y-108346600D01*
X116618400Y-108355600D01*
X116623400Y-108358600D01*
X116628400Y-108362600D01*
X116634400Y-108366600D01*
X116639400Y-108370600D01*
X116643400Y-108375600D01*
X116648400Y-108379600D01*
X116652400Y-108384600D01*
X116656400Y-108390600D01*
X116660400Y-108395600D01*
X116663400Y-108401600D01*
X116666400Y-108406600D01*
X116672400Y-108418600D01*
X116674400Y-108424600D01*
X116676400Y-108431600D01*
X116678400Y-108443600D01*
X116679400Y-108450600D01*
X116680400Y-108456600D01*
X116680400Y-108670600D01*
X116679400Y-108676600D01*
X116678400Y-108683600D01*
X116676400Y-108695600D01*
X116674400Y-108702600D01*
X116672400Y-108708600D01*
X116666400Y-108720600D01*
X116663400Y-108725600D01*
X116660400Y-108731600D01*
X116656400Y-108736600D01*
X116652400Y-108742600D01*
X116648400Y-108747600D01*
X116643400Y-108751600D01*
X116639400Y-108756600D01*
X116634400Y-108760600D01*
X116628400Y-108764600D01*
X116623400Y-108768600D01*
X116618400Y-108771600D01*
X116600400Y-108780600D01*
X116594400Y-108782600D01*
X116587400Y-108784600D01*
X116575400Y-108786600D01*
X116568400Y-108787600D01*
X116562400Y-108788600D01*
X116108400Y-108788600D01*
X116102400Y-108787600D01*
X116095400Y-108786600D01*
X116083400Y-108784600D01*
X116076400Y-108782600D01*
X116070400Y-108780600D01*
X116052400Y-108771600D01*
X116047400Y-108768600D01*
X116042400Y-108764600D01*
X116036400Y-108760600D01*
X116031400Y-108756600D01*
X116027400Y-108751600D01*
X116022400Y-108747600D01*
X116018400Y-108742600D01*
X116014400Y-108736600D01*
X116010400Y-108731600D01*
X116007400Y-108725600D01*
X116004400Y-108720600D01*
X115998400Y-108708600D01*
X115996400Y-108702600D01*
X115994400Y-108695600D01*
X115992400Y-108683600D01*
X115991400Y-108676600D01*
X115990400Y-108670600D01*
X115990400Y-108456600D01*
X115991400Y-108450600D01*
X115992400Y-108443600D01*
X115994400Y-108431600D01*
X115996400Y-108424600D01*
X115998400Y-108418600D01*
X116004400Y-108406600D01*
X116007400Y-108401600D01*
X116010400Y-108395600D01*
X116014400Y-108390600D01*
X116018400Y-108384600D01*
X116022400Y-108379600D01*
X116027400Y-108375600D01*
X116031400Y-108370600D01*
X116036400Y-108366600D01*
X116042400Y-108362600D01*
X116047400Y-108358600D01*
X116052400Y-108355600D01*
X116070400Y-108346600D01*
X116076400Y-108344600D01*
X116083400Y-108342600D01*
X116095400Y-108340600D01*
X116102400Y-108339600D01*
X116108400Y-108338600D01*
X116562400Y-108338600D01*
X116568400Y-108339600D01*
G36*
X116568400Y-109339600D02*
G01*
X116575400Y-109340600D01*
X116587400Y-109342600D01*
X116594400Y-109344600D01*
X116600400Y-109346600D01*
X116618400Y-109355600D01*
X116623400Y-109358600D01*
X116628400Y-109362600D01*
X116634400Y-109366600D01*
X116639400Y-109370600D01*
X116643400Y-109375600D01*
X116648400Y-109379600D01*
X116652400Y-109384600D01*
X116656400Y-109390600D01*
X116660400Y-109395600D01*
X116663400Y-109401600D01*
X116666400Y-109406600D01*
X116672400Y-109418600D01*
X116674400Y-109424600D01*
X116676400Y-109431600D01*
X116678400Y-109443600D01*
X116679400Y-109450600D01*
X116680400Y-109456600D01*
X116680400Y-109670600D01*
X116679400Y-109676600D01*
X116678400Y-109683600D01*
X116676400Y-109695600D01*
X116674400Y-109702600D01*
X116672400Y-109708600D01*
X116666400Y-109720600D01*
X116663400Y-109725600D01*
X116660400Y-109731600D01*
X116656400Y-109736600D01*
X116652400Y-109742600D01*
X116648400Y-109747600D01*
X116643400Y-109751600D01*
X116639400Y-109756600D01*
X116634400Y-109760600D01*
X116628400Y-109764600D01*
X116623400Y-109768600D01*
X116618400Y-109771600D01*
X116600400Y-109780600D01*
X116594400Y-109782600D01*
X116587400Y-109784600D01*
X116575400Y-109786600D01*
X116568400Y-109787600D01*
X116562400Y-109788600D01*
X116108400Y-109788600D01*
X116102400Y-109787600D01*
X116095400Y-109786600D01*
X116083400Y-109784600D01*
X116076400Y-109782600D01*
X116070400Y-109780600D01*
X116052400Y-109771600D01*
X116047400Y-109768600D01*
X116042400Y-109764600D01*
X116036400Y-109760600D01*
X116031400Y-109756600D01*
X116027400Y-109751600D01*
X116022400Y-109747600D01*
X116018400Y-109742600D01*
X116014400Y-109736600D01*
X116010400Y-109731600D01*
X116007400Y-109725600D01*
X116004400Y-109720600D01*
X115998400Y-109708600D01*
X115996400Y-109702600D01*
X115994400Y-109695600D01*
X115992400Y-109683600D01*
X115991400Y-109676600D01*
X115990400Y-109670600D01*
X115990400Y-109456600D01*
X115991400Y-109450600D01*
X115992400Y-109443600D01*
X115994400Y-109431600D01*
X115996400Y-109424600D01*
X115998400Y-109418600D01*
X116004400Y-109406600D01*
X116007400Y-109401600D01*
X116010400Y-109395600D01*
X116014400Y-109390600D01*
X116018400Y-109384600D01*
X116022400Y-109379600D01*
X116027400Y-109375600D01*
X116031400Y-109370600D01*
X116036400Y-109366600D01*
X116042400Y-109362600D01*
X116047400Y-109358600D01*
X116052400Y-109355600D01*
X116070400Y-109346600D01*
X116076400Y-109344600D01*
X116083400Y-109342600D01*
X116095400Y-109340600D01*
X116102400Y-109339600D01*
X116108400Y-109338600D01*
X116562400Y-109338600D01*
X116568400Y-109339600D01*
G37*
X116568400Y-109339600D02*
X116575400Y-109340600D01*
X116587400Y-109342600D01*
X116594400Y-109344600D01*
X116600400Y-109346600D01*
X116618400Y-109355600D01*
X116623400Y-109358600D01*
X116628400Y-109362600D01*
X116634400Y-109366600D01*
X116639400Y-109370600D01*
X116643400Y-109375600D01*
X116648400Y-109379600D01*
X116652400Y-109384600D01*
X116656400Y-109390600D01*
X116660400Y-109395600D01*
X116663400Y-109401600D01*
X116666400Y-109406600D01*
X116672400Y-109418600D01*
X116674400Y-109424600D01*
X116676400Y-109431600D01*
X116678400Y-109443600D01*
X116679400Y-109450600D01*
X116680400Y-109456600D01*
X116680400Y-109670600D01*
X116679400Y-109676600D01*
X116678400Y-109683600D01*
X116676400Y-109695600D01*
X116674400Y-109702600D01*
X116672400Y-109708600D01*
X116666400Y-109720600D01*
X116663400Y-109725600D01*
X116660400Y-109731600D01*
X116656400Y-109736600D01*
X116652400Y-109742600D01*
X116648400Y-109747600D01*
X116643400Y-109751600D01*
X116639400Y-109756600D01*
X116634400Y-109760600D01*
X116628400Y-109764600D01*
X116623400Y-109768600D01*
X116618400Y-109771600D01*
X116600400Y-109780600D01*
X116594400Y-109782600D01*
X116587400Y-109784600D01*
X116575400Y-109786600D01*
X116568400Y-109787600D01*
X116562400Y-109788600D01*
X116108400Y-109788600D01*
X116102400Y-109787600D01*
X116095400Y-109786600D01*
X116083400Y-109784600D01*
X116076400Y-109782600D01*
X116070400Y-109780600D01*
X116052400Y-109771600D01*
X116047400Y-109768600D01*
X116042400Y-109764600D01*
X116036400Y-109760600D01*
X116031400Y-109756600D01*
X116027400Y-109751600D01*
X116022400Y-109747600D01*
X116018400Y-109742600D01*
X116014400Y-109736600D01*
X116010400Y-109731600D01*
X116007400Y-109725600D01*
X116004400Y-109720600D01*
X115998400Y-109708600D01*
X115996400Y-109702600D01*
X115994400Y-109695600D01*
X115992400Y-109683600D01*
X115991400Y-109676600D01*
X115990400Y-109670600D01*
X115990400Y-109456600D01*
X115991400Y-109450600D01*
X115992400Y-109443600D01*
X115994400Y-109431600D01*
X115996400Y-109424600D01*
X115998400Y-109418600D01*
X116004400Y-109406600D01*
X116007400Y-109401600D01*
X116010400Y-109395600D01*
X116014400Y-109390600D01*
X116018400Y-109384600D01*
X116022400Y-109379600D01*
X116027400Y-109375600D01*
X116031400Y-109370600D01*
X116036400Y-109366600D01*
X116042400Y-109362600D01*
X116047400Y-109358600D01*
X116052400Y-109355600D01*
X116070400Y-109346600D01*
X116076400Y-109344600D01*
X116083400Y-109342600D01*
X116095400Y-109340600D01*
X116102400Y-109339600D01*
X116108400Y-109338600D01*
X116562400Y-109338600D01*
X116568400Y-109339600D01*
G36*
X116568400Y-108839600D02*
G01*
X116575400Y-108840600D01*
X116587400Y-108842600D01*
X116594400Y-108844600D01*
X116600400Y-108846600D01*
X116618400Y-108855600D01*
X116623400Y-108858600D01*
X116628400Y-108862600D01*
X116634400Y-108866600D01*
X116639400Y-108870600D01*
X116643400Y-108875600D01*
X116648400Y-108879600D01*
X116652400Y-108884600D01*
X116656400Y-108890600D01*
X116660400Y-108895600D01*
X116663400Y-108901600D01*
X116666400Y-108906600D01*
X116672400Y-108918600D01*
X116674400Y-108924600D01*
X116676400Y-108931600D01*
X116678400Y-108943600D01*
X116679400Y-108950600D01*
X116680400Y-108956600D01*
X116680400Y-109170600D01*
X116679400Y-109176600D01*
X116678400Y-109183600D01*
X116676400Y-109195600D01*
X116674400Y-109202600D01*
X116672400Y-109208600D01*
X116666400Y-109220600D01*
X116663400Y-109225600D01*
X116660400Y-109231600D01*
X116656400Y-109236600D01*
X116652400Y-109242600D01*
X116648400Y-109247600D01*
X116643400Y-109251600D01*
X116639400Y-109256600D01*
X116634400Y-109260600D01*
X116628400Y-109264600D01*
X116623400Y-109268600D01*
X116618400Y-109271600D01*
X116600400Y-109280600D01*
X116594400Y-109282600D01*
X116587400Y-109284600D01*
X116575400Y-109286600D01*
X116568400Y-109287600D01*
X116562400Y-109288600D01*
X116108400Y-109288600D01*
X116102400Y-109287600D01*
X116095400Y-109286600D01*
X116083400Y-109284600D01*
X116076400Y-109282600D01*
X116070400Y-109280600D01*
X116052400Y-109271600D01*
X116047400Y-109268600D01*
X116042400Y-109264600D01*
X116036400Y-109260600D01*
X116031400Y-109256600D01*
X116027400Y-109251600D01*
X116022400Y-109247600D01*
X116018400Y-109242600D01*
X116014400Y-109236600D01*
X116010400Y-109231600D01*
X116007400Y-109225600D01*
X116004400Y-109220600D01*
X115998400Y-109208600D01*
X115996400Y-109202600D01*
X115994400Y-109195600D01*
X115992400Y-109183600D01*
X115991400Y-109176600D01*
X115990400Y-109170600D01*
X115990400Y-108956600D01*
X115991400Y-108950600D01*
X115992400Y-108943600D01*
X115994400Y-108931600D01*
X115996400Y-108924600D01*
X115998400Y-108918600D01*
X116004400Y-108906600D01*
X116007400Y-108901600D01*
X116010400Y-108895600D01*
X116014400Y-108890600D01*
X116018400Y-108884600D01*
X116022400Y-108879600D01*
X116027400Y-108875600D01*
X116031400Y-108870600D01*
X116036400Y-108866600D01*
X116042400Y-108862600D01*
X116047400Y-108858600D01*
X116052400Y-108855600D01*
X116070400Y-108846600D01*
X116076400Y-108844600D01*
X116083400Y-108842600D01*
X116095400Y-108840600D01*
X116102400Y-108839600D01*
X116108400Y-108838600D01*
X116562400Y-108838600D01*
X116568400Y-108839600D01*
G37*
X116568400Y-108839600D02*
X116575400Y-108840600D01*
X116587400Y-108842600D01*
X116594400Y-108844600D01*
X116600400Y-108846600D01*
X116618400Y-108855600D01*
X116623400Y-108858600D01*
X116628400Y-108862600D01*
X116634400Y-108866600D01*
X116639400Y-108870600D01*
X116643400Y-108875600D01*
X116648400Y-108879600D01*
X116652400Y-108884600D01*
X116656400Y-108890600D01*
X116660400Y-108895600D01*
X116663400Y-108901600D01*
X116666400Y-108906600D01*
X116672400Y-108918600D01*
X116674400Y-108924600D01*
X116676400Y-108931600D01*
X116678400Y-108943600D01*
X116679400Y-108950600D01*
X116680400Y-108956600D01*
X116680400Y-109170600D01*
X116679400Y-109176600D01*
X116678400Y-109183600D01*
X116676400Y-109195600D01*
X116674400Y-109202600D01*
X116672400Y-109208600D01*
X116666400Y-109220600D01*
X116663400Y-109225600D01*
X116660400Y-109231600D01*
X116656400Y-109236600D01*
X116652400Y-109242600D01*
X116648400Y-109247600D01*
X116643400Y-109251600D01*
X116639400Y-109256600D01*
X116634400Y-109260600D01*
X116628400Y-109264600D01*
X116623400Y-109268600D01*
X116618400Y-109271600D01*
X116600400Y-109280600D01*
X116594400Y-109282600D01*
X116587400Y-109284600D01*
X116575400Y-109286600D01*
X116568400Y-109287600D01*
X116562400Y-109288600D01*
X116108400Y-109288600D01*
X116102400Y-109287600D01*
X116095400Y-109286600D01*
X116083400Y-109284600D01*
X116076400Y-109282600D01*
X116070400Y-109280600D01*
X116052400Y-109271600D01*
X116047400Y-109268600D01*
X116042400Y-109264600D01*
X116036400Y-109260600D01*
X116031400Y-109256600D01*
X116027400Y-109251600D01*
X116022400Y-109247600D01*
X116018400Y-109242600D01*
X116014400Y-109236600D01*
X116010400Y-109231600D01*
X116007400Y-109225600D01*
X116004400Y-109220600D01*
X115998400Y-109208600D01*
X115996400Y-109202600D01*
X115994400Y-109195600D01*
X115992400Y-109183600D01*
X115991400Y-109176600D01*
X115990400Y-109170600D01*
X115990400Y-108956600D01*
X115991400Y-108950600D01*
X115992400Y-108943600D01*
X115994400Y-108931600D01*
X115996400Y-108924600D01*
X115998400Y-108918600D01*
X116004400Y-108906600D01*
X116007400Y-108901600D01*
X116010400Y-108895600D01*
X116014400Y-108890600D01*
X116018400Y-108884600D01*
X116022400Y-108879600D01*
X116027400Y-108875600D01*
X116031400Y-108870600D01*
X116036400Y-108866600D01*
X116042400Y-108862600D01*
X116047400Y-108858600D01*
X116052400Y-108855600D01*
X116070400Y-108846600D01*
X116076400Y-108844600D01*
X116083400Y-108842600D01*
X116095400Y-108840600D01*
X116102400Y-108839600D01*
X116108400Y-108838600D01*
X116562400Y-108838600D01*
X116568400Y-108839600D01*
G36*
X117613400Y-107554600D02*
G01*
X117620400Y-107555600D01*
X117632400Y-107557600D01*
X117639400Y-107559600D01*
X117645400Y-107561600D01*
X117663400Y-107570600D01*
X117668400Y-107573600D01*
X117673400Y-107577600D01*
X117679400Y-107581600D01*
X117684400Y-107585600D01*
X117688400Y-107590600D01*
X117693400Y-107594600D01*
X117697400Y-107599600D01*
X117701400Y-107605600D01*
X117705400Y-107610600D01*
X117708400Y-107615600D01*
X117717400Y-107633600D01*
X117719400Y-107639600D01*
X117721400Y-107646600D01*
X117723400Y-107658600D01*
X117724400Y-107665600D01*
X117725400Y-107671600D01*
X117725400Y-108125600D01*
X117724400Y-108131600D01*
X117723400Y-108138600D01*
X117721400Y-108150600D01*
X117719400Y-108157600D01*
X117717400Y-108163600D01*
X117708400Y-108181600D01*
X117705400Y-108186600D01*
X117701400Y-108191600D01*
X117697400Y-108197600D01*
X117693400Y-108202600D01*
X117688400Y-108206600D01*
X117684400Y-108211600D01*
X117679400Y-108215600D01*
X117673400Y-108219600D01*
X117668400Y-108223600D01*
X117663400Y-108226600D01*
X117645400Y-108235600D01*
X117639400Y-108237600D01*
X117632400Y-108239600D01*
X117620400Y-108241600D01*
X117613400Y-108242600D01*
X117607400Y-108243600D01*
X117393400Y-108243600D01*
X117387400Y-108242600D01*
X117380400Y-108241600D01*
X117368400Y-108239600D01*
X117361400Y-108237600D01*
X117355400Y-108235600D01*
X117337400Y-108226600D01*
X117332400Y-108223600D01*
X117327400Y-108219600D01*
X117321400Y-108215600D01*
X117316400Y-108211600D01*
X117312400Y-108206600D01*
X117307400Y-108202600D01*
X117303400Y-108197600D01*
X117299400Y-108191600D01*
X117295400Y-108186600D01*
X117292400Y-108181600D01*
X117283400Y-108163600D01*
X117281400Y-108157600D01*
X117279400Y-108150600D01*
X117277400Y-108138600D01*
X117276400Y-108131600D01*
X117275400Y-108125600D01*
X117275400Y-107671600D01*
X117276400Y-107665600D01*
X117277400Y-107658600D01*
X117279400Y-107646600D01*
X117281400Y-107639600D01*
X117283400Y-107633600D01*
X117292400Y-107615600D01*
X117295400Y-107610600D01*
X117299400Y-107605600D01*
X117303400Y-107599600D01*
X117307400Y-107594600D01*
X117312400Y-107590600D01*
X117316400Y-107585600D01*
X117321400Y-107581600D01*
X117327400Y-107577600D01*
X117332400Y-107573600D01*
X117338400Y-107570600D01*
X117343400Y-107567600D01*
X117355400Y-107561600D01*
X117361400Y-107559600D01*
X117368400Y-107557600D01*
X117380400Y-107555600D01*
X117387400Y-107554600D01*
X117393400Y-107553600D01*
X117607400Y-107553600D01*
X117613400Y-107554600D01*
G37*
X117613400Y-107554600D02*
X117620400Y-107555600D01*
X117632400Y-107557600D01*
X117639400Y-107559600D01*
X117645400Y-107561600D01*
X117663400Y-107570600D01*
X117668400Y-107573600D01*
X117673400Y-107577600D01*
X117679400Y-107581600D01*
X117684400Y-107585600D01*
X117688400Y-107590600D01*
X117693400Y-107594600D01*
X117697400Y-107599600D01*
X117701400Y-107605600D01*
X117705400Y-107610600D01*
X117708400Y-107615600D01*
X117717400Y-107633600D01*
X117719400Y-107639600D01*
X117721400Y-107646600D01*
X117723400Y-107658600D01*
X117724400Y-107665600D01*
X117725400Y-107671600D01*
X117725400Y-108125600D01*
X117724400Y-108131600D01*
X117723400Y-108138600D01*
X117721400Y-108150600D01*
X117719400Y-108157600D01*
X117717400Y-108163600D01*
X117708400Y-108181600D01*
X117705400Y-108186600D01*
X117701400Y-108191600D01*
X117697400Y-108197600D01*
X117693400Y-108202600D01*
X117688400Y-108206600D01*
X117684400Y-108211600D01*
X117679400Y-108215600D01*
X117673400Y-108219600D01*
X117668400Y-108223600D01*
X117663400Y-108226600D01*
X117645400Y-108235600D01*
X117639400Y-108237600D01*
X117632400Y-108239600D01*
X117620400Y-108241600D01*
X117613400Y-108242600D01*
X117607400Y-108243600D01*
X117393400Y-108243600D01*
X117387400Y-108242600D01*
X117380400Y-108241600D01*
X117368400Y-108239600D01*
X117361400Y-108237600D01*
X117355400Y-108235600D01*
X117337400Y-108226600D01*
X117332400Y-108223600D01*
X117327400Y-108219600D01*
X117321400Y-108215600D01*
X117316400Y-108211600D01*
X117312400Y-108206600D01*
X117307400Y-108202600D01*
X117303400Y-108197600D01*
X117299400Y-108191600D01*
X117295400Y-108186600D01*
X117292400Y-108181600D01*
X117283400Y-108163600D01*
X117281400Y-108157600D01*
X117279400Y-108150600D01*
X117277400Y-108138600D01*
X117276400Y-108131600D01*
X117275400Y-108125600D01*
X117275400Y-107671600D01*
X117276400Y-107665600D01*
X117277400Y-107658600D01*
X117279400Y-107646600D01*
X117281400Y-107639600D01*
X117283400Y-107633600D01*
X117292400Y-107615600D01*
X117295400Y-107610600D01*
X117299400Y-107605600D01*
X117303400Y-107599600D01*
X117307400Y-107594600D01*
X117312400Y-107590600D01*
X117316400Y-107585600D01*
X117321400Y-107581600D01*
X117327400Y-107577600D01*
X117332400Y-107573600D01*
X117338400Y-107570600D01*
X117343400Y-107567600D01*
X117355400Y-107561600D01*
X117361400Y-107559600D01*
X117368400Y-107557600D01*
X117380400Y-107555600D01*
X117387400Y-107554600D01*
X117393400Y-107553600D01*
X117607400Y-107553600D01*
X117613400Y-107554600D01*
G36*
X117113400Y-107554600D02*
G01*
X117120400Y-107555600D01*
X117132400Y-107557600D01*
X117139400Y-107559600D01*
X117145400Y-107561600D01*
X117157400Y-107567600D01*
X117162400Y-107570600D01*
X117168400Y-107573600D01*
X117173400Y-107577600D01*
X117179400Y-107581600D01*
X117184400Y-107585600D01*
X117188400Y-107590600D01*
X117193400Y-107594600D01*
X117197400Y-107599600D01*
X117201400Y-107605600D01*
X117205400Y-107610600D01*
X117208400Y-107615600D01*
X117217400Y-107633600D01*
X117219400Y-107639600D01*
X117221400Y-107646600D01*
X117223400Y-107658600D01*
X117224400Y-107665600D01*
X117225400Y-107671600D01*
X117225400Y-108125600D01*
X117224400Y-108131600D01*
X117223400Y-108138600D01*
X117221400Y-108150600D01*
X117219400Y-108157600D01*
X117217400Y-108163600D01*
X117208400Y-108181600D01*
X117205400Y-108186600D01*
X117201400Y-108191600D01*
X117197400Y-108197600D01*
X117193400Y-108202600D01*
X117188400Y-108206600D01*
X117184400Y-108211600D01*
X117179400Y-108215600D01*
X117173400Y-108219600D01*
X117168400Y-108223600D01*
X117162400Y-108226600D01*
X117157400Y-108229600D01*
X117145400Y-108235600D01*
X117139400Y-108237600D01*
X117132400Y-108239600D01*
X117120400Y-108241600D01*
X117113400Y-108242600D01*
X117107400Y-108243600D01*
X116893400Y-108243600D01*
X116887400Y-108242600D01*
X116880400Y-108241600D01*
X116868400Y-108239600D01*
X116861400Y-108237600D01*
X116855400Y-108235600D01*
X116837400Y-108226600D01*
X116832400Y-108223600D01*
X116827400Y-108219600D01*
X116821400Y-108215600D01*
X116816400Y-108211600D01*
X116812400Y-108206600D01*
X116807400Y-108202600D01*
X116803400Y-108197600D01*
X116799400Y-108191600D01*
X116795400Y-108186600D01*
X116792400Y-108181600D01*
X116783400Y-108163600D01*
X116781400Y-108157600D01*
X116779400Y-108150600D01*
X116777400Y-108138600D01*
X116776400Y-108131600D01*
X116775400Y-108125600D01*
X116775400Y-107671600D01*
X116776400Y-107665600D01*
X116777400Y-107658600D01*
X116779400Y-107646600D01*
X116781400Y-107639600D01*
X116783400Y-107633600D01*
X116792400Y-107615600D01*
X116795400Y-107610600D01*
X116799400Y-107605600D01*
X116803400Y-107599600D01*
X116807400Y-107594600D01*
X116812400Y-107590600D01*
X116816400Y-107585600D01*
X116821400Y-107581600D01*
X116827400Y-107577600D01*
X116832400Y-107573600D01*
X116838400Y-107570600D01*
X116843400Y-107567600D01*
X116855400Y-107561600D01*
X116861400Y-107559600D01*
X116868400Y-107557600D01*
X116880400Y-107555600D01*
X116887400Y-107554600D01*
X116893400Y-107553600D01*
X117107400Y-107553600D01*
X117113400Y-107554600D01*
G37*
X117113400Y-107554600D02*
X117120400Y-107555600D01*
X117132400Y-107557600D01*
X117139400Y-107559600D01*
X117145400Y-107561600D01*
X117157400Y-107567600D01*
X117162400Y-107570600D01*
X117168400Y-107573600D01*
X117173400Y-107577600D01*
X117179400Y-107581600D01*
X117184400Y-107585600D01*
X117188400Y-107590600D01*
X117193400Y-107594600D01*
X117197400Y-107599600D01*
X117201400Y-107605600D01*
X117205400Y-107610600D01*
X117208400Y-107615600D01*
X117217400Y-107633600D01*
X117219400Y-107639600D01*
X117221400Y-107646600D01*
X117223400Y-107658600D01*
X117224400Y-107665600D01*
X117225400Y-107671600D01*
X117225400Y-108125600D01*
X117224400Y-108131600D01*
X117223400Y-108138600D01*
X117221400Y-108150600D01*
X117219400Y-108157600D01*
X117217400Y-108163600D01*
X117208400Y-108181600D01*
X117205400Y-108186600D01*
X117201400Y-108191600D01*
X117197400Y-108197600D01*
X117193400Y-108202600D01*
X117188400Y-108206600D01*
X117184400Y-108211600D01*
X117179400Y-108215600D01*
X117173400Y-108219600D01*
X117168400Y-108223600D01*
X117162400Y-108226600D01*
X117157400Y-108229600D01*
X117145400Y-108235600D01*
X117139400Y-108237600D01*
X117132400Y-108239600D01*
X117120400Y-108241600D01*
X117113400Y-108242600D01*
X117107400Y-108243600D01*
X116893400Y-108243600D01*
X116887400Y-108242600D01*
X116880400Y-108241600D01*
X116868400Y-108239600D01*
X116861400Y-108237600D01*
X116855400Y-108235600D01*
X116837400Y-108226600D01*
X116832400Y-108223600D01*
X116827400Y-108219600D01*
X116821400Y-108215600D01*
X116816400Y-108211600D01*
X116812400Y-108206600D01*
X116807400Y-108202600D01*
X116803400Y-108197600D01*
X116799400Y-108191600D01*
X116795400Y-108186600D01*
X116792400Y-108181600D01*
X116783400Y-108163600D01*
X116781400Y-108157600D01*
X116779400Y-108150600D01*
X116777400Y-108138600D01*
X116776400Y-108131600D01*
X116775400Y-108125600D01*
X116775400Y-107671600D01*
X116776400Y-107665600D01*
X116777400Y-107658600D01*
X116779400Y-107646600D01*
X116781400Y-107639600D01*
X116783400Y-107633600D01*
X116792400Y-107615600D01*
X116795400Y-107610600D01*
X116799400Y-107605600D01*
X116803400Y-107599600D01*
X116807400Y-107594600D01*
X116812400Y-107590600D01*
X116816400Y-107585600D01*
X116821400Y-107581600D01*
X116827400Y-107577600D01*
X116832400Y-107573600D01*
X116838400Y-107570600D01*
X116843400Y-107567600D01*
X116855400Y-107561600D01*
X116861400Y-107559600D01*
X116868400Y-107557600D01*
X116880400Y-107555600D01*
X116887400Y-107554600D01*
X116893400Y-107553600D01*
X117107400Y-107553600D01*
X117113400Y-107554600D01*
G36*
X118113400Y-107554600D02*
G01*
X118120400Y-107555600D01*
X118132400Y-107557600D01*
X118139400Y-107559600D01*
X118145400Y-107561600D01*
X118157400Y-107567600D01*
X118162400Y-107570600D01*
X118168400Y-107573600D01*
X118173400Y-107577600D01*
X118179400Y-107581600D01*
X118184400Y-107585600D01*
X118188400Y-107590600D01*
X118193400Y-107594600D01*
X118197400Y-107599600D01*
X118201400Y-107605600D01*
X118205400Y-107610600D01*
X118208400Y-107615600D01*
X118217400Y-107633600D01*
X118219400Y-107639600D01*
X118221400Y-107646600D01*
X118223400Y-107658600D01*
X118224400Y-107665600D01*
X118225400Y-107671600D01*
X118225400Y-108125600D01*
X118224400Y-108131600D01*
X118223400Y-108138600D01*
X118221400Y-108150600D01*
X118219400Y-108157600D01*
X118217400Y-108163600D01*
X118208400Y-108181600D01*
X118205400Y-108186600D01*
X118201400Y-108191600D01*
X118197400Y-108197600D01*
X118193400Y-108202600D01*
X118188400Y-108206600D01*
X118184400Y-108211600D01*
X118179400Y-108215600D01*
X118173400Y-108219600D01*
X118168400Y-108223600D01*
X118162400Y-108226600D01*
X118157400Y-108229600D01*
X118145400Y-108235600D01*
X118139400Y-108237600D01*
X118132400Y-108239600D01*
X118120400Y-108241600D01*
X118113400Y-108242600D01*
X118107400Y-108243600D01*
X117893400Y-108243600D01*
X117887400Y-108242600D01*
X117880400Y-108241600D01*
X117868400Y-108239600D01*
X117861400Y-108237600D01*
X117855400Y-108235600D01*
X117837400Y-108226600D01*
X117832400Y-108223600D01*
X117827400Y-108219600D01*
X117821400Y-108215600D01*
X117816400Y-108211600D01*
X117812400Y-108206600D01*
X117807400Y-108202600D01*
X117803400Y-108197600D01*
X117799400Y-108191600D01*
X117795400Y-108186600D01*
X117792400Y-108181600D01*
X117783400Y-108163600D01*
X117781400Y-108157600D01*
X117779400Y-108150600D01*
X117777400Y-108138600D01*
X117776400Y-108131600D01*
X117775400Y-108125600D01*
X117775400Y-107671600D01*
X117776400Y-107665600D01*
X117777400Y-107658600D01*
X117779400Y-107646600D01*
X117781400Y-107639600D01*
X117783400Y-107633600D01*
X117792400Y-107615600D01*
X117795400Y-107610600D01*
X117799400Y-107605600D01*
X117803400Y-107599600D01*
X117807400Y-107594600D01*
X117812400Y-107590600D01*
X117816400Y-107585600D01*
X117821400Y-107581600D01*
X117827400Y-107577600D01*
X117832400Y-107573600D01*
X117838400Y-107570600D01*
X117843400Y-107567600D01*
X117855400Y-107561600D01*
X117861400Y-107559600D01*
X117868400Y-107557600D01*
X117880400Y-107555600D01*
X117887400Y-107554600D01*
X117893400Y-107553600D01*
X118107400Y-107553600D01*
X118113400Y-107554600D01*
G37*
X118113400Y-107554600D02*
X118120400Y-107555600D01*
X118132400Y-107557600D01*
X118139400Y-107559600D01*
X118145400Y-107561600D01*
X118157400Y-107567600D01*
X118162400Y-107570600D01*
X118168400Y-107573600D01*
X118173400Y-107577600D01*
X118179400Y-107581600D01*
X118184400Y-107585600D01*
X118188400Y-107590600D01*
X118193400Y-107594600D01*
X118197400Y-107599600D01*
X118201400Y-107605600D01*
X118205400Y-107610600D01*
X118208400Y-107615600D01*
X118217400Y-107633600D01*
X118219400Y-107639600D01*
X118221400Y-107646600D01*
X118223400Y-107658600D01*
X118224400Y-107665600D01*
X118225400Y-107671600D01*
X118225400Y-108125600D01*
X118224400Y-108131600D01*
X118223400Y-108138600D01*
X118221400Y-108150600D01*
X118219400Y-108157600D01*
X118217400Y-108163600D01*
X118208400Y-108181600D01*
X118205400Y-108186600D01*
X118201400Y-108191600D01*
X118197400Y-108197600D01*
X118193400Y-108202600D01*
X118188400Y-108206600D01*
X118184400Y-108211600D01*
X118179400Y-108215600D01*
X118173400Y-108219600D01*
X118168400Y-108223600D01*
X118162400Y-108226600D01*
X118157400Y-108229600D01*
X118145400Y-108235600D01*
X118139400Y-108237600D01*
X118132400Y-108239600D01*
X118120400Y-108241600D01*
X118113400Y-108242600D01*
X118107400Y-108243600D01*
X117893400Y-108243600D01*
X117887400Y-108242600D01*
X117880400Y-108241600D01*
X117868400Y-108239600D01*
X117861400Y-108237600D01*
X117855400Y-108235600D01*
X117837400Y-108226600D01*
X117832400Y-108223600D01*
X117827400Y-108219600D01*
X117821400Y-108215600D01*
X117816400Y-108211600D01*
X117812400Y-108206600D01*
X117807400Y-108202600D01*
X117803400Y-108197600D01*
X117799400Y-108191600D01*
X117795400Y-108186600D01*
X117792400Y-108181600D01*
X117783400Y-108163600D01*
X117781400Y-108157600D01*
X117779400Y-108150600D01*
X117777400Y-108138600D01*
X117776400Y-108131600D01*
X117775400Y-108125600D01*
X117775400Y-107671600D01*
X117776400Y-107665600D01*
X117777400Y-107658600D01*
X117779400Y-107646600D01*
X117781400Y-107639600D01*
X117783400Y-107633600D01*
X117792400Y-107615600D01*
X117795400Y-107610600D01*
X117799400Y-107605600D01*
X117803400Y-107599600D01*
X117807400Y-107594600D01*
X117812400Y-107590600D01*
X117816400Y-107585600D01*
X117821400Y-107581600D01*
X117827400Y-107577600D01*
X117832400Y-107573600D01*
X117838400Y-107570600D01*
X117843400Y-107567600D01*
X117855400Y-107561600D01*
X117861400Y-107559600D01*
X117868400Y-107557600D01*
X117880400Y-107555600D01*
X117887400Y-107554600D01*
X117893400Y-107553600D01*
X118107400Y-107553600D01*
X118113400Y-107554600D01*
%TD*%
D11*
%TO.C,C10*%
X112141000Y-106312000D03*
X112141000Y-104762000D03*
%TD*%
D12*
%TO.C,C9*%
X113754200Y-118821200D03*
X112204200Y-118821200D03*
%TD*%
D11*
%TO.C,C3*%
X107340400Y-109487000D03*
X107340400Y-107937000D03*
%TD*%
D13*
%TO.C,R2*%
X116255800Y-104203000D03*
X116255800Y-102553000D03*
%TD*%
D14*
%TO.C,C6*%
X116864800Y-111252000D03*
X118414800Y-111252000D03*
%TD*%
D15*
%TO.C,C5*%
X120243600Y-107327400D03*
X120243600Y-108877400D03*
%TD*%
D11*
%TO.C,C4*%
X120243600Y-112027000D03*
X120243600Y-110477000D03*
%TD*%
%TO.C,C8*%
X117348000Y-117208600D03*
X117348000Y-115658600D03*
%TD*%
%TO.C,C2*%
X109118400Y-109500000D03*
X109118400Y-107950000D03*
%TD*%
D13*
%TO.C,R3*%
X113792000Y-113753400D03*
X113792000Y-112103400D03*
%TD*%
D11*
%TO.C,C7*%
X115620800Y-117208600D03*
X115620800Y-115658600D03*
%TD*%
D16*
%TO.C,J1*%
X103200200Y-102625000D03*
D17*
X103200200Y-105165000D03*
X103200200Y-107705000D03*
X103200200Y-110245000D03*
X103200200Y-112785000D03*
X103200200Y-115325000D03*
X103200200Y-117865000D03*
%TD*%
D18*
%TO.C,U1*%
X109591000Y-106283000D03*
X109591000Y-105783000D03*
X109591000Y-105283000D03*
X109591000Y-104783000D03*
X109591000Y-104283000D03*
D19*
X108831000Y-104023000D03*
X108331000Y-104023000D03*
X107831000Y-104023000D03*
D18*
X107071000Y-104283000D03*
X107071000Y-104783000D03*
X107071000Y-105283000D03*
X107071000Y-105783000D03*
X107071000Y-106283000D03*
D19*
X107831000Y-106543000D03*
X108331000Y-106543000D03*
X108831000Y-106543000D03*
%TD*%
D11*
%TO.C,C1*%
X110845600Y-109487000D03*
X110845600Y-107937000D03*
%TD*%
D13*
%TO.C,R1*%
X118872000Y-104203000D03*
X118872000Y-102553000D03*
%TD*%
D20*
%TO.C,U3*%
X111666800Y-115683600D03*
X111666800Y-116183600D03*
X111666800Y-116683600D03*
X111666800Y-117183600D03*
D21*
X112326800Y-117343600D03*
X112826800Y-117343600D03*
X113326800Y-117343600D03*
D22*
X113986800Y-117183600D03*
X113986800Y-116683600D03*
X113986800Y-116183600D03*
X113986800Y-115683600D03*
D23*
X113326800Y-115523600D03*
X112826800Y-115523600D03*
X112326800Y-115523600D03*
%TD*%
M02*
