%TF.GenerationSoftware,KiCad,Pcbnew,(6.0.6-0)*%
%TF.CreationDate,2022-08-17T23:58:54-07:00*%
%TF.ProjectId,mmc5983ma,6d6d6335-3938-4336-9d61-2e6b69636164,rev?*%
%TF.SameCoordinates,Original*%
%TF.FileFunction,Legend,Bot*%
%TF.FilePolarity,Positive*%
%FSLAX46Y46*%
G04 Gerber Fmt 4.6, Leading zero omitted, Abs format (unit mm)*
G04 Created by KiCad (PCBNEW (6.0.6-0)) date 2022-08-17 23:58:54*
%MOMM*%
%LPD*%
G01*
G04 APERTURE LIST*
%ADD10C,0.150000*%
G04 APERTURE END LIST*
D10*
X111985904Y-103982190D02*
X111185904Y-103982190D01*
X111185904Y-104172666D01*
X111224000Y-104286952D01*
X111300190Y-104363142D01*
X111376380Y-104401238D01*
X111528761Y-104439333D01*
X111643047Y-104439333D01*
X111795428Y-104401238D01*
X111871619Y-104363142D01*
X111947809Y-104286952D01*
X111985904Y-104172666D01*
X111985904Y-103982190D01*
X111947809Y-105086952D02*
X111985904Y-105010761D01*
X111985904Y-104858380D01*
X111947809Y-104782190D01*
X111871619Y-104744095D01*
X111566857Y-104744095D01*
X111490666Y-104782190D01*
X111452571Y-104858380D01*
X111452571Y-105010761D01*
X111490666Y-105086952D01*
X111566857Y-105125047D01*
X111643047Y-105125047D01*
X111719238Y-104744095D01*
X111947809Y-105429809D02*
X111985904Y-105506000D01*
X111985904Y-105658380D01*
X111947809Y-105734571D01*
X111871619Y-105772666D01*
X111833523Y-105772666D01*
X111757333Y-105734571D01*
X111719238Y-105658380D01*
X111719238Y-105544095D01*
X111681142Y-105467904D01*
X111604952Y-105429809D01*
X111566857Y-105429809D01*
X111490666Y-105467904D01*
X111452571Y-105544095D01*
X111452571Y-105658380D01*
X111490666Y-105734571D01*
X111985904Y-106115523D02*
X111452571Y-106115523D01*
X111185904Y-106115523D02*
X111224000Y-106077428D01*
X111262095Y-106115523D01*
X111224000Y-106153619D01*
X111185904Y-106115523D01*
X111262095Y-106115523D01*
X111452571Y-106839333D02*
X112100190Y-106839333D01*
X112176380Y-106801238D01*
X112214476Y-106763142D01*
X112252571Y-106686952D01*
X112252571Y-106572666D01*
X112214476Y-106496476D01*
X111947809Y-106839333D02*
X111985904Y-106763142D01*
X111985904Y-106610761D01*
X111947809Y-106534571D01*
X111909714Y-106496476D01*
X111833523Y-106458380D01*
X111604952Y-106458380D01*
X111528761Y-106496476D01*
X111490666Y-106534571D01*
X111452571Y-106610761D01*
X111452571Y-106763142D01*
X111490666Y-106839333D01*
X111452571Y-107220285D02*
X111985904Y-107220285D01*
X111528761Y-107220285D02*
X111490666Y-107258380D01*
X111452571Y-107334571D01*
X111452571Y-107448857D01*
X111490666Y-107525047D01*
X111566857Y-107563142D01*
X111985904Y-107563142D01*
X111947809Y-108248857D02*
X111985904Y-108172666D01*
X111985904Y-108020285D01*
X111947809Y-107944095D01*
X111871619Y-107906000D01*
X111566857Y-107906000D01*
X111490666Y-107944095D01*
X111452571Y-108020285D01*
X111452571Y-108172666D01*
X111490666Y-108248857D01*
X111566857Y-108286952D01*
X111643047Y-108286952D01*
X111719238Y-107906000D01*
X111985904Y-108972666D02*
X111185904Y-108972666D01*
X111947809Y-108972666D02*
X111985904Y-108896476D01*
X111985904Y-108744095D01*
X111947809Y-108667904D01*
X111909714Y-108629809D01*
X111833523Y-108591714D01*
X111604952Y-108591714D01*
X111528761Y-108629809D01*
X111490666Y-108667904D01*
X111452571Y-108744095D01*
X111452571Y-108896476D01*
X111490666Y-108972666D01*
X111566857Y-110229809D02*
X111604952Y-110344095D01*
X111643047Y-110382190D01*
X111719238Y-110420285D01*
X111833523Y-110420285D01*
X111909714Y-110382190D01*
X111947809Y-110344095D01*
X111985904Y-110267904D01*
X111985904Y-109963142D01*
X111185904Y-109963142D01*
X111185904Y-110229809D01*
X111224000Y-110306000D01*
X111262095Y-110344095D01*
X111338285Y-110382190D01*
X111414476Y-110382190D01*
X111490666Y-110344095D01*
X111528761Y-110306000D01*
X111566857Y-110229809D01*
X111566857Y-109963142D01*
X111452571Y-110686952D02*
X111985904Y-110877428D01*
X111452571Y-111067904D02*
X111985904Y-110877428D01*
X112176380Y-110801238D01*
X112214476Y-110763142D01*
X112252571Y-110686952D01*
X111909714Y-111372666D02*
X111947809Y-111410761D01*
X111985904Y-111372666D01*
X111947809Y-111334571D01*
X111909714Y-111372666D01*
X111985904Y-111372666D01*
X111490666Y-111372666D02*
X111528761Y-111410761D01*
X111566857Y-111372666D01*
X111528761Y-111334571D01*
X111490666Y-111372666D01*
X111566857Y-111372666D01*
X111985904Y-112363142D02*
X111185904Y-112363142D01*
X111985904Y-112820285D02*
X111528761Y-112477428D01*
X111185904Y-112820285D02*
X111643047Y-112363142D01*
X111452571Y-113506000D02*
X111985904Y-113506000D01*
X111452571Y-113163142D02*
X111871619Y-113163142D01*
X111947809Y-113201238D01*
X111985904Y-113277428D01*
X111985904Y-113391714D01*
X111947809Y-113467904D01*
X111909714Y-113506000D01*
X111947809Y-113848857D02*
X111985904Y-113925047D01*
X111985904Y-114077428D01*
X111947809Y-114153619D01*
X111871619Y-114191714D01*
X111833523Y-114191714D01*
X111757333Y-114153619D01*
X111719238Y-114077428D01*
X111719238Y-113963142D01*
X111681142Y-113886952D01*
X111604952Y-113848857D01*
X111566857Y-113848857D01*
X111490666Y-113886952D01*
X111452571Y-113963142D01*
X111452571Y-114077428D01*
X111490666Y-114153619D01*
X111985904Y-114534571D02*
X111185904Y-114534571D01*
X111985904Y-114877428D02*
X111566857Y-114877428D01*
X111490666Y-114839333D01*
X111452571Y-114763142D01*
X111452571Y-114648857D01*
X111490666Y-114572666D01*
X111528761Y-114534571D01*
X111985904Y-115867904D02*
X111185904Y-115867904D01*
X111985904Y-116325047D01*
X111185904Y-116325047D01*
X111985904Y-117048857D02*
X111566857Y-117048857D01*
X111490666Y-117010761D01*
X111452571Y-116934571D01*
X111452571Y-116782190D01*
X111490666Y-116706000D01*
X111947809Y-117048857D02*
X111985904Y-116972666D01*
X111985904Y-116782190D01*
X111947809Y-116706000D01*
X111871619Y-116667904D01*
X111795428Y-116667904D01*
X111719238Y-116706000D01*
X111681142Y-116782190D01*
X111681142Y-116972666D01*
X111643047Y-117048857D01*
X111452571Y-117353619D02*
X111985904Y-117544095D01*
X111452571Y-117734571D02*
X111985904Y-117544095D01*
X112176380Y-117467904D01*
X112214476Y-117429809D01*
X112252571Y-117353619D01*
X111985904Y-118382190D02*
X111566857Y-118382190D01*
X111490666Y-118344095D01*
X111452571Y-118267904D01*
X111452571Y-118115523D01*
X111490666Y-118039333D01*
X111947809Y-118382190D02*
X111985904Y-118306000D01*
X111985904Y-118115523D01*
X111947809Y-118039333D01*
X111871619Y-118001238D01*
X111795428Y-118001238D01*
X111719238Y-118039333D01*
X111681142Y-118115523D01*
X111681142Y-118306000D01*
X111643047Y-118382190D01*
X111985904Y-118763142D02*
X111185904Y-118763142D01*
X111681142Y-118839333D02*
X111985904Y-119067904D01*
X111452571Y-119067904D02*
X111757333Y-118763142D01*
X113045333Y-108020285D02*
X113045333Y-108401238D01*
X113273904Y-107944095D02*
X112473904Y-108210761D01*
X113273904Y-108477428D01*
X113273904Y-108744095D02*
X112740571Y-108744095D01*
X112816761Y-108744095D02*
X112778666Y-108782190D01*
X112740571Y-108858380D01*
X112740571Y-108972666D01*
X112778666Y-109048857D01*
X112854857Y-109086952D01*
X113273904Y-109086952D01*
X112854857Y-109086952D02*
X112778666Y-109125047D01*
X112740571Y-109201238D01*
X112740571Y-109315523D01*
X112778666Y-109391714D01*
X112854857Y-109429809D01*
X113273904Y-109429809D01*
X113273904Y-110153619D02*
X112854857Y-110153619D01*
X112778666Y-110115523D01*
X112740571Y-110039333D01*
X112740571Y-109886952D01*
X112778666Y-109810761D01*
X113235809Y-110153619D02*
X113273904Y-110077428D01*
X113273904Y-109886952D01*
X113235809Y-109810761D01*
X113159619Y-109772666D01*
X113083428Y-109772666D01*
X113007238Y-109810761D01*
X112969142Y-109886952D01*
X112969142Y-110077428D01*
X112931047Y-110153619D01*
X113273904Y-110877428D02*
X112473904Y-110877428D01*
X113235809Y-110877428D02*
X113273904Y-110801238D01*
X113273904Y-110648857D01*
X113235809Y-110572666D01*
X113197714Y-110534571D01*
X113121523Y-110496476D01*
X112892952Y-110496476D01*
X112816761Y-110534571D01*
X112778666Y-110572666D01*
X112740571Y-110648857D01*
X112740571Y-110801238D01*
X112778666Y-110877428D01*
X113273904Y-111372666D02*
X113235809Y-111296476D01*
X113197714Y-111258380D01*
X113121523Y-111220285D01*
X112892952Y-111220285D01*
X112816761Y-111258380D01*
X112778666Y-111296476D01*
X112740571Y-111372666D01*
X112740571Y-111486952D01*
X112778666Y-111563142D01*
X112816761Y-111601238D01*
X112892952Y-111639333D01*
X113121523Y-111639333D01*
X113197714Y-111601238D01*
X113235809Y-111563142D01*
X113273904Y-111486952D01*
X113273904Y-111372666D01*
X113273904Y-111982190D02*
X112740571Y-111982190D01*
X112892952Y-111982190D02*
X112816761Y-112020285D01*
X112778666Y-112058380D01*
X112740571Y-112134571D01*
X112740571Y-112210761D01*
X112473904Y-112477428D02*
X113121523Y-112477428D01*
X113197714Y-112515523D01*
X113235809Y-112553619D01*
X113273904Y-112629809D01*
X113273904Y-112782190D01*
X113235809Y-112858380D01*
X113197714Y-112896476D01*
X113121523Y-112934571D01*
X112473904Y-112934571D01*
X113045333Y-113277428D02*
X113045333Y-113658380D01*
X113273904Y-113201238D02*
X112473904Y-113467904D01*
X113273904Y-113734571D01*
X112473904Y-113886952D02*
X113273904Y-114153619D01*
X112473904Y-114420285D01*
X113235809Y-114648857D02*
X113273904Y-114725047D01*
X113273904Y-114877428D01*
X113235809Y-114953619D01*
X113159619Y-114991714D01*
X113121523Y-114991714D01*
X113045333Y-114953619D01*
X113007238Y-114877428D01*
X113007238Y-114763142D01*
X112969142Y-114686952D01*
X112892952Y-114648857D01*
X112854857Y-114648857D01*
X112778666Y-114686952D01*
X112740571Y-114763142D01*
X112740571Y-114877428D01*
X112778666Y-114953619D01*
M02*
