%TF.GenerationSoftware,KiCad,Pcbnew,(6.0.6-0)*%
%TF.CreationDate,2022-08-17T23:58:54-07:00*%
%TF.ProjectId,mmc5983ma,6d6d6335-3938-4336-9d61-2e6b69636164,rev?*%
%TF.SameCoordinates,Original*%
%TF.FileFunction,Legend,Top*%
%TF.FilePolarity,Positive*%
%FSLAX46Y46*%
G04 Gerber Fmt 4.6, Leading zero omitted, Abs format (unit mm)*
G04 Created by KiCad (PCBNEW (6.0.6-0)) date 2022-08-17 23:58:54*
%MOMM*%
%LPD*%
G01*
G04 APERTURE LIST*
%ADD10C,0.150000*%
%ADD11C,0.120000*%
%ADD12C,0.100000*%
G04 APERTURE END LIST*
D10*
X100651514Y-109264571D02*
X100608657Y-109378857D01*
X100608657Y-109569333D01*
X100651514Y-109645523D01*
X100694371Y-109683619D01*
X100780085Y-109721714D01*
X100865800Y-109721714D01*
X100951514Y-109683619D01*
X100994371Y-109645523D01*
X101037228Y-109569333D01*
X101080085Y-109416952D01*
X101122942Y-109340761D01*
X101165800Y-109302666D01*
X101251514Y-109264571D01*
X101337228Y-109264571D01*
X101422942Y-109302666D01*
X101465800Y-109340761D01*
X101508657Y-109416952D01*
X101508657Y-109607428D01*
X101465800Y-109721714D01*
X100608657Y-110064571D02*
X101508657Y-110064571D01*
X101508657Y-110255047D01*
X101465800Y-110369333D01*
X101380085Y-110445523D01*
X101294371Y-110483619D01*
X101122942Y-110521714D01*
X100994371Y-110521714D01*
X100822942Y-110483619D01*
X100737228Y-110445523D01*
X100651514Y-110369333D01*
X100608657Y-110255047D01*
X100608657Y-110064571D01*
X100865800Y-110826476D02*
X100865800Y-111207428D01*
X100608657Y-110750285D02*
X101508657Y-111016952D01*
X100608657Y-111283619D01*
X101508657Y-101498523D02*
X101508657Y-101993761D01*
X101165800Y-101727095D01*
X101165800Y-101841380D01*
X101122942Y-101917571D01*
X101080085Y-101955666D01*
X100994371Y-101993761D01*
X100780085Y-101993761D01*
X100694371Y-101955666D01*
X100651514Y-101917571D01*
X100608657Y-101841380D01*
X100608657Y-101612809D01*
X100651514Y-101536619D01*
X100694371Y-101498523D01*
X101508657Y-102222333D02*
X100608657Y-102489000D01*
X101508657Y-102755666D01*
X101508657Y-102946142D02*
X101508657Y-103441380D01*
X101165800Y-103174714D01*
X101165800Y-103289000D01*
X101122942Y-103365190D01*
X101080085Y-103403285D01*
X100994371Y-103441380D01*
X100780085Y-103441380D01*
X100694371Y-103403285D01*
X100651514Y-103365190D01*
X100608657Y-103289000D01*
X100608657Y-103060428D01*
X100651514Y-102984238D01*
X100694371Y-102946142D01*
X100608657Y-106972190D02*
X101508657Y-106972190D01*
X100608657Y-107353142D02*
X101508657Y-107353142D01*
X100608657Y-107810285D01*
X101508657Y-107810285D01*
X101508657Y-108076952D02*
X101508657Y-108534095D01*
X100608657Y-108305523D02*
X101508657Y-108305523D01*
X100651514Y-116935380D02*
X100608657Y-117049666D01*
X100608657Y-117240142D01*
X100651514Y-117316333D01*
X100694371Y-117354428D01*
X100780085Y-117392523D01*
X100865800Y-117392523D01*
X100951514Y-117354428D01*
X100994371Y-117316333D01*
X101037228Y-117240142D01*
X101080085Y-117087761D01*
X101122942Y-117011571D01*
X101165800Y-116973476D01*
X101251514Y-116935380D01*
X101337228Y-116935380D01*
X101422942Y-116973476D01*
X101465800Y-117011571D01*
X101508657Y-117087761D01*
X101508657Y-117278238D01*
X101465800Y-117392523D01*
X100608657Y-117735380D02*
X101508657Y-117735380D01*
X101508657Y-117925857D01*
X101465800Y-118040142D01*
X101380085Y-118116333D01*
X101294371Y-118154428D01*
X101122942Y-118192523D01*
X100994371Y-118192523D01*
X100822942Y-118154428D01*
X100737228Y-118116333D01*
X100651514Y-118040142D01*
X100608657Y-117925857D01*
X100608657Y-117735380D01*
X101508657Y-118687761D02*
X101508657Y-118840142D01*
X101465800Y-118916333D01*
X101380085Y-118992523D01*
X101208657Y-119030619D01*
X100908657Y-119030619D01*
X100737228Y-118992523D01*
X100651514Y-118916333D01*
X100608657Y-118840142D01*
X100608657Y-118687761D01*
X100651514Y-118611571D01*
X100737228Y-118535380D01*
X100908657Y-118497285D01*
X101208657Y-118497285D01*
X101380085Y-118535380D01*
X101465800Y-118611571D01*
X101508657Y-118687761D01*
X101762800Y-114535047D02*
X101762800Y-115335047D01*
X100694371Y-115182666D02*
X100651514Y-115144571D01*
X100608657Y-115030285D01*
X100608657Y-114954095D01*
X100651514Y-114839809D01*
X100737228Y-114763619D01*
X100822942Y-114725523D01*
X100994371Y-114687428D01*
X101122942Y-114687428D01*
X101294371Y-114725523D01*
X101380085Y-114763619D01*
X101465800Y-114839809D01*
X101508657Y-114954095D01*
X101508657Y-115030285D01*
X101465800Y-115144571D01*
X101422942Y-115182666D01*
X101762800Y-115335047D02*
X101762800Y-116096952D01*
X100651514Y-115487428D02*
X100608657Y-115601714D01*
X100608657Y-115792190D01*
X100651514Y-115868380D01*
X100694371Y-115906476D01*
X100780085Y-115944571D01*
X100865800Y-115944571D01*
X100951514Y-115906476D01*
X100994371Y-115868380D01*
X101037228Y-115792190D01*
X101080085Y-115639809D01*
X101122942Y-115563619D01*
X101165800Y-115525523D01*
X101251514Y-115487428D01*
X101337228Y-115487428D01*
X101422942Y-115525523D01*
X101465800Y-115563619D01*
X101508657Y-115639809D01*
X101508657Y-115830285D01*
X101465800Y-115944571D01*
X100651514Y-111950619D02*
X100608657Y-112064904D01*
X100608657Y-112255380D01*
X100651514Y-112331571D01*
X100694371Y-112369666D01*
X100780085Y-112407761D01*
X100865800Y-112407761D01*
X100951514Y-112369666D01*
X100994371Y-112331571D01*
X101037228Y-112255380D01*
X101080085Y-112103000D01*
X101122942Y-112026809D01*
X101165800Y-111988714D01*
X101251514Y-111950619D01*
X101337228Y-111950619D01*
X101422942Y-111988714D01*
X101465800Y-112026809D01*
X101508657Y-112103000D01*
X101508657Y-112293476D01*
X101465800Y-112407761D01*
X100694371Y-113207761D02*
X100651514Y-113169666D01*
X100608657Y-113055380D01*
X100608657Y-112979190D01*
X100651514Y-112864904D01*
X100737228Y-112788714D01*
X100822942Y-112750619D01*
X100994371Y-112712523D01*
X101122942Y-112712523D01*
X101294371Y-112750619D01*
X101380085Y-112788714D01*
X101465800Y-112864904D01*
X101508657Y-112979190D01*
X101508657Y-113055380D01*
X101465800Y-113169666D01*
X101422942Y-113207761D01*
X100608657Y-113931571D02*
X100608657Y-113550619D01*
X101508657Y-113550619D01*
X105721619Y-117573904D02*
X105721619Y-116773904D01*
X105988285Y-117345333D01*
X106254952Y-116773904D01*
X106254952Y-117573904D01*
X106635904Y-117573904D02*
X106635904Y-116773904D01*
X106902571Y-117345333D01*
X107169238Y-116773904D01*
X107169238Y-117573904D01*
X108007333Y-117497714D02*
X107969238Y-117535809D01*
X107854952Y-117573904D01*
X107778761Y-117573904D01*
X107664476Y-117535809D01*
X107588285Y-117459619D01*
X107550190Y-117383428D01*
X107512095Y-117231047D01*
X107512095Y-117116761D01*
X107550190Y-116964380D01*
X107588285Y-116888190D01*
X107664476Y-116812000D01*
X107778761Y-116773904D01*
X107854952Y-116773904D01*
X107969238Y-116812000D01*
X108007333Y-116850095D01*
X108731142Y-116773904D02*
X108350190Y-116773904D01*
X108312095Y-117154857D01*
X108350190Y-117116761D01*
X108426380Y-117078666D01*
X108616857Y-117078666D01*
X108693047Y-117116761D01*
X108731142Y-117154857D01*
X108769238Y-117231047D01*
X108769238Y-117421523D01*
X108731142Y-117497714D01*
X108693047Y-117535809D01*
X108616857Y-117573904D01*
X108426380Y-117573904D01*
X108350190Y-117535809D01*
X108312095Y-117497714D01*
X109150190Y-117573904D02*
X109302571Y-117573904D01*
X109378761Y-117535809D01*
X109416857Y-117497714D01*
X109493047Y-117383428D01*
X109531142Y-117231047D01*
X109531142Y-116926285D01*
X109493047Y-116850095D01*
X109454952Y-116812000D01*
X109378761Y-116773904D01*
X109226380Y-116773904D01*
X109150190Y-116812000D01*
X109112095Y-116850095D01*
X109074000Y-116926285D01*
X109074000Y-117116761D01*
X109112095Y-117192952D01*
X109150190Y-117231047D01*
X109226380Y-117269142D01*
X109378761Y-117269142D01*
X109454952Y-117231047D01*
X109493047Y-117192952D01*
X109531142Y-117116761D01*
X109988285Y-117116761D02*
X109912095Y-117078666D01*
X109874000Y-117040571D01*
X109835904Y-116964380D01*
X109835904Y-116926285D01*
X109874000Y-116850095D01*
X109912095Y-116812000D01*
X109988285Y-116773904D01*
X110140666Y-116773904D01*
X110216857Y-116812000D01*
X110254952Y-116850095D01*
X110293047Y-116926285D01*
X110293047Y-116964380D01*
X110254952Y-117040571D01*
X110216857Y-117078666D01*
X110140666Y-117116761D01*
X109988285Y-117116761D01*
X109912095Y-117154857D01*
X109874000Y-117192952D01*
X109835904Y-117269142D01*
X109835904Y-117421523D01*
X109874000Y-117497714D01*
X109912095Y-117535809D01*
X109988285Y-117573904D01*
X110140666Y-117573904D01*
X110216857Y-117535809D01*
X110254952Y-117497714D01*
X110293047Y-117421523D01*
X110293047Y-117269142D01*
X110254952Y-117192952D01*
X110216857Y-117154857D01*
X110140666Y-117116761D01*
X110559714Y-116773904D02*
X111054952Y-116773904D01*
X110788285Y-117078666D01*
X110902571Y-117078666D01*
X110978761Y-117116761D01*
X111016857Y-117154857D01*
X111054952Y-117231047D01*
X111054952Y-117421523D01*
X111016857Y-117497714D01*
X110978761Y-117535809D01*
X110902571Y-117573904D01*
X110674000Y-117573904D01*
X110597809Y-117535809D01*
X110559714Y-117497714D01*
X111397809Y-117573904D02*
X111397809Y-116773904D01*
X111664476Y-117345333D01*
X111931142Y-116773904D01*
X111931142Y-117573904D01*
X112274000Y-117345333D02*
X112654952Y-117345333D01*
X112197809Y-117573904D02*
X112464476Y-116773904D01*
X112731142Y-117573904D01*
X105264476Y-118442857D02*
X105378761Y-118480952D01*
X105416857Y-118519047D01*
X105454952Y-118595238D01*
X105454952Y-118709523D01*
X105416857Y-118785714D01*
X105378761Y-118823809D01*
X105302571Y-118861904D01*
X104997809Y-118861904D01*
X104997809Y-118061904D01*
X105264476Y-118061904D01*
X105340666Y-118100000D01*
X105378761Y-118138095D01*
X105416857Y-118214285D01*
X105416857Y-118290476D01*
X105378761Y-118366666D01*
X105340666Y-118404761D01*
X105264476Y-118442857D01*
X104997809Y-118442857D01*
X105797809Y-118861904D02*
X105797809Y-118328571D01*
X105797809Y-118480952D02*
X105835904Y-118404761D01*
X105874000Y-118366666D01*
X105950190Y-118328571D01*
X106026380Y-118328571D01*
X106597809Y-118823809D02*
X106521619Y-118861904D01*
X106369238Y-118861904D01*
X106293047Y-118823809D01*
X106254952Y-118747619D01*
X106254952Y-118442857D01*
X106293047Y-118366666D01*
X106369238Y-118328571D01*
X106521619Y-118328571D01*
X106597809Y-118366666D01*
X106635904Y-118442857D01*
X106635904Y-118519047D01*
X106254952Y-118595238D01*
X107321619Y-118861904D02*
X107321619Y-118442857D01*
X107283523Y-118366666D01*
X107207333Y-118328571D01*
X107054952Y-118328571D01*
X106978761Y-118366666D01*
X107321619Y-118823809D02*
X107245428Y-118861904D01*
X107054952Y-118861904D01*
X106978761Y-118823809D01*
X106940666Y-118747619D01*
X106940666Y-118671428D01*
X106978761Y-118595238D01*
X107054952Y-118557142D01*
X107245428Y-118557142D01*
X107321619Y-118519047D01*
X107702571Y-118861904D02*
X107702571Y-118061904D01*
X107778761Y-118557142D02*
X108007333Y-118861904D01*
X108007333Y-118328571D02*
X107702571Y-118633333D01*
X108464476Y-118861904D02*
X108388285Y-118823809D01*
X108350190Y-118785714D01*
X108312095Y-118709523D01*
X108312095Y-118480952D01*
X108350190Y-118404761D01*
X108388285Y-118366666D01*
X108464476Y-118328571D01*
X108578761Y-118328571D01*
X108654952Y-118366666D01*
X108693047Y-118404761D01*
X108731142Y-118480952D01*
X108731142Y-118709523D01*
X108693047Y-118785714D01*
X108654952Y-118823809D01*
X108578761Y-118861904D01*
X108464476Y-118861904D01*
X109416857Y-118328571D02*
X109416857Y-118861904D01*
X109074000Y-118328571D02*
X109074000Y-118747619D01*
X109112095Y-118823809D01*
X109188285Y-118861904D01*
X109302571Y-118861904D01*
X109378761Y-118823809D01*
X109416857Y-118785714D01*
X109683523Y-118328571D02*
X109988285Y-118328571D01*
X109797809Y-118061904D02*
X109797809Y-118747619D01*
X109835904Y-118823809D01*
X109912095Y-118861904D01*
X109988285Y-118861904D01*
X111131142Y-118442857D02*
X111245428Y-118480952D01*
X111283523Y-118519047D01*
X111321619Y-118595238D01*
X111321619Y-118709523D01*
X111283523Y-118785714D01*
X111245428Y-118823809D01*
X111169238Y-118861904D01*
X110864476Y-118861904D01*
X110864476Y-118061904D01*
X111131142Y-118061904D01*
X111207333Y-118100000D01*
X111245428Y-118138095D01*
X111283523Y-118214285D01*
X111283523Y-118290476D01*
X111245428Y-118366666D01*
X111207333Y-118404761D01*
X111131142Y-118442857D01*
X110864476Y-118442857D01*
X111778761Y-118861904D02*
X111702571Y-118823809D01*
X111664476Y-118785714D01*
X111626380Y-118709523D01*
X111626380Y-118480952D01*
X111664476Y-118404761D01*
X111702571Y-118366666D01*
X111778761Y-118328571D01*
X111893047Y-118328571D01*
X111969238Y-118366666D01*
X112007333Y-118404761D01*
X112045428Y-118480952D01*
X112045428Y-118709523D01*
X112007333Y-118785714D01*
X111969238Y-118823809D01*
X111893047Y-118861904D01*
X111778761Y-118861904D01*
X112731142Y-118861904D02*
X112731142Y-118442857D01*
X112693047Y-118366666D01*
X112616857Y-118328571D01*
X112464476Y-118328571D01*
X112388285Y-118366666D01*
X112731142Y-118823809D02*
X112654952Y-118861904D01*
X112464476Y-118861904D01*
X112388285Y-118823809D01*
X112350190Y-118747619D01*
X112350190Y-118671428D01*
X112388285Y-118595238D01*
X112464476Y-118557142D01*
X112654952Y-118557142D01*
X112731142Y-118519047D01*
X113112095Y-118861904D02*
X113112095Y-118328571D01*
X113112095Y-118480952D02*
X113150190Y-118404761D01*
X113188285Y-118366666D01*
X113264476Y-118328571D01*
X113340666Y-118328571D01*
X113950190Y-118861904D02*
X113950190Y-118061904D01*
X113950190Y-118823809D02*
X113874000Y-118861904D01*
X113721619Y-118861904D01*
X113645428Y-118823809D01*
X113607333Y-118785714D01*
X113569238Y-118709523D01*
X113569238Y-118480952D01*
X113607333Y-118404761D01*
X113645428Y-118366666D01*
X113721619Y-118328571D01*
X113874000Y-118328571D01*
X113950190Y-118366666D01*
X101465800Y-104546476D02*
X101508657Y-104470285D01*
X101508657Y-104356000D01*
X101465800Y-104241714D01*
X101380085Y-104165523D01*
X101294371Y-104127428D01*
X101122942Y-104089333D01*
X100994371Y-104089333D01*
X100822942Y-104127428D01*
X100737228Y-104165523D01*
X100651514Y-104241714D01*
X100608657Y-104356000D01*
X100608657Y-104432190D01*
X100651514Y-104546476D01*
X100694371Y-104584571D01*
X100994371Y-104584571D01*
X100994371Y-104432190D01*
X100608657Y-104927428D02*
X101508657Y-104927428D01*
X100608657Y-105384571D01*
X101508657Y-105384571D01*
X100608657Y-105765523D02*
X101508657Y-105765523D01*
X101508657Y-105956000D01*
X101465800Y-106070285D01*
X101380085Y-106146476D01*
X101294371Y-106184571D01*
X101122942Y-106222666D01*
X100994371Y-106222666D01*
X100822942Y-106184571D01*
X100737228Y-106146476D01*
X100651514Y-106070285D01*
X100608657Y-105956000D01*
X100608657Y-105765523D01*
D11*
%TO.C,R1*%
X107527658Y-109763500D02*
X107053142Y-109763500D01*
X107527658Y-110808500D02*
X107053142Y-110808500D01*
%TO.C,R3*%
X107515458Y-111744700D02*
X107040942Y-111744700D01*
X107515458Y-112789700D02*
X107040942Y-112789700D01*
D12*
%TO.C,U1*%
X111832000Y-108339200D02*
X112332000Y-108339200D01*
X112332000Y-111539200D02*
X112332000Y-111039200D01*
X112332000Y-111039200D02*
X112332000Y-111539200D01*
X109132000Y-108339200D02*
X109132000Y-108839200D01*
X109132000Y-111539200D02*
X109632000Y-111539200D01*
X112332000Y-111539200D02*
X111832000Y-111539200D01*
X109132000Y-111539200D02*
X109132000Y-111039200D01*
X112332000Y-108339200D02*
X112332000Y-108839200D01*
D11*
%TO.C,C2*%
X113998000Y-110121780D02*
X113998000Y-109840620D01*
X112978000Y-110121780D02*
X112978000Y-109840620D01*
%TO.C,R2*%
X107552258Y-107583500D02*
X107077742Y-107583500D01*
X107552258Y-106538500D02*
X107077742Y-106538500D01*
%TO.C,J1*%
X102048000Y-103894200D02*
X104708000Y-103894200D01*
X102048000Y-119194200D02*
X104708000Y-119194200D01*
X102048000Y-103894200D02*
X102048000Y-119194200D01*
X102048000Y-102624200D02*
X102048000Y-101294200D01*
X104708000Y-103894200D02*
X104708000Y-119194200D01*
X102048000Y-101294200D02*
X103378000Y-101294200D01*
%TO.C,C1*%
X112179020Y-106677200D02*
X112460180Y-106677200D01*
X112179020Y-107697200D02*
X112460180Y-107697200D01*
%TD*%
M02*
